<?xml version="1.0" encoding="utf-8" standalone="no"?>
<!DOCTYPE svg PUBLIC "-//W3C//DTD SVG 1.1//EN"
  "http://www.w3.org/Graphics/SVG/1.1/DTD/svg11.dtd">
<!-- Created with matplotlib (http://matplotlib.org/) -->
<svg height="345.6pt" version="1.1" viewBox="0 0 460.8 345.6" width="460.8pt" xmlns="http://www.w3.org/2000/svg" xmlns:xlink="http://www.w3.org/1999/xlink">
 <defs>
  <style type="text/css">
*{stroke-linecap:butt;stroke-linejoin:round;}
  </style>
 </defs>
 <g id="figure_1">
  <g id="patch_1">
   <path d="M 0 345.6 
L 460.8 345.6 
L 460.8 0 
L 0 0 
z
" style="fill:#ffffff;"/>
  </g>
  <g id="axes_1">
   <g id="patch_2">
    <path d="M 47.72 287.8 
L 444.96 287.8 
L 444.96 13.32 
L 47.72 13.32 
z
" style="fill:#ffffff;"/>
   </g>
   <g id="matplotlib.axis_1">
    <g id="xtick_1">
     <g id="line2d_1">
      <defs>
       <path d="M 0 0 
L 0 3.5 
" id="m74c85ee81e" style="stroke:#000000;stroke-width:0.8;"/>
      </defs>
      <g>
       <use style="stroke:#000000;stroke-width:0.8;" x="47.72" xlink:href="#m74c85ee81e" y="287.8"/>
      </g>
     </g>
     <g id="text_1">
      <!-- A389 -->
      <defs>
       <path d="M 34.1875 63.1875 
L 20.796875 26.90625 
L 47.609375 26.90625 
z
M 28.609375 72.90625 
L 39.796875 72.90625 
L 67.578125 0 
L 57.328125 0 
L 50.6875 18.703125 
L 17.828125 18.703125 
L 11.1875 0 
L 0.78125 0 
z
" id="DejaVuSans-41"/>
       <path d="M 40.578125 39.3125 
Q 47.65625 37.796875 51.625 33 
Q 55.609375 28.21875 55.609375 21.1875 
Q 55.609375 10.40625 48.1875 4.484375 
Q 40.765625 -1.421875 27.09375 -1.421875 
Q 22.515625 -1.421875 17.65625 -0.515625 
Q 12.796875 0.390625 7.625 2.203125 
L 7.625 11.71875 
Q 11.71875 9.328125 16.59375 8.109375 
Q 21.484375 6.890625 26.8125 6.890625 
Q 36.078125 6.890625 40.9375 10.546875 
Q 45.796875 14.203125 45.796875 21.1875 
Q 45.796875 27.640625 41.28125 31.265625 
Q 36.765625 34.90625 28.71875 34.90625 
L 20.21875 34.90625 
L 20.21875 43.015625 
L 29.109375 43.015625 
Q 36.375 43.015625 40.234375 45.921875 
Q 44.09375 48.828125 44.09375 54.296875 
Q 44.09375 59.90625 40.109375 62.90625 
Q 36.140625 65.921875 28.71875 65.921875 
Q 24.65625 65.921875 20.015625 65.03125 
Q 15.375 64.15625 9.8125 62.3125 
L 9.8125 71.09375 
Q 15.4375 72.65625 20.34375 73.4375 
Q 25.25 74.21875 29.59375 74.21875 
Q 40.828125 74.21875 47.359375 69.109375 
Q 53.90625 64.015625 53.90625 55.328125 
Q 53.90625 49.265625 50.4375 45.09375 
Q 46.96875 40.921875 40.578125 39.3125 
z
" id="DejaVuSans-33"/>
       <path d="M 31.78125 34.625 
Q 24.75 34.625 20.71875 30.859375 
Q 16.703125 27.09375 16.703125 20.515625 
Q 16.703125 13.921875 20.71875 10.15625 
Q 24.75 6.390625 31.78125 6.390625 
Q 38.8125 6.390625 42.859375 10.171875 
Q 46.921875 13.96875 46.921875 20.515625 
Q 46.921875 27.09375 42.890625 30.859375 
Q 38.875 34.625 31.78125 34.625 
z
M 21.921875 38.8125 
Q 15.578125 40.375 12.03125 44.71875 
Q 8.5 49.078125 8.5 55.328125 
Q 8.5 64.0625 14.71875 69.140625 
Q 20.953125 74.21875 31.78125 74.21875 
Q 42.671875 74.21875 48.875 69.140625 
Q 55.078125 64.0625 55.078125 55.328125 
Q 55.078125 49.078125 51.53125 44.71875 
Q 48 40.375 41.703125 38.8125 
Q 48.828125 37.15625 52.796875 32.3125 
Q 56.78125 27.484375 56.78125 20.515625 
Q 56.78125 9.90625 50.3125 4.234375 
Q 43.84375 -1.421875 31.78125 -1.421875 
Q 19.734375 -1.421875 13.25 4.234375 
Q 6.78125 9.90625 6.78125 20.515625 
Q 6.78125 27.484375 10.78125 32.3125 
Q 14.796875 37.15625 21.921875 38.8125 
z
M 18.3125 54.390625 
Q 18.3125 48.734375 21.84375 45.5625 
Q 25.390625 42.390625 31.78125 42.390625 
Q 38.140625 42.390625 41.71875 45.5625 
Q 45.3125 48.734375 45.3125 54.390625 
Q 45.3125 60.0625 41.71875 63.234375 
Q 38.140625 66.40625 31.78125 66.40625 
Q 25.390625 66.40625 21.84375 63.234375 
Q 18.3125 60.0625 18.3125 54.390625 
z
" id="DejaVuSans-38"/>
       <path d="M 10.984375 1.515625 
L 10.984375 10.5 
Q 14.703125 8.734375 18.5 7.8125 
Q 22.3125 6.890625 25.984375 6.890625 
Q 35.75 6.890625 40.890625 13.453125 
Q 46.046875 20.015625 46.78125 33.40625 
Q 43.953125 29.203125 39.59375 26.953125 
Q 35.25 24.703125 29.984375 24.703125 
Q 19.046875 24.703125 12.671875 31.3125 
Q 6.296875 37.9375 6.296875 49.421875 
Q 6.296875 60.640625 12.9375 67.421875 
Q 19.578125 74.21875 30.609375 74.21875 
Q 43.265625 74.21875 49.921875 64.515625 
Q 56.59375 54.828125 56.59375 36.375 
Q 56.59375 19.140625 48.40625 8.859375 
Q 40.234375 -1.421875 26.421875 -1.421875 
Q 22.703125 -1.421875 18.890625 -0.6875 
Q 15.09375 0.046875 10.984375 1.515625 
z
M 30.609375 32.421875 
Q 37.25 32.421875 41.125 36.953125 
Q 45.015625 41.5 45.015625 49.421875 
Q 45.015625 57.28125 41.125 61.84375 
Q 37.25 66.40625 30.609375 66.40625 
Q 23.96875 66.40625 20.09375 61.84375 
Q 16.21875 57.28125 16.21875 49.421875 
Q 16.21875 41.5 20.09375 36.953125 
Q 23.96875 32.421875 30.609375 32.421875 
z
" id="DejaVuSans-39"/>
      </defs>
      <g transform="translate(50.479375 320.728125)rotate(-90)scale(0.1 -0.1)">
       <use xlink:href="#DejaVuSans-41"/>
       <use x="68.408203" xlink:href="#DejaVuSans-33"/>
       <use x="132.03125" xlink:href="#DejaVuSans-38"/>
       <use x="195.654297" xlink:href="#DejaVuSans-39"/>
      </g>
     </g>
    </g>
    <g id="xtick_2">
     <g id="line2d_2">
      <g>
       <use style="stroke:#000000;stroke-width:0.8;" x="69.788889" xlink:href="#m74c85ee81e" y="287.8"/>
      </g>
     </g>
     <g id="text_2">
      <!-- A404 -->
      <defs>
       <path d="M 37.796875 64.3125 
L 12.890625 25.390625 
L 37.796875 25.390625 
z
M 35.203125 72.90625 
L 47.609375 72.90625 
L 47.609375 25.390625 
L 58.015625 25.390625 
L 58.015625 17.1875 
L 47.609375 17.1875 
L 47.609375 0 
L 37.796875 0 
L 37.796875 17.1875 
L 4.890625 17.1875 
L 4.890625 26.703125 
z
" id="DejaVuSans-34"/>
       <path d="M 31.78125 66.40625 
Q 24.171875 66.40625 20.328125 58.90625 
Q 16.5 51.421875 16.5 36.375 
Q 16.5 21.390625 20.328125 13.890625 
Q 24.171875 6.390625 31.78125 6.390625 
Q 39.453125 6.390625 43.28125 13.890625 
Q 47.125 21.390625 47.125 36.375 
Q 47.125 51.421875 43.28125 58.90625 
Q 39.453125 66.40625 31.78125 66.40625 
z
M 31.78125 74.21875 
Q 44.046875 74.21875 50.515625 64.515625 
Q 56.984375 54.828125 56.984375 36.375 
Q 56.984375 17.96875 50.515625 8.265625 
Q 44.046875 -1.421875 31.78125 -1.421875 
Q 19.53125 -1.421875 13.0625 8.265625 
Q 6.59375 17.96875 6.59375 36.375 
Q 6.59375 54.828125 13.0625 64.515625 
Q 19.53125 74.21875 31.78125 74.21875 
z
" id="DejaVuSans-30"/>
      </defs>
      <g transform="translate(72.548264 320.728125)rotate(-90)scale(0.1 -0.1)">
       <use xlink:href="#DejaVuSans-41"/>
       <use x="68.408203" xlink:href="#DejaVuSans-34"/>
       <use x="132.03125" xlink:href="#DejaVuSans-30"/>
       <use x="195.654297" xlink:href="#DejaVuSans-34"/>
      </g>
     </g>
    </g>
    <g id="xtick_3">
     <g id="line2d_3">
      <g>
       <use style="stroke:#000000;stroke-width:0.8;" x="91.857778" xlink:href="#m74c85ee81e" y="287.8"/>
      </g>
     </g>
     <g id="text_3">
      <!-- A419 -->
      <defs>
       <path d="M 12.40625 8.296875 
L 28.515625 8.296875 
L 28.515625 63.921875 
L 10.984375 60.40625 
L 10.984375 69.390625 
L 28.421875 72.90625 
L 38.28125 72.90625 
L 38.28125 8.296875 
L 54.390625 8.296875 
L 54.390625 0 
L 12.40625 0 
z
" id="DejaVuSans-31"/>
      </defs>
      <g transform="translate(94.617153 320.728125)rotate(-90)scale(0.1 -0.1)">
       <use xlink:href="#DejaVuSans-41"/>
       <use x="68.408203" xlink:href="#DejaVuSans-34"/>
       <use x="132.03125" xlink:href="#DejaVuSans-31"/>
       <use x="195.654297" xlink:href="#DejaVuSans-39"/>
      </g>
     </g>
    </g>
    <g id="xtick_4">
     <g id="line2d_4">
      <g>
       <use style="stroke:#000000;stroke-width:0.8;" x="113.926667" xlink:href="#m74c85ee81e" y="287.8"/>
      </g>
     </g>
     <g id="text_4">
      <!-- A434 -->
      <g transform="translate(116.686042 320.728125)rotate(-90)scale(0.1 -0.1)">
       <use xlink:href="#DejaVuSans-41"/>
       <use x="68.408203" xlink:href="#DejaVuSans-34"/>
       <use x="132.03125" xlink:href="#DejaVuSans-33"/>
       <use x="195.654297" xlink:href="#DejaVuSans-34"/>
      </g>
     </g>
    </g>
    <g id="xtick_5">
     <g id="line2d_5">
      <g>
       <use style="stroke:#000000;stroke-width:0.8;" x="135.995556" xlink:href="#m74c85ee81e" y="287.8"/>
      </g>
     </g>
     <g id="text_5">
      <!-- A449 -->
      <g transform="translate(138.754931 320.728125)rotate(-90)scale(0.1 -0.1)">
       <use xlink:href="#DejaVuSans-41"/>
       <use x="68.408203" xlink:href="#DejaVuSans-34"/>
       <use x="132.03125" xlink:href="#DejaVuSans-34"/>
       <use x="195.654297" xlink:href="#DejaVuSans-39"/>
      </g>
     </g>
    </g>
    <g id="xtick_6">
     <g id="line2d_6">
      <g>
       <use style="stroke:#000000;stroke-width:0.8;" x="158.064444" xlink:href="#m74c85ee81e" y="287.8"/>
      </g>
     </g>
     <g id="text_6">
      <!-- A464 -->
      <defs>
       <path d="M 33.015625 40.375 
Q 26.375 40.375 22.484375 35.828125 
Q 18.609375 31.296875 18.609375 23.390625 
Q 18.609375 15.53125 22.484375 10.953125 
Q 26.375 6.390625 33.015625 6.390625 
Q 39.65625 6.390625 43.53125 10.953125 
Q 47.40625 15.53125 47.40625 23.390625 
Q 47.40625 31.296875 43.53125 35.828125 
Q 39.65625 40.375 33.015625 40.375 
z
M 52.59375 71.296875 
L 52.59375 62.3125 
Q 48.875 64.0625 45.09375 64.984375 
Q 41.3125 65.921875 37.59375 65.921875 
Q 27.828125 65.921875 22.671875 59.328125 
Q 17.53125 52.734375 16.796875 39.40625 
Q 19.671875 43.65625 24.015625 45.921875 
Q 28.375 48.1875 33.59375 48.1875 
Q 44.578125 48.1875 50.953125 41.515625 
Q 57.328125 34.859375 57.328125 23.390625 
Q 57.328125 12.15625 50.6875 5.359375 
Q 44.046875 -1.421875 33.015625 -1.421875 
Q 20.359375 -1.421875 13.671875 8.265625 
Q 6.984375 17.96875 6.984375 36.375 
Q 6.984375 53.65625 15.1875 63.9375 
Q 23.390625 74.21875 37.203125 74.21875 
Q 40.921875 74.21875 44.703125 73.484375 
Q 48.484375 72.75 52.59375 71.296875 
z
" id="DejaVuSans-36"/>
      </defs>
      <g transform="translate(160.823819 320.728125)rotate(-90)scale(0.1 -0.1)">
       <use xlink:href="#DejaVuSans-41"/>
       <use x="68.408203" xlink:href="#DejaVuSans-34"/>
       <use x="132.03125" xlink:href="#DejaVuSans-36"/>
       <use x="195.654297" xlink:href="#DejaVuSans-34"/>
      </g>
     </g>
    </g>
    <g id="xtick_7">
     <g id="line2d_7">
      <g>
       <use style="stroke:#000000;stroke-width:0.8;" x="180.133333" xlink:href="#m74c85ee81e" y="287.8"/>
      </g>
     </g>
     <g id="text_7">
      <!-- A479 -->
      <defs>
       <path d="M 8.203125 72.90625 
L 55.078125 72.90625 
L 55.078125 68.703125 
L 28.609375 0 
L 18.3125 0 
L 43.21875 64.59375 
L 8.203125 64.59375 
z
" id="DejaVuSans-37"/>
      </defs>
      <g transform="translate(182.892708 320.728125)rotate(-90)scale(0.1 -0.1)">
       <use xlink:href="#DejaVuSans-41"/>
       <use x="68.408203" xlink:href="#DejaVuSans-34"/>
       <use x="132.03125" xlink:href="#DejaVuSans-37"/>
       <use x="195.654297" xlink:href="#DejaVuSans-39"/>
      </g>
     </g>
    </g>
    <g id="xtick_8">
     <g id="line2d_8">
      <g>
       <use style="stroke:#000000;stroke-width:0.8;" x="202.202222" xlink:href="#m74c85ee81e" y="287.8"/>
      </g>
     </g>
     <g id="text_8">
      <!-- A494 -->
      <g transform="translate(204.961597 320.728125)rotate(-90)scale(0.1 -0.1)">
       <use xlink:href="#DejaVuSans-41"/>
       <use x="68.408203" xlink:href="#DejaVuSans-34"/>
       <use x="132.03125" xlink:href="#DejaVuSans-39"/>
       <use x="195.654297" xlink:href="#DejaVuSans-34"/>
      </g>
     </g>
    </g>
    <g id="xtick_9">
     <g id="line2d_9">
      <g>
       <use style="stroke:#000000;stroke-width:0.8;" x="224.271111" xlink:href="#m74c85ee81e" y="287.8"/>
      </g>
     </g>
     <g id="text_9">
      <!-- A509 -->
      <defs>
       <path d="M 10.796875 72.90625 
L 49.515625 72.90625 
L 49.515625 64.59375 
L 19.828125 64.59375 
L 19.828125 46.734375 
Q 21.96875 47.46875 24.109375 47.828125 
Q 26.265625 48.1875 28.421875 48.1875 
Q 40.625 48.1875 47.75 41.5 
Q 54.890625 34.8125 54.890625 23.390625 
Q 54.890625 11.625 47.5625 5.09375 
Q 40.234375 -1.421875 26.90625 -1.421875 
Q 22.3125 -1.421875 17.546875 -0.640625 
Q 12.796875 0.140625 7.71875 1.703125 
L 7.71875 11.625 
Q 12.109375 9.234375 16.796875 8.0625 
Q 21.484375 6.890625 26.703125 6.890625 
Q 35.15625 6.890625 40.078125 11.328125 
Q 45.015625 15.765625 45.015625 23.390625 
Q 45.015625 31 40.078125 35.4375 
Q 35.15625 39.890625 26.703125 39.890625 
Q 22.75 39.890625 18.8125 39.015625 
Q 14.890625 38.140625 10.796875 36.28125 
z
" id="DejaVuSans-35"/>
      </defs>
      <g transform="translate(227.030486 320.728125)rotate(-90)scale(0.1 -0.1)">
       <use xlink:href="#DejaVuSans-41"/>
       <use x="68.408203" xlink:href="#DejaVuSans-35"/>
       <use x="132.03125" xlink:href="#DejaVuSans-30"/>
       <use x="195.654297" xlink:href="#DejaVuSans-39"/>
      </g>
     </g>
    </g>
    <g id="xtick_10">
     <g id="line2d_10">
      <g>
       <use style="stroke:#000000;stroke-width:0.8;" x="246.34" xlink:href="#m74c85ee81e" y="287.8"/>
      </g>
     </g>
     <g id="text_10">
      <!-- A524 -->
      <defs>
       <path d="M 19.1875 8.296875 
L 53.609375 8.296875 
L 53.609375 0 
L 7.328125 0 
L 7.328125 8.296875 
Q 12.9375 14.109375 22.625 23.890625 
Q 32.328125 33.6875 34.8125 36.53125 
Q 39.546875 41.84375 41.421875 45.53125 
Q 43.3125 49.21875 43.3125 52.78125 
Q 43.3125 58.59375 39.234375 62.25 
Q 35.15625 65.921875 28.609375 65.921875 
Q 23.96875 65.921875 18.8125 64.3125 
Q 13.671875 62.703125 7.8125 59.421875 
L 7.8125 69.390625 
Q 13.765625 71.78125 18.9375 73 
Q 24.125 74.21875 28.421875 74.21875 
Q 39.75 74.21875 46.484375 68.546875 
Q 53.21875 62.890625 53.21875 53.421875 
Q 53.21875 48.921875 51.53125 44.890625 
Q 49.859375 40.875 45.40625 35.40625 
Q 44.1875 33.984375 37.640625 27.21875 
Q 31.109375 20.453125 19.1875 8.296875 
z
" id="DejaVuSans-32"/>
      </defs>
      <g transform="translate(249.099375 320.728125)rotate(-90)scale(0.1 -0.1)">
       <use xlink:href="#DejaVuSans-41"/>
       <use x="68.408203" xlink:href="#DejaVuSans-35"/>
       <use x="132.03125" xlink:href="#DejaVuSans-32"/>
       <use x="195.654297" xlink:href="#DejaVuSans-34"/>
      </g>
     </g>
    </g>
    <g id="xtick_11">
     <g id="line2d_11">
      <g>
       <use style="stroke:#000000;stroke-width:0.8;" x="268.408889" xlink:href="#m74c85ee81e" y="287.8"/>
      </g>
     </g>
     <g id="text_11">
      <!-- A539 -->
      <g transform="translate(271.168264 320.728125)rotate(-90)scale(0.1 -0.1)">
       <use xlink:href="#DejaVuSans-41"/>
       <use x="68.408203" xlink:href="#DejaVuSans-35"/>
       <use x="132.03125" xlink:href="#DejaVuSans-33"/>
       <use x="195.654297" xlink:href="#DejaVuSans-39"/>
      </g>
     </g>
    </g>
    <g id="xtick_12">
     <g id="line2d_12">
      <g>
       <use style="stroke:#000000;stroke-width:0.8;" x="290.477778" xlink:href="#m74c85ee81e" y="287.8"/>
      </g>
     </g>
     <g id="text_12">
      <!-- A554 -->
      <g transform="translate(293.237153 320.728125)rotate(-90)scale(0.1 -0.1)">
       <use xlink:href="#DejaVuSans-41"/>
       <use x="68.408203" xlink:href="#DejaVuSans-35"/>
       <use x="132.03125" xlink:href="#DejaVuSans-35"/>
       <use x="195.654297" xlink:href="#DejaVuSans-34"/>
      </g>
     </g>
    </g>
    <g id="xtick_13">
     <g id="line2d_13">
      <g>
       <use style="stroke:#000000;stroke-width:0.8;" x="312.546667" xlink:href="#m74c85ee81e" y="287.8"/>
      </g>
     </g>
     <g id="text_13">
      <!-- A569 -->
      <g transform="translate(315.306042 320.728125)rotate(-90)scale(0.1 -0.1)">
       <use xlink:href="#DejaVuSans-41"/>
       <use x="68.408203" xlink:href="#DejaVuSans-35"/>
       <use x="132.03125" xlink:href="#DejaVuSans-36"/>
       <use x="195.654297" xlink:href="#DejaVuSans-39"/>
      </g>
     </g>
    </g>
    <g id="xtick_14">
     <g id="line2d_14">
      <g>
       <use style="stroke:#000000;stroke-width:0.8;" x="334.615556" xlink:href="#m74c85ee81e" y="287.8"/>
      </g>
     </g>
     <g id="text_14">
      <!-- A584 -->
      <g transform="translate(337.374931 320.728125)rotate(-90)scale(0.1 -0.1)">
       <use xlink:href="#DejaVuSans-41"/>
       <use x="68.408203" xlink:href="#DejaVuSans-35"/>
       <use x="132.03125" xlink:href="#DejaVuSans-38"/>
       <use x="195.654297" xlink:href="#DejaVuSans-34"/>
      </g>
     </g>
    </g>
    <g id="xtick_15">
     <g id="line2d_15">
      <g>
       <use style="stroke:#000000;stroke-width:0.8;" x="356.684444" xlink:href="#m74c85ee81e" y="287.8"/>
      </g>
     </g>
     <g id="text_15">
      <!-- A599 -->
      <g transform="translate(359.443819 320.728125)rotate(-90)scale(0.1 -0.1)">
       <use xlink:href="#DejaVuSans-41"/>
       <use x="68.408203" xlink:href="#DejaVuSans-35"/>
       <use x="132.03125" xlink:href="#DejaVuSans-39"/>
       <use x="195.654297" xlink:href="#DejaVuSans-39"/>
      </g>
     </g>
    </g>
    <g id="xtick_16">
     <g id="line2d_16">
      <g>
       <use style="stroke:#000000;stroke-width:0.8;" x="378.753333" xlink:href="#m74c85ee81e" y="287.8"/>
      </g>
     </g>
     <g id="text_16">
      <!-- A614 -->
      <g transform="translate(381.512708 320.728125)rotate(-90)scale(0.1 -0.1)">
       <use xlink:href="#DejaVuSans-41"/>
       <use x="68.408203" xlink:href="#DejaVuSans-36"/>
       <use x="132.03125" xlink:href="#DejaVuSans-31"/>
       <use x="195.654297" xlink:href="#DejaVuSans-34"/>
      </g>
     </g>
    </g>
    <g id="xtick_17">
     <g id="line2d_17">
      <g>
       <use style="stroke:#000000;stroke-width:0.8;" x="400.822222" xlink:href="#m74c85ee81e" y="287.8"/>
      </g>
     </g>
     <g id="text_17">
      <!-- A629 -->
      <g transform="translate(403.581597 320.728125)rotate(-90)scale(0.1 -0.1)">
       <use xlink:href="#DejaVuSans-41"/>
       <use x="68.408203" xlink:href="#DejaVuSans-36"/>
       <use x="132.03125" xlink:href="#DejaVuSans-32"/>
       <use x="195.654297" xlink:href="#DejaVuSans-39"/>
      </g>
     </g>
    </g>
    <g id="xtick_18">
     <g id="line2d_18">
      <g>
       <use style="stroke:#000000;stroke-width:0.8;" x="422.891111" xlink:href="#m74c85ee81e" y="287.8"/>
      </g>
     </g>
     <g id="text_18">
      <!-- A644 -->
      <g transform="translate(425.650486 320.728125)rotate(-90)scale(0.1 -0.1)">
       <use xlink:href="#DejaVuSans-41"/>
       <use x="68.408203" xlink:href="#DejaVuSans-36"/>
       <use x="132.03125" xlink:href="#DejaVuSans-34"/>
       <use x="195.654297" xlink:href="#DejaVuSans-34"/>
      </g>
     </g>
    </g>
    <g id="xtick_19">
     <g id="line2d_19">
      <g>
       <use style="stroke:#000000;stroke-width:0.8;" x="444.96" xlink:href="#m74c85ee81e" y="287.8"/>
      </g>
     </g>
     <g id="text_19">
      <!-- A659 -->
      <g transform="translate(447.719375 320.728125)rotate(-90)scale(0.1 -0.1)">
       <use xlink:href="#DejaVuSans-41"/>
       <use x="68.408203" xlink:href="#DejaVuSans-36"/>
       <use x="132.03125" xlink:href="#DejaVuSans-35"/>
       <use x="195.654297" xlink:href="#DejaVuSans-39"/>
      </g>
     </g>
    </g>
    <g id="text_20">
     <!-- Residue index -->
     <defs>
      <path d="M 44.390625 34.1875 
Q 47.5625 33.109375 50.5625 29.59375 
Q 53.5625 26.078125 56.59375 19.921875 
L 66.609375 0 
L 56 0 
L 46.6875 18.703125 
Q 43.0625 26.03125 39.671875 28.421875 
Q 36.28125 30.8125 30.421875 30.8125 
L 19.671875 30.8125 
L 19.671875 0 
L 9.8125 0 
L 9.8125 72.90625 
L 32.078125 72.90625 
Q 44.578125 72.90625 50.734375 67.671875 
Q 56.890625 62.453125 56.890625 51.90625 
Q 56.890625 45.015625 53.6875 40.46875 
Q 50.484375 35.9375 44.390625 34.1875 
z
M 19.671875 64.796875 
L 19.671875 38.921875 
L 32.078125 38.921875 
Q 39.203125 38.921875 42.84375 42.21875 
Q 46.484375 45.515625 46.484375 51.90625 
Q 46.484375 58.296875 42.84375 61.546875 
Q 39.203125 64.796875 32.078125 64.796875 
z
" id="DejaVuSans-52"/>
      <path d="M 56.203125 29.59375 
L 56.203125 25.203125 
L 14.890625 25.203125 
Q 15.484375 15.921875 20.484375 11.0625 
Q 25.484375 6.203125 34.421875 6.203125 
Q 39.59375 6.203125 44.453125 7.46875 
Q 49.3125 8.734375 54.109375 11.28125 
L 54.109375 2.78125 
Q 49.265625 0.734375 44.1875 -0.34375 
Q 39.109375 -1.421875 33.890625 -1.421875 
Q 20.796875 -1.421875 13.15625 6.1875 
Q 5.515625 13.8125 5.515625 26.8125 
Q 5.515625 40.234375 12.765625 48.109375 
Q 20.015625 56 32.328125 56 
Q 43.359375 56 49.78125 48.890625 
Q 56.203125 41.796875 56.203125 29.59375 
z
M 47.21875 32.234375 
Q 47.125 39.59375 43.09375 43.984375 
Q 39.0625 48.390625 32.421875 48.390625 
Q 24.90625 48.390625 20.390625 44.140625 
Q 15.875 39.890625 15.1875 32.171875 
z
" id="DejaVuSans-65"/>
      <path d="M 44.28125 53.078125 
L 44.28125 44.578125 
Q 40.484375 46.53125 36.375 47.5 
Q 32.28125 48.484375 27.875 48.484375 
Q 21.1875 48.484375 17.84375 46.4375 
Q 14.5 44.390625 14.5 40.28125 
Q 14.5 37.15625 16.890625 35.375 
Q 19.28125 33.59375 26.515625 31.984375 
L 29.59375 31.296875 
Q 39.15625 29.25 43.1875 25.515625 
Q 47.21875 21.78125 47.21875 15.09375 
Q 47.21875 7.46875 41.1875 3.015625 
Q 35.15625 -1.421875 24.609375 -1.421875 
Q 20.21875 -1.421875 15.453125 -0.5625 
Q 10.6875 0.296875 5.421875 2 
L 5.421875 11.28125 
Q 10.40625 8.6875 15.234375 7.390625 
Q 20.0625 6.109375 24.8125 6.109375 
Q 31.15625 6.109375 34.5625 8.28125 
Q 37.984375 10.453125 37.984375 14.40625 
Q 37.984375 18.0625 35.515625 20.015625 
Q 33.0625 21.96875 24.703125 23.78125 
L 21.578125 24.515625 
Q 13.234375 26.265625 9.515625 29.90625 
Q 5.8125 33.546875 5.8125 39.890625 
Q 5.8125 47.609375 11.28125 51.796875 
Q 16.75 56 26.8125 56 
Q 31.78125 56 36.171875 55.265625 
Q 40.578125 54.546875 44.28125 53.078125 
z
" id="DejaVuSans-73"/>
      <path d="M 9.421875 54.6875 
L 18.40625 54.6875 
L 18.40625 0 
L 9.421875 0 
z
M 9.421875 75.984375 
L 18.40625 75.984375 
L 18.40625 64.59375 
L 9.421875 64.59375 
z
" id="DejaVuSans-69"/>
      <path d="M 45.40625 46.390625 
L 45.40625 75.984375 
L 54.390625 75.984375 
L 54.390625 0 
L 45.40625 0 
L 45.40625 8.203125 
Q 42.578125 3.328125 38.25 0.953125 
Q 33.9375 -1.421875 27.875 -1.421875 
Q 17.96875 -1.421875 11.734375 6.484375 
Q 5.515625 14.40625 5.515625 27.296875 
Q 5.515625 40.1875 11.734375 48.09375 
Q 17.96875 56 27.875 56 
Q 33.9375 56 38.25 53.625 
Q 42.578125 51.265625 45.40625 46.390625 
z
M 14.796875 27.296875 
Q 14.796875 17.390625 18.875 11.75 
Q 22.953125 6.109375 30.078125 6.109375 
Q 37.203125 6.109375 41.296875 11.75 
Q 45.40625 17.390625 45.40625 27.296875 
Q 45.40625 37.203125 41.296875 42.84375 
Q 37.203125 48.484375 30.078125 48.484375 
Q 22.953125 48.484375 18.875 42.84375 
Q 14.796875 37.203125 14.796875 27.296875 
z
" id="DejaVuSans-64"/>
      <path d="M 8.5 21.578125 
L 8.5 54.6875 
L 17.484375 54.6875 
L 17.484375 21.921875 
Q 17.484375 14.15625 20.5 10.265625 
Q 23.53125 6.390625 29.59375 6.390625 
Q 36.859375 6.390625 41.078125 11.03125 
Q 45.3125 15.671875 45.3125 23.6875 
L 45.3125 54.6875 
L 54.296875 54.6875 
L 54.296875 0 
L 45.3125 0 
L 45.3125 8.40625 
Q 42.046875 3.421875 37.71875 1 
Q 33.40625 -1.421875 27.6875 -1.421875 
Q 18.265625 -1.421875 13.375 4.4375 
Q 8.5 10.296875 8.5 21.578125 
z
M 31.109375 56 
z
" id="DejaVuSans-75"/>
      <path id="DejaVuSans-20"/>
      <path d="M 54.890625 33.015625 
L 54.890625 0 
L 45.90625 0 
L 45.90625 32.71875 
Q 45.90625 40.484375 42.875 44.328125 
Q 39.84375 48.1875 33.796875 48.1875 
Q 26.515625 48.1875 22.3125 43.546875 
Q 18.109375 38.921875 18.109375 30.90625 
L 18.109375 0 
L 9.078125 0 
L 9.078125 54.6875 
L 18.109375 54.6875 
L 18.109375 46.1875 
Q 21.34375 51.125 25.703125 53.5625 
Q 30.078125 56 35.796875 56 
Q 45.21875 56 50.046875 50.171875 
Q 54.890625 44.34375 54.890625 33.015625 
z
" id="DejaVuSans-6e"/>
      <path d="M 54.890625 54.6875 
L 35.109375 28.078125 
L 55.90625 0 
L 45.3125 0 
L 29.390625 21.484375 
L 13.484375 0 
L 2.875 0 
L 24.125 28.609375 
L 4.6875 54.6875 
L 15.28125 54.6875 
L 29.78125 35.203125 
L 44.28125 54.6875 
z
" id="DejaVuSans-78"/>
     </defs>
     <g transform="translate(211.022812 332.326562)scale(0.1 -0.1)">
      <use xlink:href="#DejaVuSans-52"/>
      <use x="69.419922" xlink:href="#DejaVuSans-65"/>
      <use x="130.943359" xlink:href="#DejaVuSans-73"/>
      <use x="183.042969" xlink:href="#DejaVuSans-69"/>
      <use x="210.826172" xlink:href="#DejaVuSans-64"/>
      <use x="274.302734" xlink:href="#DejaVuSans-75"/>
      <use x="337.681641" xlink:href="#DejaVuSans-65"/>
      <use x="399.205078" xlink:href="#DejaVuSans-20"/>
      <use x="430.992188" xlink:href="#DejaVuSans-69"/>
      <use x="458.775391" xlink:href="#DejaVuSans-6e"/>
      <use x="522.154297" xlink:href="#DejaVuSans-64"/>
      <use x="585.630859" xlink:href="#DejaVuSans-65"/>
      <use x="647.138672" xlink:href="#DejaVuSans-78"/>
     </g>
    </g>
   </g>
   <g id="matplotlib.axis_2">
    <g id="ytick_1">
     <g id="line2d_20">
      <defs>
       <path d="M 0 0 
L -3.5 0 
" id="mcc20d29412" style="stroke:#000000;stroke-width:0.8;"/>
      </defs>
      <g>
       <use style="stroke:#000000;stroke-width:0.8;" x="47.72" xlink:href="#mcc20d29412" y="284.170546"/>
      </g>
     </g>
     <g id="text_21">
      <!-- 0.0 -->
      <defs>
       <path d="M 10.6875 12.40625 
L 21 12.40625 
L 21 0 
L 10.6875 0 
z
" id="DejaVuSans-2e"/>
      </defs>
      <g transform="translate(24.816875 287.969765)scale(0.1 -0.1)">
       <use xlink:href="#DejaVuSans-30"/>
       <use x="63.623047" xlink:href="#DejaVuSans-2e"/>
       <use x="95.410156" xlink:href="#DejaVuSans-30"/>
      </g>
     </g>
    </g>
    <g id="ytick_2">
     <g id="line2d_21">
      <g>
       <use style="stroke:#000000;stroke-width:0.8;" x="47.72" xlink:href="#mcc20d29412" y="251.228521"/>
      </g>
     </g>
     <g id="text_22">
      <!-- 0.5 -->
      <g transform="translate(24.816875 255.02774)scale(0.1 -0.1)">
       <use xlink:href="#DejaVuSans-30"/>
       <use x="63.623047" xlink:href="#DejaVuSans-2e"/>
       <use x="95.410156" xlink:href="#DejaVuSans-35"/>
      </g>
     </g>
    </g>
    <g id="ytick_3">
     <g id="line2d_22">
      <g>
       <use style="stroke:#000000;stroke-width:0.8;" x="47.72" xlink:href="#mcc20d29412" y="218.286496"/>
      </g>
     </g>
     <g id="text_23">
      <!-- 1.0 -->
      <g transform="translate(24.816875 222.085715)scale(0.1 -0.1)">
       <use xlink:href="#DejaVuSans-31"/>
       <use x="63.623047" xlink:href="#DejaVuSans-2e"/>
       <use x="95.410156" xlink:href="#DejaVuSans-30"/>
      </g>
     </g>
    </g>
    <g id="ytick_4">
     <g id="line2d_23">
      <g>
       <use style="stroke:#000000;stroke-width:0.8;" x="47.72" xlink:href="#mcc20d29412" y="185.344471"/>
      </g>
     </g>
     <g id="text_24">
      <!-- 1.5 -->
      <g transform="translate(24.816875 189.14369)scale(0.1 -0.1)">
       <use xlink:href="#DejaVuSans-31"/>
       <use x="63.623047" xlink:href="#DejaVuSans-2e"/>
       <use x="95.410156" xlink:href="#DejaVuSans-35"/>
      </g>
     </g>
    </g>
    <g id="ytick_5">
     <g id="line2d_24">
      <g>
       <use style="stroke:#000000;stroke-width:0.8;" x="47.72" xlink:href="#mcc20d29412" y="152.402446"/>
      </g>
     </g>
     <g id="text_25">
      <!-- 2.0 -->
      <g transform="translate(24.816875 156.201665)scale(0.1 -0.1)">
       <use xlink:href="#DejaVuSans-32"/>
       <use x="63.623047" xlink:href="#DejaVuSans-2e"/>
       <use x="95.410156" xlink:href="#DejaVuSans-30"/>
      </g>
     </g>
    </g>
    <g id="ytick_6">
     <g id="line2d_25">
      <g>
       <use style="stroke:#000000;stroke-width:0.8;" x="47.72" xlink:href="#mcc20d29412" y="119.460421"/>
      </g>
     </g>
     <g id="text_26">
      <!-- 2.5 -->
      <g transform="translate(24.816875 123.25964)scale(0.1 -0.1)">
       <use xlink:href="#DejaVuSans-32"/>
       <use x="63.623047" xlink:href="#DejaVuSans-2e"/>
       <use x="95.410156" xlink:href="#DejaVuSans-35"/>
      </g>
     </g>
    </g>
    <g id="ytick_7">
     <g id="line2d_26">
      <g>
       <use style="stroke:#000000;stroke-width:0.8;" x="47.72" xlink:href="#mcc20d29412" y="86.518396"/>
      </g>
     </g>
     <g id="text_27">
      <!-- 3.0 -->
      <g transform="translate(24.816875 90.317615)scale(0.1 -0.1)">
       <use xlink:href="#DejaVuSans-33"/>
       <use x="63.623047" xlink:href="#DejaVuSans-2e"/>
       <use x="95.410156" xlink:href="#DejaVuSans-30"/>
      </g>
     </g>
    </g>
    <g id="ytick_8">
     <g id="line2d_27">
      <g>
       <use style="stroke:#000000;stroke-width:0.8;" x="47.72" xlink:href="#mcc20d29412" y="53.576371"/>
      </g>
     </g>
     <g id="text_28">
      <!-- 3.5 -->
      <g transform="translate(24.816875 57.37559)scale(0.1 -0.1)">
       <use xlink:href="#DejaVuSans-33"/>
       <use x="63.623047" xlink:href="#DejaVuSans-2e"/>
       <use x="95.410156" xlink:href="#DejaVuSans-35"/>
      </g>
     </g>
    </g>
    <g id="ytick_9">
     <g id="line2d_28">
      <g>
       <use style="stroke:#000000;stroke-width:0.8;" x="47.72" xlink:href="#mcc20d29412" y="20.634346"/>
      </g>
     </g>
     <g id="text_29">
      <!-- 4.0 -->
      <g transform="translate(24.816875 24.433565)scale(0.1 -0.1)">
       <use xlink:href="#DejaVuSans-34"/>
       <use x="63.623047" xlink:href="#DejaVuSans-2e"/>
       <use x="95.410156" xlink:href="#DejaVuSans-30"/>
      </g>
     </g>
    </g>
    <g id="text_30">
     <!-- RMSF -->
     <defs>
      <path d="M 9.8125 72.90625 
L 24.515625 72.90625 
L 43.109375 23.296875 
L 61.8125 72.90625 
L 76.515625 72.90625 
L 76.515625 0 
L 66.890625 0 
L 66.890625 64.015625 
L 48.09375 14.015625 
L 38.1875 14.015625 
L 19.390625 64.015625 
L 19.390625 0 
L 9.8125 0 
z
" id="DejaVuSans-4d"/>
      <path d="M 53.515625 70.515625 
L 53.515625 60.890625 
Q 47.90625 63.578125 42.921875 64.890625 
Q 37.9375 66.21875 33.296875 66.21875 
Q 25.25 66.21875 20.875 63.09375 
Q 16.5 59.96875 16.5 54.203125 
Q 16.5 49.359375 19.40625 46.890625 
Q 22.3125 44.4375 30.421875 42.921875 
L 36.375 41.703125 
Q 47.40625 39.59375 52.65625 34.296875 
Q 57.90625 29 57.90625 20.125 
Q 57.90625 9.515625 50.796875 4.046875 
Q 43.703125 -1.421875 29.984375 -1.421875 
Q 24.8125 -1.421875 18.96875 -0.25 
Q 13.140625 0.921875 6.890625 3.21875 
L 6.890625 13.375 
Q 12.890625 10.015625 18.65625 8.296875 
Q 24.421875 6.59375 29.984375 6.59375 
Q 38.421875 6.59375 43.015625 9.90625 
Q 47.609375 13.234375 47.609375 19.390625 
Q 47.609375 24.75 44.3125 27.78125 
Q 41.015625 30.8125 33.5 32.328125 
L 27.484375 33.5 
Q 16.453125 35.6875 11.515625 40.375 
Q 6.59375 45.0625 6.59375 53.421875 
Q 6.59375 63.09375 13.40625 68.65625 
Q 20.21875 74.21875 32.171875 74.21875 
Q 37.3125 74.21875 42.625 73.28125 
Q 47.953125 72.359375 53.515625 70.515625 
z
" id="DejaVuSans-53"/>
      <path d="M 9.8125 72.90625 
L 51.703125 72.90625 
L 51.703125 64.59375 
L 19.671875 64.59375 
L 19.671875 43.109375 
L 48.578125 43.109375 
L 48.578125 34.8125 
L 19.671875 34.8125 
L 19.671875 0 
L 9.8125 0 
z
" id="DejaVuSans-46"/>
     </defs>
     <g transform="translate(18.737188 164.398281)rotate(-90)scale(0.1 -0.1)">
      <use xlink:href="#DejaVuSans-52"/>
      <use x="69.482422" xlink:href="#DejaVuSans-4d"/>
      <use x="155.761719" xlink:href="#DejaVuSans-53"/>
      <use x="219.238281" xlink:href="#DejaVuSans-46"/>
     </g>
    </g>
   </g>
   <g id="line2d_29">
    <path clip-path="url(#p0b6e7ba441)" d="M 47.72 25.796364 
L 49.191259 88.51575 
L 50.662519 128.469355 
L 52.133778 164.672023 
L 53.605037 155.128185 
L 55.076296 209.366342 
L 56.547556 218.647477 
L 58.018815 244.787644 
L 59.490074 226.031001 
L 60.961333 181.214414 
L 62.432593 214.483025 
L 63.903852 202.329674 
L 65.375111 220.129262 
L 66.84637 241.801928 
L 68.31763 245.751194 
L 69.788889 243.800923 
L 71.260148 223.601119 
L 72.731407 240.74373 
L 74.202667 236.499819 
L 75.673926 237.16032 
L 77.145185 229.135862 
L 78.616444 205.820279 
L 80.087704 235.397678 
L 81.558963 222.445053 
L 83.030222 237.690114 
L 84.501481 230.958045 
L 85.972741 246.964834 
L 87.444 254.282248 
L 88.915259 259.464058 
L 90.386519 258.863594 
L 91.857778 244.461254 
L 93.329037 247.885114 
L 94.800296 244.089065 
L 96.271556 196.407338 
L 97.742815 171.569896 
L 99.214074 154.195104 
L 100.685333 182.950455 
L 102.156593 230.605228 
L 103.627852 260.367102 
L 105.099111 271.075048 
L 106.57037 248.691536 
L 108.04163 234.575678 
L 109.512889 241.365372 
L 110.984148 251.501519 
L 112.455407 222.568687 
L 113.926667 211.601201 
L 115.397926 183.969447 
L 116.869185 215.171276 
L 118.340444 239.352065 
L 119.811704 231.506613 
L 121.282963 247.305075 
L 122.754222 241.268914 
L 124.225481 255.046534 
L 125.696741 261.10946 
L 127.168 252.934001 
L 128.639259 249.670623 
L 130.110519 250.805102 
L 131.581778 249.878842 
L 133.053037 237.865416 
L 134.524296 230.448611 
L 135.995556 239.55361 
L 137.466815 231.473441 
L 138.938074 157.195225 
L 140.409333 196.626257 
L 141.880593 161.996417 
L 144.823111 238.672545 
L 146.29437 264.221492 
L 147.76563 264.975391 
L 149.236889 256.71912 
L 150.708148 239.915497 
L 152.179407 249.701492 
L 153.650667 251.316466 
L 155.121926 233.982593 
L 156.593185 267.094049 
L 158.064444 259.055946 
L 159.535704 241.597609 
L 161.006963 219.744302 
L 162.478222 205.098901 
L 163.949481 213.921995 
L 165.420741 224.110038 
L 166.892 249.150317 
L 168.363259 269.905709 
L 169.834519 267.912384 
L 171.305778 270.134088 
L 172.777037 260.399268 
L 174.248296 246.960185 
L 175.719556 244.843171 
L 177.190815 238.430268 
L 178.662074 237.644692 
L 180.133333 174.313952 
L 181.604593 211.980125 
L 183.075852 266.98253 
L 184.547111 272.111288 
L 186.01837 262.616107 
L 187.48963 244.720499 
L 188.960889 253.560796 
L 190.432148 242.306692 
L 193.374667 216.580673 
L 194.845926 222.337831 
L 196.317185 192.860297 
L 197.788444 194.327324 
L 199.259704 235.212763 
L 200.730963 242.458798 
L 202.202222 232.385828 
L 203.673481 252.281378 
L 205.144741 260.130646 
L 206.616 260.618062 
L 208.087259 256.449336 
L 209.558519 273.169034 
L 211.029778 273.276482 
L 212.501037 274.293155 
L 213.972296 274.795826 
L 215.443556 274.585405 
L 216.914815 274.73771 
L 218.386074 264.607988 
L 219.857333 275.303306 
L 222.799852 267.584218 
L 224.271111 271.561976 
L 227.21363 266.894808 
L 228.684889 265.210117 
L 230.156148 262.392645 
L 231.627407 252.066724 
L 233.098667 236.50021 
L 234.569926 234.458053 
L 236.041185 228.200524 
L 237.512444 210.768784 
L 238.983704 236.44732 
L 240.454963 240.396932 
L 241.926222 246.516451 
L 243.397481 191.37051 
L 244.868741 252.05684 
L 246.34 255.709148 
L 247.811259 260.167819 
L 249.282519 273.549819 
L 250.753778 272.066918 
L 252.225037 273.329033 
L 253.696296 260.081058 
L 255.167556 260.570967 
L 256.638815 233.560954 
L 258.110074 199.818773 
L 259.581333 246.571331 
L 261.052593 268.882163 
L 262.523852 271.995612 
L 263.995111 274.80858 
L 265.46637 269.750134 
L 266.93763 259.102254 
L 268.408889 259.477536 
L 269.880148 254.990065 
L 271.351407 242.563521 
L 272.822667 244.838544 
L 274.293926 236.714658 
L 275.765185 239.169927 
L 277.236444 254.538642 
L 278.707704 245.003785 
L 280.178963 247.317891 
L 281.650222 238.017771 
L 283.121481 209.266185 
L 284.592741 199.204346 
L 286.064 225.826645 
L 289.006519 170.821109 
L 290.477778 176.186464 
L 291.949037 160.058902 
L 293.420296 177.751575 
L 294.891556 186.525669 
L 296.362815 212.12453 
L 297.834074 215.825163 
L 300.776593 254.804075 
L 302.247852 261.811923 
L 303.719111 259.021267 
L 305.19037 266.638934 
L 306.66163 262.452462 
L 308.132889 245.010179 
L 309.604148 233.30943 
L 311.075407 223.733479 
L 312.546667 222.954015 
L 314.017926 207.230191 
L 315.489185 197.569712 
L 316.960444 201.030465 
L 318.431704 211.600757 
L 319.902963 227.895017 
L 321.374222 229.900177 
L 322.845481 258.377498 
L 324.316741 269.180356 
L 325.788 259.633234 
L 327.259259 264.561477 
L 328.730519 271.776347 
L 330.201778 260.110501 
L 331.673037 272.133853 
L 333.144296 275.226757 
L 334.615556 274.607799 
L 336.086815 269.506585 
L 337.558074 275.323636 
L 339.029333 274.786978 
L 340.500593 274.119118 
L 341.971852 270.382147 
L 343.443111 266.216586 
L 344.91437 259.484474 
L 346.38563 247.894488 
L 347.856889 220.40571 
L 349.328148 172.55356 
L 350.799407 175.663691 
L 352.270667 186.444195 
L 353.741926 177.227042 
L 355.213185 182.931977 
L 356.684444 128.048596 
L 358.155704 154.527368 
L 359.626963 183.355992 
L 361.098222 197.700869 
L 362.569481 220.498388 
L 364.040741 229.005474 
L 365.512 220.865338 
L 366.983259 235.202577 
L 368.454519 237.084522 
L 369.925778 214.54656 
L 371.397037 225.908735 
L 372.868296 220.018794 
L 375.810815 182.364497 
L 377.282074 177.058615 
L 378.753333 176.464002 
L 380.224593 190.157946 
L 381.695852 217.281065 
L 383.167111 225.443792 
L 384.63837 211.991916 
L 386.10963 232.429921 
L 387.580889 194.844891 
L 389.052148 235.146792 
L 390.523407 170.196646 
L 391.994667 239.834888 
L 393.465926 242.722632 
L 394.937185 247.593003 
L 396.408444 252.954824 
L 397.879704 253.345105 
L 399.350963 247.641419 
L 400.822222 259.377442 
L 402.293481 261.530339 
L 403.764741 259.992426 
L 405.236 251.793282 
L 406.707259 259.635698 
L 408.178519 250.02097 
L 409.649778 229.748009 
L 411.121037 202.523722 
L 412.592296 212.61352 
L 414.063556 225.77365 
L 415.534815 220.573246 
L 417.006074 218.06597 
L 419.948593 234.361336 
L 421.419852 254.808904 
L 422.891111 270.784827 
L 425.83363 262.310966 
L 427.304889 270.899566 
L 428.776148 268.976994 
L 430.247407 268.749137 
L 431.718667 268.055604 
L 433.189926 269.134758 
L 434.661185 259.110317 
L 436.132444 253.658012 
L 437.603704 259.538161 
L 439.074963 260.957228 
L 440.546222 246.394147 
L 442.017481 246.16007 
L 443.488741 232.987975 
L 444.96 198.366245 
L 444.96 198.366245 
" style="fill:none;stroke:#666666;stroke-dasharray:1,1.65;stroke-dashoffset:0;"/>
    <defs>
     <path d="M 0 0.5 
C 0.132602 0.5 0.25979 0.447317 0.353553 0.353553 
C 0.447317 0.25979 0.5 0.132602 0.5 0 
C 0.5 -0.132602 0.447317 -0.25979 0.353553 -0.353553 
C 0.25979 -0.447317 0.132602 -0.5 0 -0.5 
C -0.132602 -0.5 -0.25979 -0.447317 -0.353553 -0.353553 
C -0.447317 -0.25979 -0.5 -0.132602 -0.5 0 
C -0.5 0.132602 -0.447317 0.25979 -0.353553 0.353553 
C -0.25979 0.447317 -0.132602 0.5 0 0.5 
z
" id="mbd118502d8" style="stroke:#666666;"/>
    </defs>
    <g clip-path="url(#p0b6e7ba441)">
     <use style="fill:#666666;stroke:#666666;" x="47.72" xlink:href="#mbd118502d8" y="25.796364"/>
     <use style="fill:#666666;stroke:#666666;" x="49.191259" xlink:href="#mbd118502d8" y="88.51575"/>
     <use style="fill:#666666;stroke:#666666;" x="50.662519" xlink:href="#mbd118502d8" y="128.469355"/>
     <use style="fill:#666666;stroke:#666666;" x="52.133778" xlink:href="#mbd118502d8" y="164.672023"/>
     <use style="fill:#666666;stroke:#666666;" x="53.605037" xlink:href="#mbd118502d8" y="155.128185"/>
     <use style="fill:#666666;stroke:#666666;" x="55.076296" xlink:href="#mbd118502d8" y="209.366342"/>
     <use style="fill:#666666;stroke:#666666;" x="56.547556" xlink:href="#mbd118502d8" y="218.647477"/>
     <use style="fill:#666666;stroke:#666666;" x="58.018815" xlink:href="#mbd118502d8" y="244.787644"/>
     <use style="fill:#666666;stroke:#666666;" x="59.490074" xlink:href="#mbd118502d8" y="226.031001"/>
     <use style="fill:#666666;stroke:#666666;" x="60.961333" xlink:href="#mbd118502d8" y="181.214414"/>
     <use style="fill:#666666;stroke:#666666;" x="62.432593" xlink:href="#mbd118502d8" y="214.483025"/>
     <use style="fill:#666666;stroke:#666666;" x="63.903852" xlink:href="#mbd118502d8" y="202.329674"/>
     <use style="fill:#666666;stroke:#666666;" x="65.375111" xlink:href="#mbd118502d8" y="220.129262"/>
     <use style="fill:#666666;stroke:#666666;" x="66.84637" xlink:href="#mbd118502d8" y="241.801928"/>
     <use style="fill:#666666;stroke:#666666;" x="68.31763" xlink:href="#mbd118502d8" y="245.751194"/>
     <use style="fill:#666666;stroke:#666666;" x="69.788889" xlink:href="#mbd118502d8" y="243.800923"/>
     <use style="fill:#666666;stroke:#666666;" x="71.260148" xlink:href="#mbd118502d8" y="223.601119"/>
     <use style="fill:#666666;stroke:#666666;" x="72.731407" xlink:href="#mbd118502d8" y="240.74373"/>
     <use style="fill:#666666;stroke:#666666;" x="74.202667" xlink:href="#mbd118502d8" y="236.499819"/>
     <use style="fill:#666666;stroke:#666666;" x="75.673926" xlink:href="#mbd118502d8" y="237.16032"/>
     <use style="fill:#666666;stroke:#666666;" x="77.145185" xlink:href="#mbd118502d8" y="229.135862"/>
     <use style="fill:#666666;stroke:#666666;" x="78.616444" xlink:href="#mbd118502d8" y="205.820279"/>
     <use style="fill:#666666;stroke:#666666;" x="80.087704" xlink:href="#mbd118502d8" y="235.397678"/>
     <use style="fill:#666666;stroke:#666666;" x="81.558963" xlink:href="#mbd118502d8" y="222.445053"/>
     <use style="fill:#666666;stroke:#666666;" x="83.030222" xlink:href="#mbd118502d8" y="237.690114"/>
     <use style="fill:#666666;stroke:#666666;" x="84.501481" xlink:href="#mbd118502d8" y="230.958045"/>
     <use style="fill:#666666;stroke:#666666;" x="85.972741" xlink:href="#mbd118502d8" y="246.964834"/>
     <use style="fill:#666666;stroke:#666666;" x="87.444" xlink:href="#mbd118502d8" y="254.282248"/>
     <use style="fill:#666666;stroke:#666666;" x="88.915259" xlink:href="#mbd118502d8" y="259.464058"/>
     <use style="fill:#666666;stroke:#666666;" x="90.386519" xlink:href="#mbd118502d8" y="258.863594"/>
     <use style="fill:#666666;stroke:#666666;" x="91.857778" xlink:href="#mbd118502d8" y="244.461254"/>
     <use style="fill:#666666;stroke:#666666;" x="93.329037" xlink:href="#mbd118502d8" y="247.885114"/>
     <use style="fill:#666666;stroke:#666666;" x="94.800296" xlink:href="#mbd118502d8" y="244.089065"/>
     <use style="fill:#666666;stroke:#666666;" x="96.271556" xlink:href="#mbd118502d8" y="196.407338"/>
     <use style="fill:#666666;stroke:#666666;" x="97.742815" xlink:href="#mbd118502d8" y="171.569896"/>
     <use style="fill:#666666;stroke:#666666;" x="99.214074" xlink:href="#mbd118502d8" y="154.195104"/>
     <use style="fill:#666666;stroke:#666666;" x="100.685333" xlink:href="#mbd118502d8" y="182.950455"/>
     <use style="fill:#666666;stroke:#666666;" x="102.156593" xlink:href="#mbd118502d8" y="230.605228"/>
     <use style="fill:#666666;stroke:#666666;" x="103.627852" xlink:href="#mbd118502d8" y="260.367102"/>
     <use style="fill:#666666;stroke:#666666;" x="105.099111" xlink:href="#mbd118502d8" y="271.075048"/>
     <use style="fill:#666666;stroke:#666666;" x="106.57037" xlink:href="#mbd118502d8" y="248.691536"/>
     <use style="fill:#666666;stroke:#666666;" x="108.04163" xlink:href="#mbd118502d8" y="234.575678"/>
     <use style="fill:#666666;stroke:#666666;" x="109.512889" xlink:href="#mbd118502d8" y="241.365372"/>
     <use style="fill:#666666;stroke:#666666;" x="110.984148" xlink:href="#mbd118502d8" y="251.501519"/>
     <use style="fill:#666666;stroke:#666666;" x="112.455407" xlink:href="#mbd118502d8" y="222.568687"/>
     <use style="fill:#666666;stroke:#666666;" x="113.926667" xlink:href="#mbd118502d8" y="211.601201"/>
     <use style="fill:#666666;stroke:#666666;" x="115.397926" xlink:href="#mbd118502d8" y="183.969447"/>
     <use style="fill:#666666;stroke:#666666;" x="116.869185" xlink:href="#mbd118502d8" y="215.171276"/>
     <use style="fill:#666666;stroke:#666666;" x="118.340444" xlink:href="#mbd118502d8" y="239.352065"/>
     <use style="fill:#666666;stroke:#666666;" x="119.811704" xlink:href="#mbd118502d8" y="231.506613"/>
     <use style="fill:#666666;stroke:#666666;" x="121.282963" xlink:href="#mbd118502d8" y="247.305075"/>
     <use style="fill:#666666;stroke:#666666;" x="122.754222" xlink:href="#mbd118502d8" y="241.268914"/>
     <use style="fill:#666666;stroke:#666666;" x="124.225481" xlink:href="#mbd118502d8" y="255.046534"/>
     <use style="fill:#666666;stroke:#666666;" x="125.696741" xlink:href="#mbd118502d8" y="261.10946"/>
     <use style="fill:#666666;stroke:#666666;" x="127.168" xlink:href="#mbd118502d8" y="252.934001"/>
     <use style="fill:#666666;stroke:#666666;" x="128.639259" xlink:href="#mbd118502d8" y="249.670623"/>
     <use style="fill:#666666;stroke:#666666;" x="130.110519" xlink:href="#mbd118502d8" y="250.805102"/>
     <use style="fill:#666666;stroke:#666666;" x="131.581778" xlink:href="#mbd118502d8" y="249.878842"/>
     <use style="fill:#666666;stroke:#666666;" x="133.053037" xlink:href="#mbd118502d8" y="237.865416"/>
     <use style="fill:#666666;stroke:#666666;" x="134.524296" xlink:href="#mbd118502d8" y="230.448611"/>
     <use style="fill:#666666;stroke:#666666;" x="135.995556" xlink:href="#mbd118502d8" y="239.55361"/>
     <use style="fill:#666666;stroke:#666666;" x="137.466815" xlink:href="#mbd118502d8" y="231.473441"/>
     <use style="fill:#666666;stroke:#666666;" x="138.938074" xlink:href="#mbd118502d8" y="157.195225"/>
     <use style="fill:#666666;stroke:#666666;" x="140.409333" xlink:href="#mbd118502d8" y="196.626257"/>
     <use style="fill:#666666;stroke:#666666;" x="141.880593" xlink:href="#mbd118502d8" y="161.996417"/>
     <use style="fill:#666666;stroke:#666666;" x="143.351852" xlink:href="#mbd118502d8" y="201.200278"/>
     <use style="fill:#666666;stroke:#666666;" x="144.823111" xlink:href="#mbd118502d8" y="238.672545"/>
     <use style="fill:#666666;stroke:#666666;" x="146.29437" xlink:href="#mbd118502d8" y="264.221492"/>
     <use style="fill:#666666;stroke:#666666;" x="147.76563" xlink:href="#mbd118502d8" y="264.975391"/>
     <use style="fill:#666666;stroke:#666666;" x="149.236889" xlink:href="#mbd118502d8" y="256.71912"/>
     <use style="fill:#666666;stroke:#666666;" x="150.708148" xlink:href="#mbd118502d8" y="239.915497"/>
     <use style="fill:#666666;stroke:#666666;" x="152.179407" xlink:href="#mbd118502d8" y="249.701492"/>
     <use style="fill:#666666;stroke:#666666;" x="153.650667" xlink:href="#mbd118502d8" y="251.316466"/>
     <use style="fill:#666666;stroke:#666666;" x="155.121926" xlink:href="#mbd118502d8" y="233.982593"/>
     <use style="fill:#666666;stroke:#666666;" x="156.593185" xlink:href="#mbd118502d8" y="267.094049"/>
     <use style="fill:#666666;stroke:#666666;" x="158.064444" xlink:href="#mbd118502d8" y="259.055946"/>
     <use style="fill:#666666;stroke:#666666;" x="159.535704" xlink:href="#mbd118502d8" y="241.597609"/>
     <use style="fill:#666666;stroke:#666666;" x="161.006963" xlink:href="#mbd118502d8" y="219.744302"/>
     <use style="fill:#666666;stroke:#666666;" x="162.478222" xlink:href="#mbd118502d8" y="205.098901"/>
     <use style="fill:#666666;stroke:#666666;" x="163.949481" xlink:href="#mbd118502d8" y="213.921995"/>
     <use style="fill:#666666;stroke:#666666;" x="165.420741" xlink:href="#mbd118502d8" y="224.110038"/>
     <use style="fill:#666666;stroke:#666666;" x="166.892" xlink:href="#mbd118502d8" y="249.150317"/>
     <use style="fill:#666666;stroke:#666666;" x="168.363259" xlink:href="#mbd118502d8" y="269.905709"/>
     <use style="fill:#666666;stroke:#666666;" x="169.834519" xlink:href="#mbd118502d8" y="267.912384"/>
     <use style="fill:#666666;stroke:#666666;" x="171.305778" xlink:href="#mbd118502d8" y="270.134088"/>
     <use style="fill:#666666;stroke:#666666;" x="172.777037" xlink:href="#mbd118502d8" y="260.399268"/>
     <use style="fill:#666666;stroke:#666666;" x="174.248296" xlink:href="#mbd118502d8" y="246.960185"/>
     <use style="fill:#666666;stroke:#666666;" x="175.719556" xlink:href="#mbd118502d8" y="244.843171"/>
     <use style="fill:#666666;stroke:#666666;" x="177.190815" xlink:href="#mbd118502d8" y="238.430268"/>
     <use style="fill:#666666;stroke:#666666;" x="178.662074" xlink:href="#mbd118502d8" y="237.644692"/>
     <use style="fill:#666666;stroke:#666666;" x="180.133333" xlink:href="#mbd118502d8" y="174.313952"/>
     <use style="fill:#666666;stroke:#666666;" x="181.604593" xlink:href="#mbd118502d8" y="211.980125"/>
     <use style="fill:#666666;stroke:#666666;" x="183.075852" xlink:href="#mbd118502d8" y="266.98253"/>
     <use style="fill:#666666;stroke:#666666;" x="184.547111" xlink:href="#mbd118502d8" y="272.111288"/>
     <use style="fill:#666666;stroke:#666666;" x="186.01837" xlink:href="#mbd118502d8" y="262.616107"/>
     <use style="fill:#666666;stroke:#666666;" x="187.48963" xlink:href="#mbd118502d8" y="244.720499"/>
     <use style="fill:#666666;stroke:#666666;" x="188.960889" xlink:href="#mbd118502d8" y="253.560796"/>
     <use style="fill:#666666;stroke:#666666;" x="190.432148" xlink:href="#mbd118502d8" y="242.306692"/>
     <use style="fill:#666666;stroke:#666666;" x="191.903407" xlink:href="#mbd118502d8" y="229.142747"/>
     <use style="fill:#666666;stroke:#666666;" x="193.374667" xlink:href="#mbd118502d8" y="216.580673"/>
     <use style="fill:#666666;stroke:#666666;" x="194.845926" xlink:href="#mbd118502d8" y="222.337831"/>
     <use style="fill:#666666;stroke:#666666;" x="196.317185" xlink:href="#mbd118502d8" y="192.860297"/>
     <use style="fill:#666666;stroke:#666666;" x="197.788444" xlink:href="#mbd118502d8" y="194.327324"/>
     <use style="fill:#666666;stroke:#666666;" x="199.259704" xlink:href="#mbd118502d8" y="235.212763"/>
     <use style="fill:#666666;stroke:#666666;" x="200.730963" xlink:href="#mbd118502d8" y="242.458798"/>
     <use style="fill:#666666;stroke:#666666;" x="202.202222" xlink:href="#mbd118502d8" y="232.385828"/>
     <use style="fill:#666666;stroke:#666666;" x="203.673481" xlink:href="#mbd118502d8" y="252.281378"/>
     <use style="fill:#666666;stroke:#666666;" x="205.144741" xlink:href="#mbd118502d8" y="260.130646"/>
     <use style="fill:#666666;stroke:#666666;" x="206.616" xlink:href="#mbd118502d8" y="260.618062"/>
     <use style="fill:#666666;stroke:#666666;" x="208.087259" xlink:href="#mbd118502d8" y="256.449336"/>
     <use style="fill:#666666;stroke:#666666;" x="209.558519" xlink:href="#mbd118502d8" y="273.169034"/>
     <use style="fill:#666666;stroke:#666666;" x="211.029778" xlink:href="#mbd118502d8" y="273.276482"/>
     <use style="fill:#666666;stroke:#666666;" x="212.501037" xlink:href="#mbd118502d8" y="274.293155"/>
     <use style="fill:#666666;stroke:#666666;" x="213.972296" xlink:href="#mbd118502d8" y="274.795826"/>
     <use style="fill:#666666;stroke:#666666;" x="215.443556" xlink:href="#mbd118502d8" y="274.585405"/>
     <use style="fill:#666666;stroke:#666666;" x="216.914815" xlink:href="#mbd118502d8" y="274.73771"/>
     <use style="fill:#666666;stroke:#666666;" x="218.386074" xlink:href="#mbd118502d8" y="264.607988"/>
     <use style="fill:#666666;stroke:#666666;" x="219.857333" xlink:href="#mbd118502d8" y="275.303306"/>
     <use style="fill:#666666;stroke:#666666;" x="221.328593" xlink:href="#mbd118502d8" y="271.565943"/>
     <use style="fill:#666666;stroke:#666666;" x="222.799852" xlink:href="#mbd118502d8" y="267.584218"/>
     <use style="fill:#666666;stroke:#666666;" x="224.271111" xlink:href="#mbd118502d8" y="271.561976"/>
     <use style="fill:#666666;stroke:#666666;" x="225.74237" xlink:href="#mbd118502d8" y="269.196843"/>
     <use style="fill:#666666;stroke:#666666;" x="227.21363" xlink:href="#mbd118502d8" y="266.894808"/>
     <use style="fill:#666666;stroke:#666666;" x="228.684889" xlink:href="#mbd118502d8" y="265.210117"/>
     <use style="fill:#666666;stroke:#666666;" x="230.156148" xlink:href="#mbd118502d8" y="262.392645"/>
     <use style="fill:#666666;stroke:#666666;" x="231.627407" xlink:href="#mbd118502d8" y="252.066724"/>
     <use style="fill:#666666;stroke:#666666;" x="233.098667" xlink:href="#mbd118502d8" y="236.50021"/>
     <use style="fill:#666666;stroke:#666666;" x="234.569926" xlink:href="#mbd118502d8" y="234.458053"/>
     <use style="fill:#666666;stroke:#666666;" x="236.041185" xlink:href="#mbd118502d8" y="228.200524"/>
     <use style="fill:#666666;stroke:#666666;" x="237.512444" xlink:href="#mbd118502d8" y="210.768784"/>
     <use style="fill:#666666;stroke:#666666;" x="238.983704" xlink:href="#mbd118502d8" y="236.44732"/>
     <use style="fill:#666666;stroke:#666666;" x="240.454963" xlink:href="#mbd118502d8" y="240.396932"/>
     <use style="fill:#666666;stroke:#666666;" x="241.926222" xlink:href="#mbd118502d8" y="246.516451"/>
     <use style="fill:#666666;stroke:#666666;" x="243.397481" xlink:href="#mbd118502d8" y="191.37051"/>
     <use style="fill:#666666;stroke:#666666;" x="244.868741" xlink:href="#mbd118502d8" y="252.05684"/>
     <use style="fill:#666666;stroke:#666666;" x="246.34" xlink:href="#mbd118502d8" y="255.709148"/>
     <use style="fill:#666666;stroke:#666666;" x="247.811259" xlink:href="#mbd118502d8" y="260.167819"/>
     <use style="fill:#666666;stroke:#666666;" x="249.282519" xlink:href="#mbd118502d8" y="273.549819"/>
     <use style="fill:#666666;stroke:#666666;" x="250.753778" xlink:href="#mbd118502d8" y="272.066918"/>
     <use style="fill:#666666;stroke:#666666;" x="252.225037" xlink:href="#mbd118502d8" y="273.329033"/>
     <use style="fill:#666666;stroke:#666666;" x="253.696296" xlink:href="#mbd118502d8" y="260.081058"/>
     <use style="fill:#666666;stroke:#666666;" x="255.167556" xlink:href="#mbd118502d8" y="260.570967"/>
     <use style="fill:#666666;stroke:#666666;" x="256.638815" xlink:href="#mbd118502d8" y="233.560954"/>
     <use style="fill:#666666;stroke:#666666;" x="258.110074" xlink:href="#mbd118502d8" y="199.818773"/>
     <use style="fill:#666666;stroke:#666666;" x="259.581333" xlink:href="#mbd118502d8" y="246.571331"/>
     <use style="fill:#666666;stroke:#666666;" x="261.052593" xlink:href="#mbd118502d8" y="268.882163"/>
     <use style="fill:#666666;stroke:#666666;" x="262.523852" xlink:href="#mbd118502d8" y="271.995612"/>
     <use style="fill:#666666;stroke:#666666;" x="263.995111" xlink:href="#mbd118502d8" y="274.80858"/>
     <use style="fill:#666666;stroke:#666666;" x="265.46637" xlink:href="#mbd118502d8" y="269.750134"/>
     <use style="fill:#666666;stroke:#666666;" x="266.93763" xlink:href="#mbd118502d8" y="259.102254"/>
     <use style="fill:#666666;stroke:#666666;" x="268.408889" xlink:href="#mbd118502d8" y="259.477536"/>
     <use style="fill:#666666;stroke:#666666;" x="269.880148" xlink:href="#mbd118502d8" y="254.990065"/>
     <use style="fill:#666666;stroke:#666666;" x="271.351407" xlink:href="#mbd118502d8" y="242.563521"/>
     <use style="fill:#666666;stroke:#666666;" x="272.822667" xlink:href="#mbd118502d8" y="244.838544"/>
     <use style="fill:#666666;stroke:#666666;" x="274.293926" xlink:href="#mbd118502d8" y="236.714658"/>
     <use style="fill:#666666;stroke:#666666;" x="275.765185" xlink:href="#mbd118502d8" y="239.169927"/>
     <use style="fill:#666666;stroke:#666666;" x="277.236444" xlink:href="#mbd118502d8" y="254.538642"/>
     <use style="fill:#666666;stroke:#666666;" x="278.707704" xlink:href="#mbd118502d8" y="245.003785"/>
     <use style="fill:#666666;stroke:#666666;" x="280.178963" xlink:href="#mbd118502d8" y="247.317891"/>
     <use style="fill:#666666;stroke:#666666;" x="281.650222" xlink:href="#mbd118502d8" y="238.017771"/>
     <use style="fill:#666666;stroke:#666666;" x="283.121481" xlink:href="#mbd118502d8" y="209.266185"/>
     <use style="fill:#666666;stroke:#666666;" x="284.592741" xlink:href="#mbd118502d8" y="199.204346"/>
     <use style="fill:#666666;stroke:#666666;" x="286.064" xlink:href="#mbd118502d8" y="225.826645"/>
     <use style="fill:#666666;stroke:#666666;" x="287.535259" xlink:href="#mbd118502d8" y="198.545391"/>
     <use style="fill:#666666;stroke:#666666;" x="289.006519" xlink:href="#mbd118502d8" y="170.821109"/>
     <use style="fill:#666666;stroke:#666666;" x="290.477778" xlink:href="#mbd118502d8" y="176.186464"/>
     <use style="fill:#666666;stroke:#666666;" x="291.949037" xlink:href="#mbd118502d8" y="160.058902"/>
     <use style="fill:#666666;stroke:#666666;" x="293.420296" xlink:href="#mbd118502d8" y="177.751575"/>
     <use style="fill:#666666;stroke:#666666;" x="294.891556" xlink:href="#mbd118502d8" y="186.525669"/>
     <use style="fill:#666666;stroke:#666666;" x="296.362815" xlink:href="#mbd118502d8" y="212.12453"/>
     <use style="fill:#666666;stroke:#666666;" x="297.834074" xlink:href="#mbd118502d8" y="215.825163"/>
     <use style="fill:#666666;stroke:#666666;" x="299.305333" xlink:href="#mbd118502d8" y="235.013943"/>
     <use style="fill:#666666;stroke:#666666;" x="300.776593" xlink:href="#mbd118502d8" y="254.804075"/>
     <use style="fill:#666666;stroke:#666666;" x="302.247852" xlink:href="#mbd118502d8" y="261.811923"/>
     <use style="fill:#666666;stroke:#666666;" x="303.719111" xlink:href="#mbd118502d8" y="259.021267"/>
     <use style="fill:#666666;stroke:#666666;" x="305.19037" xlink:href="#mbd118502d8" y="266.638934"/>
     <use style="fill:#666666;stroke:#666666;" x="306.66163" xlink:href="#mbd118502d8" y="262.452462"/>
     <use style="fill:#666666;stroke:#666666;" x="308.132889" xlink:href="#mbd118502d8" y="245.010179"/>
     <use style="fill:#666666;stroke:#666666;" x="309.604148" xlink:href="#mbd118502d8" y="233.30943"/>
     <use style="fill:#666666;stroke:#666666;" x="311.075407" xlink:href="#mbd118502d8" y="223.733479"/>
     <use style="fill:#666666;stroke:#666666;" x="312.546667" xlink:href="#mbd118502d8" y="222.954015"/>
     <use style="fill:#666666;stroke:#666666;" x="314.017926" xlink:href="#mbd118502d8" y="207.230191"/>
     <use style="fill:#666666;stroke:#666666;" x="315.489185" xlink:href="#mbd118502d8" y="197.569712"/>
     <use style="fill:#666666;stroke:#666666;" x="316.960444" xlink:href="#mbd118502d8" y="201.030465"/>
     <use style="fill:#666666;stroke:#666666;" x="318.431704" xlink:href="#mbd118502d8" y="211.600757"/>
     <use style="fill:#666666;stroke:#666666;" x="319.902963" xlink:href="#mbd118502d8" y="227.895017"/>
     <use style="fill:#666666;stroke:#666666;" x="321.374222" xlink:href="#mbd118502d8" y="229.900177"/>
     <use style="fill:#666666;stroke:#666666;" x="322.845481" xlink:href="#mbd118502d8" y="258.377498"/>
     <use style="fill:#666666;stroke:#666666;" x="324.316741" xlink:href="#mbd118502d8" y="269.180356"/>
     <use style="fill:#666666;stroke:#666666;" x="325.788" xlink:href="#mbd118502d8" y="259.633234"/>
     <use style="fill:#666666;stroke:#666666;" x="327.259259" xlink:href="#mbd118502d8" y="264.561477"/>
     <use style="fill:#666666;stroke:#666666;" x="328.730519" xlink:href="#mbd118502d8" y="271.776347"/>
     <use style="fill:#666666;stroke:#666666;" x="330.201778" xlink:href="#mbd118502d8" y="260.110501"/>
     <use style="fill:#666666;stroke:#666666;" x="331.673037" xlink:href="#mbd118502d8" y="272.133853"/>
     <use style="fill:#666666;stroke:#666666;" x="333.144296" xlink:href="#mbd118502d8" y="275.226757"/>
     <use style="fill:#666666;stroke:#666666;" x="334.615556" xlink:href="#mbd118502d8" y="274.607799"/>
     <use style="fill:#666666;stroke:#666666;" x="336.086815" xlink:href="#mbd118502d8" y="269.506585"/>
     <use style="fill:#666666;stroke:#666666;" x="337.558074" xlink:href="#mbd118502d8" y="275.323636"/>
     <use style="fill:#666666;stroke:#666666;" x="339.029333" xlink:href="#mbd118502d8" y="274.786978"/>
     <use style="fill:#666666;stroke:#666666;" x="340.500593" xlink:href="#mbd118502d8" y="274.119118"/>
     <use style="fill:#666666;stroke:#666666;" x="341.971852" xlink:href="#mbd118502d8" y="270.382147"/>
     <use style="fill:#666666;stroke:#666666;" x="343.443111" xlink:href="#mbd118502d8" y="266.216586"/>
     <use style="fill:#666666;stroke:#666666;" x="344.91437" xlink:href="#mbd118502d8" y="259.484474"/>
     <use style="fill:#666666;stroke:#666666;" x="346.38563" xlink:href="#mbd118502d8" y="247.894488"/>
     <use style="fill:#666666;stroke:#666666;" x="347.856889" xlink:href="#mbd118502d8" y="220.40571"/>
     <use style="fill:#666666;stroke:#666666;" x="349.328148" xlink:href="#mbd118502d8" y="172.55356"/>
     <use style="fill:#666666;stroke:#666666;" x="350.799407" xlink:href="#mbd118502d8" y="175.663691"/>
     <use style="fill:#666666;stroke:#666666;" x="352.270667" xlink:href="#mbd118502d8" y="186.444195"/>
     <use style="fill:#666666;stroke:#666666;" x="353.741926" xlink:href="#mbd118502d8" y="177.227042"/>
     <use style="fill:#666666;stroke:#666666;" x="355.213185" xlink:href="#mbd118502d8" y="182.931977"/>
     <use style="fill:#666666;stroke:#666666;" x="356.684444" xlink:href="#mbd118502d8" y="128.048596"/>
     <use style="fill:#666666;stroke:#666666;" x="358.155704" xlink:href="#mbd118502d8" y="154.527368"/>
     <use style="fill:#666666;stroke:#666666;" x="359.626963" xlink:href="#mbd118502d8" y="183.355992"/>
     <use style="fill:#666666;stroke:#666666;" x="361.098222" xlink:href="#mbd118502d8" y="197.700869"/>
     <use style="fill:#666666;stroke:#666666;" x="362.569481" xlink:href="#mbd118502d8" y="220.498388"/>
     <use style="fill:#666666;stroke:#666666;" x="364.040741" xlink:href="#mbd118502d8" y="229.005474"/>
     <use style="fill:#666666;stroke:#666666;" x="365.512" xlink:href="#mbd118502d8" y="220.865338"/>
     <use style="fill:#666666;stroke:#666666;" x="366.983259" xlink:href="#mbd118502d8" y="235.202577"/>
     <use style="fill:#666666;stroke:#666666;" x="368.454519" xlink:href="#mbd118502d8" y="237.084522"/>
     <use style="fill:#666666;stroke:#666666;" x="369.925778" xlink:href="#mbd118502d8" y="214.54656"/>
     <use style="fill:#666666;stroke:#666666;" x="371.397037" xlink:href="#mbd118502d8" y="225.908735"/>
     <use style="fill:#666666;stroke:#666666;" x="372.868296" xlink:href="#mbd118502d8" y="220.018794"/>
     <use style="fill:#666666;stroke:#666666;" x="374.339556" xlink:href="#mbd118502d8" y="201.081357"/>
     <use style="fill:#666666;stroke:#666666;" x="375.810815" xlink:href="#mbd118502d8" y="182.364497"/>
     <use style="fill:#666666;stroke:#666666;" x="377.282074" xlink:href="#mbd118502d8" y="177.058615"/>
     <use style="fill:#666666;stroke:#666666;" x="378.753333" xlink:href="#mbd118502d8" y="176.464002"/>
     <use style="fill:#666666;stroke:#666666;" x="380.224593" xlink:href="#mbd118502d8" y="190.157946"/>
     <use style="fill:#666666;stroke:#666666;" x="381.695852" xlink:href="#mbd118502d8" y="217.281065"/>
     <use style="fill:#666666;stroke:#666666;" x="383.167111" xlink:href="#mbd118502d8" y="225.443792"/>
     <use style="fill:#666666;stroke:#666666;" x="384.63837" xlink:href="#mbd118502d8" y="211.991916"/>
     <use style="fill:#666666;stroke:#666666;" x="386.10963" xlink:href="#mbd118502d8" y="232.429921"/>
     <use style="fill:#666666;stroke:#666666;" x="387.580889" xlink:href="#mbd118502d8" y="194.844891"/>
     <use style="fill:#666666;stroke:#666666;" x="389.052148" xlink:href="#mbd118502d8" y="235.146792"/>
     <use style="fill:#666666;stroke:#666666;" x="390.523407" xlink:href="#mbd118502d8" y="170.196646"/>
     <use style="fill:#666666;stroke:#666666;" x="391.994667" xlink:href="#mbd118502d8" y="239.834888"/>
     <use style="fill:#666666;stroke:#666666;" x="393.465926" xlink:href="#mbd118502d8" y="242.722632"/>
     <use style="fill:#666666;stroke:#666666;" x="394.937185" xlink:href="#mbd118502d8" y="247.593003"/>
     <use style="fill:#666666;stroke:#666666;" x="396.408444" xlink:href="#mbd118502d8" y="252.954824"/>
     <use style="fill:#666666;stroke:#666666;" x="397.879704" xlink:href="#mbd118502d8" y="253.345105"/>
     <use style="fill:#666666;stroke:#666666;" x="399.350963" xlink:href="#mbd118502d8" y="247.641419"/>
     <use style="fill:#666666;stroke:#666666;" x="400.822222" xlink:href="#mbd118502d8" y="259.377442"/>
     <use style="fill:#666666;stroke:#666666;" x="402.293481" xlink:href="#mbd118502d8" y="261.530339"/>
     <use style="fill:#666666;stroke:#666666;" x="403.764741" xlink:href="#mbd118502d8" y="259.992426"/>
     <use style="fill:#666666;stroke:#666666;" x="405.236" xlink:href="#mbd118502d8" y="251.793282"/>
     <use style="fill:#666666;stroke:#666666;" x="406.707259" xlink:href="#mbd118502d8" y="259.635698"/>
     <use style="fill:#666666;stroke:#666666;" x="408.178519" xlink:href="#mbd118502d8" y="250.02097"/>
     <use style="fill:#666666;stroke:#666666;" x="409.649778" xlink:href="#mbd118502d8" y="229.748009"/>
     <use style="fill:#666666;stroke:#666666;" x="411.121037" xlink:href="#mbd118502d8" y="202.523722"/>
     <use style="fill:#666666;stroke:#666666;" x="412.592296" xlink:href="#mbd118502d8" y="212.61352"/>
     <use style="fill:#666666;stroke:#666666;" x="414.063556" xlink:href="#mbd118502d8" y="225.77365"/>
     <use style="fill:#666666;stroke:#666666;" x="415.534815" xlink:href="#mbd118502d8" y="220.573246"/>
     <use style="fill:#666666;stroke:#666666;" x="417.006074" xlink:href="#mbd118502d8" y="218.06597"/>
     <use style="fill:#666666;stroke:#666666;" x="418.477333" xlink:href="#mbd118502d8" y="225.915528"/>
     <use style="fill:#666666;stroke:#666666;" x="419.948593" xlink:href="#mbd118502d8" y="234.361336"/>
     <use style="fill:#666666;stroke:#666666;" x="421.419852" xlink:href="#mbd118502d8" y="254.808904"/>
     <use style="fill:#666666;stroke:#666666;" x="422.891111" xlink:href="#mbd118502d8" y="270.784827"/>
     <use style="fill:#666666;stroke:#666666;" x="424.36237" xlink:href="#mbd118502d8" y="266.535567"/>
     <use style="fill:#666666;stroke:#666666;" x="425.83363" xlink:href="#mbd118502d8" y="262.310966"/>
     <use style="fill:#666666;stroke:#666666;" x="427.304889" xlink:href="#mbd118502d8" y="270.899566"/>
     <use style="fill:#666666;stroke:#666666;" x="428.776148" xlink:href="#mbd118502d8" y="268.976994"/>
     <use style="fill:#666666;stroke:#666666;" x="430.247407" xlink:href="#mbd118502d8" y="268.749137"/>
     <use style="fill:#666666;stroke:#666666;" x="431.718667" xlink:href="#mbd118502d8" y="268.055604"/>
     <use style="fill:#666666;stroke:#666666;" x="433.189926" xlink:href="#mbd118502d8" y="269.134758"/>
     <use style="fill:#666666;stroke:#666666;" x="434.661185" xlink:href="#mbd118502d8" y="259.110317"/>
     <use style="fill:#666666;stroke:#666666;" x="436.132444" xlink:href="#mbd118502d8" y="253.658012"/>
     <use style="fill:#666666;stroke:#666666;" x="437.603704" xlink:href="#mbd118502d8" y="259.538161"/>
     <use style="fill:#666666;stroke:#666666;" x="439.074963" xlink:href="#mbd118502d8" y="260.957228"/>
     <use style="fill:#666666;stroke:#666666;" x="440.546222" xlink:href="#mbd118502d8" y="246.394147"/>
     <use style="fill:#666666;stroke:#666666;" x="442.017481" xlink:href="#mbd118502d8" y="246.16007"/>
     <use style="fill:#666666;stroke:#666666;" x="443.488741" xlink:href="#mbd118502d8" y="232.987975"/>
     <use style="fill:#666666;stroke:#666666;" x="444.96" xlink:href="#mbd118502d8" y="198.366245"/>
    </g>
   </g>
   <g id="patch_3">
    <path d="M 47.72 287.8 
L 47.72 13.32 
" style="fill:none;stroke:#000000;stroke-linecap:square;stroke-linejoin:miter;stroke-width:0.8;"/>
   </g>
   <g id="patch_4">
    <path d="M 444.96 287.8 
L 444.96 13.32 
" style="fill:none;stroke:#000000;stroke-linecap:square;stroke-linejoin:miter;stroke-width:0.8;"/>
   </g>
   <g id="patch_5">
    <path d="M 47.72 287.8 
L 444.96 287.8 
" style="fill:none;stroke:#000000;stroke-linecap:square;stroke-linejoin:miter;stroke-width:0.8;"/>
   </g>
   <g id="patch_6">
    <path d="M 47.72 13.32 
L 444.96 13.32 
" style="fill:none;stroke:#000000;stroke-linecap:square;stroke-linejoin:miter;stroke-width:0.8;"/>
   </g>
  </g>
 </g>
 <defs>
  <clipPath id="p0b6e7ba441">
   <rect height="274.48" width="397.24" x="47.72" y="13.32"/>
  </clipPath>
 </defs>
</svg>
