<?xml version="1.0" encoding="utf-8" standalone="no"?>
<!DOCTYPE svg PUBLIC "-//W3C//DTD SVG 1.1//EN"
  "http://www.w3.org/Graphics/SVG/1.1/DTD/svg11.dtd">
<!-- Created with matplotlib (http://matplotlib.org/) -->
<svg height="345.6pt" version="1.1" viewBox="0 0 460.8 345.6" width="460.8pt" xmlns="http://www.w3.org/2000/svg" xmlns:xlink="http://www.w3.org/1999/xlink">
 <defs>
  <style type="text/css">
*{stroke-linecap:butt;stroke-linejoin:round;}
  </style>
 </defs>
 <g id="figure_1">
  <g id="patch_1">
   <path d="M 0 345.6 
L 460.8 345.6 
L 460.8 0 
L 0 0 
z
" style="fill:#ffffff;"/>
  </g>
  <g id="axes_1">
   <g id="patch_2">
    <path d="M 57.6 307.584 
L 414.72 307.584 
L 414.72 41.472 
L 57.6 41.472 
z
" style="fill:#ffffff;"/>
   </g>
   <g id="matplotlib.axis_1">
    <g id="xtick_1">
     <g id="line2d_1">
      <defs>
       <path d="M 0 0 
L 0 3.5 
" id="m5810921f17" style="stroke:#000000;stroke-width:0.8;"/>
      </defs>
      <g>
       <use style="stroke:#000000;stroke-width:0.8;" x="73.832727" xlink:href="#m5810921f17" y="307.584"/>
      </g>
     </g>
     <g id="text_1">
      <!-- 0 -->
      <defs>
       <path d="M 31.78125 66.40625 
Q 24.171875 66.40625 20.328125 58.90625 
Q 16.5 51.421875 16.5 36.375 
Q 16.5 21.390625 20.328125 13.890625 
Q 24.171875 6.390625 31.78125 6.390625 
Q 39.453125 6.390625 43.28125 13.890625 
Q 47.125 21.390625 47.125 36.375 
Q 47.125 51.421875 43.28125 58.90625 
Q 39.453125 66.40625 31.78125 66.40625 
z
M 31.78125 74.21875 
Q 44.046875 74.21875 50.515625 64.515625 
Q 56.984375 54.828125 56.984375 36.375 
Q 56.984375 17.96875 50.515625 8.265625 
Q 44.046875 -1.421875 31.78125 -1.421875 
Q 19.53125 -1.421875 13.0625 8.265625 
Q 6.59375 17.96875 6.59375 36.375 
Q 6.59375 54.828125 13.0625 64.515625 
Q 19.53125 74.21875 31.78125 74.21875 
z
" id="DejaVuSans-30"/>
      </defs>
      <g transform="translate(70.651477 322.182437)scale(0.1 -0.1)">
       <use xlink:href="#DejaVuSans-30"/>
      </g>
     </g>
    </g>
    <g id="xtick_2">
     <g id="line2d_2">
      <g>
       <use style="stroke:#000000;stroke-width:0.8;" x="128.122785" xlink:href="#m5810921f17" y="307.584"/>
      </g>
     </g>
     <g id="text_2">
      <!-- 50 -->
      <defs>
       <path d="M 10.796875 72.90625 
L 49.515625 72.90625 
L 49.515625 64.59375 
L 19.828125 64.59375 
L 19.828125 46.734375 
Q 21.96875 47.46875 24.109375 47.828125 
Q 26.265625 48.1875 28.421875 48.1875 
Q 40.625 48.1875 47.75 41.5 
Q 54.890625 34.8125 54.890625 23.390625 
Q 54.890625 11.625 47.5625 5.09375 
Q 40.234375 -1.421875 26.90625 -1.421875 
Q 22.3125 -1.421875 17.546875 -0.640625 
Q 12.796875 0.140625 7.71875 1.703125 
L 7.71875 11.625 
Q 12.109375 9.234375 16.796875 8.0625 
Q 21.484375 6.890625 26.703125 6.890625 
Q 35.15625 6.890625 40.078125 11.328125 
Q 45.015625 15.765625 45.015625 23.390625 
Q 45.015625 31 40.078125 35.4375 
Q 35.15625 39.890625 26.703125 39.890625 
Q 22.75 39.890625 18.8125 39.015625 
Q 14.890625 38.140625 10.796875 36.28125 
z
" id="DejaVuSans-35"/>
      </defs>
      <g transform="translate(121.760285 322.182437)scale(0.1 -0.1)">
       <use xlink:href="#DejaVuSans-35"/>
       <use x="63.623047" xlink:href="#DejaVuSans-30"/>
      </g>
     </g>
    </g>
    <g id="xtick_3">
     <g id="line2d_3">
      <g>
       <use style="stroke:#000000;stroke-width:0.8;" x="182.412843" xlink:href="#m5810921f17" y="307.584"/>
      </g>
     </g>
     <g id="text_3">
      <!-- 100 -->
      <defs>
       <path d="M 12.40625 8.296875 
L 28.515625 8.296875 
L 28.515625 63.921875 
L 10.984375 60.40625 
L 10.984375 69.390625 
L 28.421875 72.90625 
L 38.28125 72.90625 
L 38.28125 8.296875 
L 54.390625 8.296875 
L 54.390625 0 
L 12.40625 0 
z
" id="DejaVuSans-31"/>
      </defs>
      <g transform="translate(172.869093 322.182437)scale(0.1 -0.1)">
       <use xlink:href="#DejaVuSans-31"/>
       <use x="63.623047" xlink:href="#DejaVuSans-30"/>
       <use x="127.246094" xlink:href="#DejaVuSans-30"/>
      </g>
     </g>
    </g>
    <g id="xtick_4">
     <g id="line2d_4">
      <g>
       <use style="stroke:#000000;stroke-width:0.8;" x="236.702901" xlink:href="#m5810921f17" y="307.584"/>
      </g>
     </g>
     <g id="text_4">
      <!-- 150 -->
      <g transform="translate(227.159151 322.182437)scale(0.1 -0.1)">
       <use xlink:href="#DejaVuSans-31"/>
       <use x="63.623047" xlink:href="#DejaVuSans-35"/>
       <use x="127.246094" xlink:href="#DejaVuSans-30"/>
      </g>
     </g>
    </g>
    <g id="xtick_5">
     <g id="line2d_5">
      <g>
       <use style="stroke:#000000;stroke-width:0.8;" x="290.992958" xlink:href="#m5810921f17" y="307.584"/>
      </g>
     </g>
     <g id="text_5">
      <!-- 200 -->
      <defs>
       <path d="M 19.1875 8.296875 
L 53.609375 8.296875 
L 53.609375 0 
L 7.328125 0 
L 7.328125 8.296875 
Q 12.9375 14.109375 22.625 23.890625 
Q 32.328125 33.6875 34.8125 36.53125 
Q 39.546875 41.84375 41.421875 45.53125 
Q 43.3125 49.21875 43.3125 52.78125 
Q 43.3125 58.59375 39.234375 62.25 
Q 35.15625 65.921875 28.609375 65.921875 
Q 23.96875 65.921875 18.8125 64.3125 
Q 13.671875 62.703125 7.8125 59.421875 
L 7.8125 69.390625 
Q 13.765625 71.78125 18.9375 73 
Q 24.125 74.21875 28.421875 74.21875 
Q 39.75 74.21875 46.484375 68.546875 
Q 53.21875 62.890625 53.21875 53.421875 
Q 53.21875 48.921875 51.53125 44.890625 
Q 49.859375 40.875 45.40625 35.40625 
Q 44.1875 33.984375 37.640625 27.21875 
Q 31.109375 20.453125 19.1875 8.296875 
z
" id="DejaVuSans-32"/>
      </defs>
      <g transform="translate(281.449208 322.182437)scale(0.1 -0.1)">
       <use xlink:href="#DejaVuSans-32"/>
       <use x="63.623047" xlink:href="#DejaVuSans-30"/>
       <use x="127.246094" xlink:href="#DejaVuSans-30"/>
      </g>
     </g>
    </g>
    <g id="xtick_6">
     <g id="line2d_6">
      <g>
       <use style="stroke:#000000;stroke-width:0.8;" x="345.283016" xlink:href="#m5810921f17" y="307.584"/>
      </g>
     </g>
     <g id="text_6">
      <!-- 250 -->
      <g transform="translate(335.739266 322.182437)scale(0.1 -0.1)">
       <use xlink:href="#DejaVuSans-32"/>
       <use x="63.623047" xlink:href="#DejaVuSans-35"/>
       <use x="127.246094" xlink:href="#DejaVuSans-30"/>
      </g>
     </g>
    </g>
    <g id="xtick_7">
     <g id="line2d_7">
      <g>
       <use style="stroke:#000000;stroke-width:0.8;" x="399.573074" xlink:href="#m5810921f17" y="307.584"/>
      </g>
     </g>
    </g>
    <g id="text_7">
     <!-- Frame index -->
     <defs>
      <path d="M 9.8125 72.90625 
L 51.703125 72.90625 
L 51.703125 64.59375 
L 19.671875 64.59375 
L 19.671875 43.109375 
L 48.578125 43.109375 
L 48.578125 34.8125 
L 19.671875 34.8125 
L 19.671875 0 
L 9.8125 0 
z
" id="DejaVuSans-46"/>
      <path d="M 41.109375 46.296875 
Q 39.59375 47.171875 37.8125 47.578125 
Q 36.03125 48 33.890625 48 
Q 26.265625 48 22.1875 43.046875 
Q 18.109375 38.09375 18.109375 28.8125 
L 18.109375 0 
L 9.078125 0 
L 9.078125 54.6875 
L 18.109375 54.6875 
L 18.109375 46.1875 
Q 20.953125 51.171875 25.484375 53.578125 
Q 30.03125 56 36.53125 56 
Q 37.453125 56 38.578125 55.875 
Q 39.703125 55.765625 41.0625 55.515625 
z
" id="DejaVuSans-72"/>
      <path d="M 34.28125 27.484375 
Q 23.390625 27.484375 19.1875 25 
Q 14.984375 22.515625 14.984375 16.5 
Q 14.984375 11.71875 18.140625 8.90625 
Q 21.296875 6.109375 26.703125 6.109375 
Q 34.1875 6.109375 38.703125 11.40625 
Q 43.21875 16.703125 43.21875 25.484375 
L 43.21875 27.484375 
z
M 52.203125 31.203125 
L 52.203125 0 
L 43.21875 0 
L 43.21875 8.296875 
Q 40.140625 3.328125 35.546875 0.953125 
Q 30.953125 -1.421875 24.3125 -1.421875 
Q 15.921875 -1.421875 10.953125 3.296875 
Q 6 8.015625 6 15.921875 
Q 6 25.140625 12.171875 29.828125 
Q 18.359375 34.515625 30.609375 34.515625 
L 43.21875 34.515625 
L 43.21875 35.40625 
Q 43.21875 41.609375 39.140625 45 
Q 35.0625 48.390625 27.6875 48.390625 
Q 23 48.390625 18.546875 47.265625 
Q 14.109375 46.140625 10.015625 43.890625 
L 10.015625 52.203125 
Q 14.9375 54.109375 19.578125 55.046875 
Q 24.21875 56 28.609375 56 
Q 40.484375 56 46.34375 49.84375 
Q 52.203125 43.703125 52.203125 31.203125 
z
" id="DejaVuSans-61"/>
      <path d="M 52 44.1875 
Q 55.375 50.25 60.0625 53.125 
Q 64.75 56 71.09375 56 
Q 79.640625 56 84.28125 50.015625 
Q 88.921875 44.046875 88.921875 33.015625 
L 88.921875 0 
L 79.890625 0 
L 79.890625 32.71875 
Q 79.890625 40.578125 77.09375 44.375 
Q 74.3125 48.1875 68.609375 48.1875 
Q 61.625 48.1875 57.5625 43.546875 
Q 53.515625 38.921875 53.515625 30.90625 
L 53.515625 0 
L 44.484375 0 
L 44.484375 32.71875 
Q 44.484375 40.625 41.703125 44.40625 
Q 38.921875 48.1875 33.109375 48.1875 
Q 26.21875 48.1875 22.15625 43.53125 
Q 18.109375 38.875 18.109375 30.90625 
L 18.109375 0 
L 9.078125 0 
L 9.078125 54.6875 
L 18.109375 54.6875 
L 18.109375 46.1875 
Q 21.1875 51.21875 25.484375 53.609375 
Q 29.78125 56 35.6875 56 
Q 41.65625 56 45.828125 52.96875 
Q 50 49.953125 52 44.1875 
z
" id="DejaVuSans-6d"/>
      <path d="M 56.203125 29.59375 
L 56.203125 25.203125 
L 14.890625 25.203125 
Q 15.484375 15.921875 20.484375 11.0625 
Q 25.484375 6.203125 34.421875 6.203125 
Q 39.59375 6.203125 44.453125 7.46875 
Q 49.3125 8.734375 54.109375 11.28125 
L 54.109375 2.78125 
Q 49.265625 0.734375 44.1875 -0.34375 
Q 39.109375 -1.421875 33.890625 -1.421875 
Q 20.796875 -1.421875 13.15625 6.1875 
Q 5.515625 13.8125 5.515625 26.8125 
Q 5.515625 40.234375 12.765625 48.109375 
Q 20.015625 56 32.328125 56 
Q 43.359375 56 49.78125 48.890625 
Q 56.203125 41.796875 56.203125 29.59375 
z
M 47.21875 32.234375 
Q 47.125 39.59375 43.09375 43.984375 
Q 39.0625 48.390625 32.421875 48.390625 
Q 24.90625 48.390625 20.390625 44.140625 
Q 15.875 39.890625 15.1875 32.171875 
z
" id="DejaVuSans-65"/>
      <path id="DejaVuSans-20"/>
      <path d="M 9.421875 54.6875 
L 18.40625 54.6875 
L 18.40625 0 
L 9.421875 0 
z
M 9.421875 75.984375 
L 18.40625 75.984375 
L 18.40625 64.59375 
L 9.421875 64.59375 
z
" id="DejaVuSans-69"/>
      <path d="M 54.890625 33.015625 
L 54.890625 0 
L 45.90625 0 
L 45.90625 32.71875 
Q 45.90625 40.484375 42.875 44.328125 
Q 39.84375 48.1875 33.796875 48.1875 
Q 26.515625 48.1875 22.3125 43.546875 
Q 18.109375 38.921875 18.109375 30.90625 
L 18.109375 0 
L 9.078125 0 
L 9.078125 54.6875 
L 18.109375 54.6875 
L 18.109375 46.1875 
Q 21.34375 51.125 25.703125 53.5625 
Q 30.078125 56 35.796875 56 
Q 45.21875 56 50.046875 50.171875 
Q 54.890625 44.34375 54.890625 33.015625 
z
" id="DejaVuSans-6e"/>
      <path d="M 45.40625 46.390625 
L 45.40625 75.984375 
L 54.390625 75.984375 
L 54.390625 0 
L 45.40625 0 
L 45.40625 8.203125 
Q 42.578125 3.328125 38.25 0.953125 
Q 33.9375 -1.421875 27.875 -1.421875 
Q 17.96875 -1.421875 11.734375 6.484375 
Q 5.515625 14.40625 5.515625 27.296875 
Q 5.515625 40.1875 11.734375 48.09375 
Q 17.96875 56 27.875 56 
Q 33.9375 56 38.25 53.625 
Q 42.578125 51.265625 45.40625 46.390625 
z
M 14.796875 27.296875 
Q 14.796875 17.390625 18.875 11.75 
Q 22.953125 6.109375 30.078125 6.109375 
Q 37.203125 6.109375 41.296875 11.75 
Q 45.40625 17.390625 45.40625 27.296875 
Q 45.40625 37.203125 41.296875 42.84375 
Q 37.203125 48.484375 30.078125 48.484375 
Q 22.953125 48.484375 18.875 42.84375 
Q 14.796875 37.203125 14.796875 27.296875 
z
" id="DejaVuSans-64"/>
      <path d="M 54.890625 54.6875 
L 35.109375 28.078125 
L 55.90625 0 
L 45.3125 0 
L 29.390625 21.484375 
L 13.484375 0 
L 2.875 0 
L 24.125 28.609375 
L 4.6875 54.6875 
L 15.28125 54.6875 
L 29.78125 35.203125 
L 44.28125 54.6875 
z
" id="DejaVuSans-78"/>
     </defs>
     <g transform="translate(204.867031 335.860562)scale(0.1 -0.1)">
      <use xlink:href="#DejaVuSans-46"/>
      <use x="57.410156" xlink:href="#DejaVuSans-72"/>
      <use x="98.523438" xlink:href="#DejaVuSans-61"/>
      <use x="159.802734" xlink:href="#DejaVuSans-6d"/>
      <use x="257.214844" xlink:href="#DejaVuSans-65"/>
      <use x="318.738281" xlink:href="#DejaVuSans-20"/>
      <use x="350.525391" xlink:href="#DejaVuSans-69"/>
      <use x="378.308594" xlink:href="#DejaVuSans-6e"/>
      <use x="441.6875" xlink:href="#DejaVuSans-64"/>
      <use x="505.164062" xlink:href="#DejaVuSans-65"/>
      <use x="566.671875" xlink:href="#DejaVuSans-78"/>
     </g>
    </g>
   </g>
   <g id="matplotlib.axis_2">
    <g id="ytick_1">
     <g id="line2d_8">
      <defs>
       <path d="M 0 0 
L -3.5 0 
" id="m3806407157" style="stroke:#000000;stroke-width:0.8;"/>
      </defs>
      <g>
       <use style="stroke:#000000;stroke-width:0.8;" x="57.6" xlink:href="#m3806407157" y="284.675862"/>
      </g>
     </g>
     <g id="text_8">
      <!-- 2.0 -->
      <defs>
       <path d="M 10.6875 12.40625 
L 21 12.40625 
L 21 0 
L 10.6875 0 
z
" id="DejaVuSans-2e"/>
      </defs>
      <g transform="translate(34.696875 288.475081)scale(0.1 -0.1)">
       <use xlink:href="#DejaVuSans-32"/>
       <use x="63.623047" xlink:href="#DejaVuSans-2e"/>
       <use x="95.410156" xlink:href="#DejaVuSans-30"/>
      </g>
     </g>
    </g>
    <g id="ytick_2">
     <g id="line2d_9">
      <g>
       <use style="stroke:#000000;stroke-width:0.8;" x="57.6" xlink:href="#m3806407157" y="233.200951"/>
      </g>
     </g>
     <g id="text_9">
      <!-- 2.5 -->
      <g transform="translate(34.696875 237.00017)scale(0.1 -0.1)">
       <use xlink:href="#DejaVuSans-32"/>
       <use x="63.623047" xlink:href="#DejaVuSans-2e"/>
       <use x="95.410156" xlink:href="#DejaVuSans-35"/>
      </g>
     </g>
    </g>
    <g id="ytick_3">
     <g id="line2d_10">
      <g>
       <use style="stroke:#000000;stroke-width:0.8;" x="57.6" xlink:href="#m3806407157" y="181.726039"/>
      </g>
     </g>
     <g id="text_10">
      <!-- 3.0 -->
      <defs>
       <path d="M 40.578125 39.3125 
Q 47.65625 37.796875 51.625 33 
Q 55.609375 28.21875 55.609375 21.1875 
Q 55.609375 10.40625 48.1875 4.484375 
Q 40.765625 -1.421875 27.09375 -1.421875 
Q 22.515625 -1.421875 17.65625 -0.515625 
Q 12.796875 0.390625 7.625 2.203125 
L 7.625 11.71875 
Q 11.71875 9.328125 16.59375 8.109375 
Q 21.484375 6.890625 26.8125 6.890625 
Q 36.078125 6.890625 40.9375 10.546875 
Q 45.796875 14.203125 45.796875 21.1875 
Q 45.796875 27.640625 41.28125 31.265625 
Q 36.765625 34.90625 28.71875 34.90625 
L 20.21875 34.90625 
L 20.21875 43.015625 
L 29.109375 43.015625 
Q 36.375 43.015625 40.234375 45.921875 
Q 44.09375 48.828125 44.09375 54.296875 
Q 44.09375 59.90625 40.109375 62.90625 
Q 36.140625 65.921875 28.71875 65.921875 
Q 24.65625 65.921875 20.015625 65.03125 
Q 15.375 64.15625 9.8125 62.3125 
L 9.8125 71.09375 
Q 15.4375 72.65625 20.34375 73.4375 
Q 25.25 74.21875 29.59375 74.21875 
Q 40.828125 74.21875 47.359375 69.109375 
Q 53.90625 64.015625 53.90625 55.328125 
Q 53.90625 49.265625 50.4375 45.09375 
Q 46.96875 40.921875 40.578125 39.3125 
z
" id="DejaVuSans-33"/>
      </defs>
      <g transform="translate(34.696875 185.525258)scale(0.1 -0.1)">
       <use xlink:href="#DejaVuSans-33"/>
       <use x="63.623047" xlink:href="#DejaVuSans-2e"/>
       <use x="95.410156" xlink:href="#DejaVuSans-30"/>
      </g>
     </g>
    </g>
    <g id="ytick_4">
     <g id="line2d_11">
      <g>
       <use style="stroke:#000000;stroke-width:0.8;" x="57.6" xlink:href="#m3806407157" y="130.251127"/>
      </g>
     </g>
     <g id="text_11">
      <!-- 3.5 -->
      <g transform="translate(34.696875 134.050346)scale(0.1 -0.1)">
       <use xlink:href="#DejaVuSans-33"/>
       <use x="63.623047" xlink:href="#DejaVuSans-2e"/>
       <use x="95.410156" xlink:href="#DejaVuSans-35"/>
      </g>
     </g>
    </g>
    <g id="ytick_5">
     <g id="line2d_12">
      <g>
       <use style="stroke:#000000;stroke-width:0.8;" x="57.6" xlink:href="#m3806407157" y="78.776216"/>
      </g>
     </g>
     <g id="text_12">
      <!-- 4.0 -->
      <defs>
       <path d="M 37.796875 64.3125 
L 12.890625 25.390625 
L 37.796875 25.390625 
z
M 35.203125 72.90625 
L 47.609375 72.90625 
L 47.609375 25.390625 
L 58.015625 25.390625 
L 58.015625 17.1875 
L 47.609375 17.1875 
L 47.609375 0 
L 37.796875 0 
L 37.796875 17.1875 
L 4.890625 17.1875 
L 4.890625 26.703125 
z
" id="DejaVuSans-34"/>
      </defs>
      <g transform="translate(34.696875 82.575435)scale(0.1 -0.1)">
       <use xlink:href="#DejaVuSans-34"/>
       <use x="63.623047" xlink:href="#DejaVuSans-2e"/>
       <use x="95.410156" xlink:href="#DejaVuSans-30"/>
      </g>
     </g>
    </g>
    <g id="text_13">
     <!-- RMSD -->
     <defs>
      <path d="M 44.390625 34.1875 
Q 47.5625 33.109375 50.5625 29.59375 
Q 53.5625 26.078125 56.59375 19.921875 
L 66.609375 0 
L 56 0 
L 46.6875 18.703125 
Q 43.0625 26.03125 39.671875 28.421875 
Q 36.28125 30.8125 30.421875 30.8125 
L 19.671875 30.8125 
L 19.671875 0 
L 9.8125 0 
L 9.8125 72.90625 
L 32.078125 72.90625 
Q 44.578125 72.90625 50.734375 67.671875 
Q 56.890625 62.453125 56.890625 51.90625 
Q 56.890625 45.015625 53.6875 40.46875 
Q 50.484375 35.9375 44.390625 34.1875 
z
M 19.671875 64.796875 
L 19.671875 38.921875 
L 32.078125 38.921875 
Q 39.203125 38.921875 42.84375 42.21875 
Q 46.484375 45.515625 46.484375 51.90625 
Q 46.484375 58.296875 42.84375 61.546875 
Q 39.203125 64.796875 32.078125 64.796875 
z
" id="DejaVuSans-52"/>
      <path d="M 9.8125 72.90625 
L 24.515625 72.90625 
L 43.109375 23.296875 
L 61.8125 72.90625 
L 76.515625 72.90625 
L 76.515625 0 
L 66.890625 0 
L 66.890625 64.015625 
L 48.09375 14.015625 
L 38.1875 14.015625 
L 19.390625 64.015625 
L 19.390625 0 
L 9.8125 0 
z
" id="DejaVuSans-4d"/>
      <path d="M 53.515625 70.515625 
L 53.515625 60.890625 
Q 47.90625 63.578125 42.921875 64.890625 
Q 37.9375 66.21875 33.296875 66.21875 
Q 25.25 66.21875 20.875 63.09375 
Q 16.5 59.96875 16.5 54.203125 
Q 16.5 49.359375 19.40625 46.890625 
Q 22.3125 44.4375 30.421875 42.921875 
L 36.375 41.703125 
Q 47.40625 39.59375 52.65625 34.296875 
Q 57.90625 29 57.90625 20.125 
Q 57.90625 9.515625 50.796875 4.046875 
Q 43.703125 -1.421875 29.984375 -1.421875 
Q 24.8125 -1.421875 18.96875 -0.25 
Q 13.140625 0.921875 6.890625 3.21875 
L 6.890625 13.375 
Q 12.890625 10.015625 18.65625 8.296875 
Q 24.421875 6.59375 29.984375 6.59375 
Q 38.421875 6.59375 43.015625 9.90625 
Q 47.609375 13.234375 47.609375 19.390625 
Q 47.609375 24.75 44.3125 27.78125 
Q 41.015625 30.8125 33.5 32.328125 
L 27.484375 33.5 
Q 16.453125 35.6875 11.515625 40.375 
Q 6.59375 45.0625 6.59375 53.421875 
Q 6.59375 63.09375 13.40625 68.65625 
Q 20.21875 74.21875 32.171875 74.21875 
Q 37.3125 74.21875 42.625 73.28125 
Q 47.953125 72.359375 53.515625 70.515625 
z
" id="DejaVuSans-53"/>
      <path d="M 19.671875 64.796875 
L 19.671875 8.109375 
L 31.59375 8.109375 
Q 46.6875 8.109375 53.6875 14.9375 
Q 60.6875 21.78125 60.6875 36.53125 
Q 60.6875 51.171875 53.6875 57.984375 
Q 46.6875 64.796875 31.59375 64.796875 
z
M 9.8125 72.90625 
L 30.078125 72.90625 
Q 51.265625 72.90625 61.171875 64.09375 
Q 71.09375 55.28125 71.09375 36.53125 
Q 71.09375 17.671875 61.125 8.828125 
Q 51.171875 0 30.078125 0 
L 9.8125 0 
z
" id="DejaVuSans-44"/>
     </defs>
     <g transform="translate(28.617187 189.3405)rotate(-90)scale(0.1 -0.1)">
      <use xlink:href="#DejaVuSans-52"/>
      <use x="69.482422" xlink:href="#DejaVuSans-4d"/>
      <use x="155.761719" xlink:href="#DejaVuSans-53"/>
      <use x="219.238281" xlink:href="#DejaVuSans-44"/>
     </g>
    </g>
   </g>
   <g id="line2d_13">
    <path clip-path="url(#p5b8df3b480)" d="M 73.832727 293.780847 
L 74.918528 295.488 
L 76.00433 275.935458 
L 77.090131 260.686535 
L 78.175932 220.886288 
L 79.261733 218.677433 
L 80.347534 216.975978 
L 81.433335 214.596969 
L 82.519137 202.441356 
L 83.604938 195.510572 
L 84.690739 186.469203 
L 85.77654 195.961736 
L 86.862341 211.193622 
L 87.948142 211.22919 
L 89.033943 187.778399 
L 90.119745 168.660492 
L 91.205546 161.921797 
L 92.291347 150.301057 
L 93.377148 161.971883 
L 94.462949 160.486172 
L 95.54875 156.037347 
L 96.634552 158.165815 
L 97.720353 127.46141 
L 98.806154 145.677433 
L 99.891955 151.61823 
L 100.977756 149.900798 
L 102.063557 160.621198 
L 103.149358 153.300784 
L 104.23516 135.143958 
L 105.320961 137.783874 
L 106.406762 122.064247 
L 107.492563 137.238614 
L 108.578364 137.84004 
L 109.664165 131.342857 
L 110.749967 153.637306 
L 111.835768 142.392286 
L 112.921569 141.052758 
L 114.00737 120.889674 
L 115.093171 114.549471 
L 116.178972 136.930489 
L 117.264773 118.299694 
L 119.436376 123.374749 
L 120.522177 126.15421 
L 121.607978 126.384998 
L 122.693779 125.750407 
L 123.77958 109.777306 
L 124.865382 100.909884 
L 125.951183 98.006555 
L 127.036984 105.9479 
L 128.122785 101.737205 
L 129.208586 99.305818 
L 130.294387 113.506032 
L 131.380189 141.872369 
L 132.46599 119.367826 
L 133.551791 130.113441 
L 134.637592 128.046311 
L 135.723393 117.463592 
L 136.809194 123.122219 
L 137.894995 120.764897 
L 138.980797 115.479248 
L 140.066598 121.205078 
L 141.152399 109.449274 
L 142.2382 105.307053 
L 143.324001 108.807975 
L 144.409802 111.456582 
L 145.495604 119.884985 
L 146.581405 130.837861 
L 147.667206 118.611063 
L 148.753007 117.092717 
L 149.838808 124.814104 
L 150.924609 113.67429 
L 152.01041 123.63073 
L 153.096212 129.493654 
L 154.182013 137.382016 
L 155.267814 125.096496 
L 156.353615 133.204554 
L 157.439416 125.350095 
L 158.525217 115.322204 
L 159.611019 115.011647 
L 160.69682 111.419686 
L 161.782621 117.190898 
L 162.868422 113.145862 
L 163.954223 113.07123 
L 165.040024 123.78539 
L 166.125825 107.597747 
L 167.211627 111.000583 
L 169.383229 95.84897 
L 170.46903 112.156987 
L 171.554831 101.654139 
L 172.640632 102.784164 
L 173.726434 117.847051 
L 174.812235 118.089271 
L 175.898036 115.746299 
L 176.983837 121.87938 
L 178.069638 120.73352 
L 179.155439 100.827885 
L 180.24124 97.976295 
L 181.327042 96.961097 
L 182.412843 103.955651 
L 183.498644 93.36625 
L 184.584445 92.065639 
L 185.670246 98.498224 
L 186.756047 100.819967 
L 187.841849 100.73509 
L 188.92765 105.974287 
L 190.013451 104.03801 
L 191.099252 104.324892 
L 192.185053 101.551539 
L 193.270854 87.619376 
L 194.356656 84.929901 
L 195.442457 81.567688 
L 197.614059 105.29328 
L 198.69986 108.994831 
L 199.785661 104.472919 
L 200.871462 92.120285 
L 201.957264 100.752899 
L 203.043065 86.361392 
L 204.128866 89.401892 
L 205.214667 101.339275 
L 206.300468 75.663916 
L 208.472071 62.226816 
L 209.557872 74.765492 
L 210.643673 73.785599 
L 211.729474 76.059221 
L 212.815275 62.303606 
L 213.901076 58.54813 
L 214.986877 53.568 
L 216.072679 53.689467 
L 217.15848 83.888336 
L 218.244281 83.760638 
L 219.330082 73.602608 
L 220.415883 87.174105 
L 221.501684 78.876378 
L 222.587486 87.246874 
L 223.673287 83.585998 
L 224.759088 89.449695 
L 225.844889 83.114997 
L 226.93069 81.465407 
L 228.016491 83.180078 
L 229.102292 94.88542 
L 230.188094 65.675616 
L 232.359696 81.354766 
L 233.445497 73.35208 
L 234.531298 75.210755 
L 235.617099 75.741094 
L 236.702901 78.685805 
L 237.788702 76.637918 
L 238.874503 91.333658 
L 239.960304 94.330805 
L 241.046105 99.489894 
L 242.131906 108.734075 
L 243.217708 114.027961 
L 244.303509 98.859237 
L 245.38931 112.591179 
L 246.475111 110.559155 
L 247.560912 101.693501 
L 248.646713 85.805665 
L 249.732514 99.557183 
L 250.818316 133.565796 
L 251.904117 109.064816 
L 252.989918 105.471193 
L 254.075719 115.259072 
L 255.16152 115.275562 
L 256.247321 104.689246 
L 257.333123 126.313214 
L 258.418924 118.074529 
L 259.504725 136.030094 
L 260.590526 127.930779 
L 261.676327 143.151081 
L 262.762128 128.487551 
L 263.847929 132.053351 
L 264.933731 126.98109 
L 266.019532 133.968328 
L 267.105333 150.006821 
L 268.191134 133.718818 
L 269.276935 126.817457 
L 270.362736 120.93627 
L 271.448538 131.401821 
L 272.534339 137.872898 
L 273.62014 132.242309 
L 274.705941 125.379243 
L 275.791742 114.589354 
L 276.877543 112.760779 
L 277.963344 111.651084 
L 279.049146 106.690605 
L 280.134947 121.441925 
L 281.220748 108.711796 
L 282.306549 136.539652 
L 283.39235 139.318696 
L 284.478151 124.096593 
L 285.563953 127.213457 
L 286.649754 138.036985 
L 287.735555 128.209394 
L 288.821356 122.503414 
L 289.907157 120.540802 
L 290.992958 112.197808 
L 292.07876 118.939422 
L 293.164561 126.642557 
L 294.250362 124.867709 
L 295.336163 129.333431 
L 296.421964 124.673807 
L 297.507765 127.077418 
L 298.593566 116.823132 
L 299.679368 125.816521 
L 300.765169 116.03265 
L 301.85097 110.787031 
L 302.936771 112.297907 
L 304.022572 117.337474 
L 305.108373 108.981426 
L 306.194175 110.450729 
L 307.279976 116.131521 
L 308.365777 114.117291 
L 309.451578 127.879305 
L 310.537379 133.090462 
L 311.62318 135.973343 
L 312.708981 120.621452 
L 313.794783 143.999556 
L 314.880584 131.963506 
L 315.966385 130.342274 
L 317.052186 108.454298 
L 318.137987 106.598546 
L 319.223788 111.73462 
L 320.30959 133.811502 
L 321.395391 115.864662 
L 322.481192 119.411285 
L 323.566993 118.210862 
L 324.652794 111.611688 
L 325.738595 126.062587 
L 326.824396 127.520566 
L 327.910198 121.915495 
L 328.995999 96.744936 
L 330.0818 111.733255 
L 331.167601 114.246742 
L 332.253402 107.16105 
L 333.339203 122.51054 
L 334.425005 121.105704 
L 335.510806 111.601016 
L 336.596607 118.692768 
L 337.682408 131.463931 
L 338.768209 115.456228 
L 339.85401 115.923356 
L 340.939811 130.419501 
L 342.025613 124.785294 
L 343.111414 126.352563 
L 344.197215 125.008501 
L 345.283016 125.456061 
L 346.368817 132.987842 
L 347.454618 111.049995 
L 348.54042 114.363057 
L 349.626221 114.902883 
L 350.712022 121.846717 
L 351.797823 120.220298 
L 352.883624 115.23622 
L 353.969425 114.891014 
L 355.055227 115.738619 
L 356.141028 113.583951 
L 357.226829 119.346249 
L 358.31263 105.654964 
L 359.398431 124.436977 
L 360.484232 118.908772 
L 361.570033 110.144288 
L 362.655835 116.129314 
L 363.741636 114.289222 
L 364.827437 116.06256 
L 365.913238 125.927868 
L 366.999039 127.095813 
L 368.08484 132.206164 
L 369.170642 125.853431 
L 370.256443 110.087053 
L 371.342244 104.455373 
L 372.428045 132.5664 
L 373.513846 119.792712 
L 374.599647 117.462195 
L 375.685448 113.316263 
L 376.77125 104.249876 
L 377.857051 119.241769 
L 378.942852 115.507511 
L 380.028653 121.675514 
L 381.114454 117.78892 
L 382.200255 108.882267 
L 383.286057 132.504222 
L 384.371858 122.996261 
L 385.457659 136.628442 
L 386.54346 136.491578 
L 387.629261 122.207504 
L 388.715062 122.784125 
L 389.800863 124.106445 
L 390.886665 133.629872 
L 391.972466 135.907204 
L 393.058267 130.558032 
L 394.144068 140.561385 
L 395.229869 149.304492 
L 396.31567 153.477131 
L 397.401472 138.336812 
L 398.487273 141.462372 
L 398.487273 141.462372 
" style="fill:none;stroke:#666666;stroke-dasharray:1,1.65;stroke-dashoffset:0;"/>
    <defs>
     <path d="M 0 0.5 
C 0.132602 0.5 0.25979 0.447317 0.353553 0.353553 
C 0.447317 0.25979 0.5 0.132602 0.5 0 
C 0.5 -0.132602 0.447317 -0.25979 0.353553 -0.353553 
C 0.25979 -0.447317 0.132602 -0.5 0 -0.5 
C -0.132602 -0.5 -0.25979 -0.447317 -0.353553 -0.353553 
C -0.447317 -0.25979 -0.5 -0.132602 -0.5 0 
C -0.5 0.132602 -0.447317 0.25979 -0.353553 0.353553 
C -0.25979 0.447317 -0.132602 0.5 0 0.5 
z
" id="m3cfbb5b214" style="stroke:#666666;"/>
    </defs>
    <g clip-path="url(#p5b8df3b480)">
     <use style="fill:#666666;stroke:#666666;" x="73.832727" xlink:href="#m3cfbb5b214" y="293.780847"/>
     <use style="fill:#666666;stroke:#666666;" x="74.918528" xlink:href="#m3cfbb5b214" y="295.488"/>
     <use style="fill:#666666;stroke:#666666;" x="76.00433" xlink:href="#m3cfbb5b214" y="275.935458"/>
     <use style="fill:#666666;stroke:#666666;" x="77.090131" xlink:href="#m3cfbb5b214" y="260.686535"/>
     <use style="fill:#666666;stroke:#666666;" x="78.175932" xlink:href="#m3cfbb5b214" y="220.886288"/>
     <use style="fill:#666666;stroke:#666666;" x="79.261733" xlink:href="#m3cfbb5b214" y="218.677433"/>
     <use style="fill:#666666;stroke:#666666;" x="80.347534" xlink:href="#m3cfbb5b214" y="216.975978"/>
     <use style="fill:#666666;stroke:#666666;" x="81.433335" xlink:href="#m3cfbb5b214" y="214.596969"/>
     <use style="fill:#666666;stroke:#666666;" x="82.519137" xlink:href="#m3cfbb5b214" y="202.441356"/>
     <use style="fill:#666666;stroke:#666666;" x="83.604938" xlink:href="#m3cfbb5b214" y="195.510572"/>
     <use style="fill:#666666;stroke:#666666;" x="84.690739" xlink:href="#m3cfbb5b214" y="186.469203"/>
     <use style="fill:#666666;stroke:#666666;" x="85.77654" xlink:href="#m3cfbb5b214" y="195.961736"/>
     <use style="fill:#666666;stroke:#666666;" x="86.862341" xlink:href="#m3cfbb5b214" y="211.193622"/>
     <use style="fill:#666666;stroke:#666666;" x="87.948142" xlink:href="#m3cfbb5b214" y="211.22919"/>
     <use style="fill:#666666;stroke:#666666;" x="89.033943" xlink:href="#m3cfbb5b214" y="187.778399"/>
     <use style="fill:#666666;stroke:#666666;" x="90.119745" xlink:href="#m3cfbb5b214" y="168.660492"/>
     <use style="fill:#666666;stroke:#666666;" x="91.205546" xlink:href="#m3cfbb5b214" y="161.921797"/>
     <use style="fill:#666666;stroke:#666666;" x="92.291347" xlink:href="#m3cfbb5b214" y="150.301057"/>
     <use style="fill:#666666;stroke:#666666;" x="93.377148" xlink:href="#m3cfbb5b214" y="161.971883"/>
     <use style="fill:#666666;stroke:#666666;" x="94.462949" xlink:href="#m3cfbb5b214" y="160.486172"/>
     <use style="fill:#666666;stroke:#666666;" x="95.54875" xlink:href="#m3cfbb5b214" y="156.037347"/>
     <use style="fill:#666666;stroke:#666666;" x="96.634552" xlink:href="#m3cfbb5b214" y="158.165815"/>
     <use style="fill:#666666;stroke:#666666;" x="97.720353" xlink:href="#m3cfbb5b214" y="127.46141"/>
     <use style="fill:#666666;stroke:#666666;" x="98.806154" xlink:href="#m3cfbb5b214" y="145.677433"/>
     <use style="fill:#666666;stroke:#666666;" x="99.891955" xlink:href="#m3cfbb5b214" y="151.61823"/>
     <use style="fill:#666666;stroke:#666666;" x="100.977756" xlink:href="#m3cfbb5b214" y="149.900798"/>
     <use style="fill:#666666;stroke:#666666;" x="102.063557" xlink:href="#m3cfbb5b214" y="160.621198"/>
     <use style="fill:#666666;stroke:#666666;" x="103.149358" xlink:href="#m3cfbb5b214" y="153.300784"/>
     <use style="fill:#666666;stroke:#666666;" x="104.23516" xlink:href="#m3cfbb5b214" y="135.143958"/>
     <use style="fill:#666666;stroke:#666666;" x="105.320961" xlink:href="#m3cfbb5b214" y="137.783874"/>
     <use style="fill:#666666;stroke:#666666;" x="106.406762" xlink:href="#m3cfbb5b214" y="122.064247"/>
     <use style="fill:#666666;stroke:#666666;" x="107.492563" xlink:href="#m3cfbb5b214" y="137.238614"/>
     <use style="fill:#666666;stroke:#666666;" x="108.578364" xlink:href="#m3cfbb5b214" y="137.84004"/>
     <use style="fill:#666666;stroke:#666666;" x="109.664165" xlink:href="#m3cfbb5b214" y="131.342857"/>
     <use style="fill:#666666;stroke:#666666;" x="110.749967" xlink:href="#m3cfbb5b214" y="153.637306"/>
     <use style="fill:#666666;stroke:#666666;" x="111.835768" xlink:href="#m3cfbb5b214" y="142.392286"/>
     <use style="fill:#666666;stroke:#666666;" x="112.921569" xlink:href="#m3cfbb5b214" y="141.052758"/>
     <use style="fill:#666666;stroke:#666666;" x="114.00737" xlink:href="#m3cfbb5b214" y="120.889674"/>
     <use style="fill:#666666;stroke:#666666;" x="115.093171" xlink:href="#m3cfbb5b214" y="114.549471"/>
     <use style="fill:#666666;stroke:#666666;" x="116.178972" xlink:href="#m3cfbb5b214" y="136.930489"/>
     <use style="fill:#666666;stroke:#666666;" x="117.264773" xlink:href="#m3cfbb5b214" y="118.299694"/>
     <use style="fill:#666666;stroke:#666666;" x="118.350575" xlink:href="#m3cfbb5b214" y="120.780258"/>
     <use style="fill:#666666;stroke:#666666;" x="119.436376" xlink:href="#m3cfbb5b214" y="123.374749"/>
     <use style="fill:#666666;stroke:#666666;" x="120.522177" xlink:href="#m3cfbb5b214" y="126.15421"/>
     <use style="fill:#666666;stroke:#666666;" x="121.607978" xlink:href="#m3cfbb5b214" y="126.384998"/>
     <use style="fill:#666666;stroke:#666666;" x="122.693779" xlink:href="#m3cfbb5b214" y="125.750407"/>
     <use style="fill:#666666;stroke:#666666;" x="123.77958" xlink:href="#m3cfbb5b214" y="109.777306"/>
     <use style="fill:#666666;stroke:#666666;" x="124.865382" xlink:href="#m3cfbb5b214" y="100.909884"/>
     <use style="fill:#666666;stroke:#666666;" x="125.951183" xlink:href="#m3cfbb5b214" y="98.006555"/>
     <use style="fill:#666666;stroke:#666666;" x="127.036984" xlink:href="#m3cfbb5b214" y="105.9479"/>
     <use style="fill:#666666;stroke:#666666;" x="128.122785" xlink:href="#m3cfbb5b214" y="101.737205"/>
     <use style="fill:#666666;stroke:#666666;" x="129.208586" xlink:href="#m3cfbb5b214" y="99.305818"/>
     <use style="fill:#666666;stroke:#666666;" x="130.294387" xlink:href="#m3cfbb5b214" y="113.506032"/>
     <use style="fill:#666666;stroke:#666666;" x="131.380189" xlink:href="#m3cfbb5b214" y="141.872369"/>
     <use style="fill:#666666;stroke:#666666;" x="132.46599" xlink:href="#m3cfbb5b214" y="119.367826"/>
     <use style="fill:#666666;stroke:#666666;" x="133.551791" xlink:href="#m3cfbb5b214" y="130.113441"/>
     <use style="fill:#666666;stroke:#666666;" x="134.637592" xlink:href="#m3cfbb5b214" y="128.046311"/>
     <use style="fill:#666666;stroke:#666666;" x="135.723393" xlink:href="#m3cfbb5b214" y="117.463592"/>
     <use style="fill:#666666;stroke:#666666;" x="136.809194" xlink:href="#m3cfbb5b214" y="123.122219"/>
     <use style="fill:#666666;stroke:#666666;" x="137.894995" xlink:href="#m3cfbb5b214" y="120.764897"/>
     <use style="fill:#666666;stroke:#666666;" x="138.980797" xlink:href="#m3cfbb5b214" y="115.479248"/>
     <use style="fill:#666666;stroke:#666666;" x="140.066598" xlink:href="#m3cfbb5b214" y="121.205078"/>
     <use style="fill:#666666;stroke:#666666;" x="141.152399" xlink:href="#m3cfbb5b214" y="109.449274"/>
     <use style="fill:#666666;stroke:#666666;" x="142.2382" xlink:href="#m3cfbb5b214" y="105.307053"/>
     <use style="fill:#666666;stroke:#666666;" x="143.324001" xlink:href="#m3cfbb5b214" y="108.807975"/>
     <use style="fill:#666666;stroke:#666666;" x="144.409802" xlink:href="#m3cfbb5b214" y="111.456582"/>
     <use style="fill:#666666;stroke:#666666;" x="145.495604" xlink:href="#m3cfbb5b214" y="119.884985"/>
     <use style="fill:#666666;stroke:#666666;" x="146.581405" xlink:href="#m3cfbb5b214" y="130.837861"/>
     <use style="fill:#666666;stroke:#666666;" x="147.667206" xlink:href="#m3cfbb5b214" y="118.611063"/>
     <use style="fill:#666666;stroke:#666666;" x="148.753007" xlink:href="#m3cfbb5b214" y="117.092717"/>
     <use style="fill:#666666;stroke:#666666;" x="149.838808" xlink:href="#m3cfbb5b214" y="124.814104"/>
     <use style="fill:#666666;stroke:#666666;" x="150.924609" xlink:href="#m3cfbb5b214" y="113.67429"/>
     <use style="fill:#666666;stroke:#666666;" x="152.01041" xlink:href="#m3cfbb5b214" y="123.63073"/>
     <use style="fill:#666666;stroke:#666666;" x="153.096212" xlink:href="#m3cfbb5b214" y="129.493654"/>
     <use style="fill:#666666;stroke:#666666;" x="154.182013" xlink:href="#m3cfbb5b214" y="137.382016"/>
     <use style="fill:#666666;stroke:#666666;" x="155.267814" xlink:href="#m3cfbb5b214" y="125.096496"/>
     <use style="fill:#666666;stroke:#666666;" x="156.353615" xlink:href="#m3cfbb5b214" y="133.204554"/>
     <use style="fill:#666666;stroke:#666666;" x="157.439416" xlink:href="#m3cfbb5b214" y="125.350095"/>
     <use style="fill:#666666;stroke:#666666;" x="158.525217" xlink:href="#m3cfbb5b214" y="115.322204"/>
     <use style="fill:#666666;stroke:#666666;" x="159.611019" xlink:href="#m3cfbb5b214" y="115.011647"/>
     <use style="fill:#666666;stroke:#666666;" x="160.69682" xlink:href="#m3cfbb5b214" y="111.419686"/>
     <use style="fill:#666666;stroke:#666666;" x="161.782621" xlink:href="#m3cfbb5b214" y="117.190898"/>
     <use style="fill:#666666;stroke:#666666;" x="162.868422" xlink:href="#m3cfbb5b214" y="113.145862"/>
     <use style="fill:#666666;stroke:#666666;" x="163.954223" xlink:href="#m3cfbb5b214" y="113.07123"/>
     <use style="fill:#666666;stroke:#666666;" x="165.040024" xlink:href="#m3cfbb5b214" y="123.78539"/>
     <use style="fill:#666666;stroke:#666666;" x="166.125825" xlink:href="#m3cfbb5b214" y="107.597747"/>
     <use style="fill:#666666;stroke:#666666;" x="167.211627" xlink:href="#m3cfbb5b214" y="111.000583"/>
     <use style="fill:#666666;stroke:#666666;" x="168.297428" xlink:href="#m3cfbb5b214" y="103.527723"/>
     <use style="fill:#666666;stroke:#666666;" x="169.383229" xlink:href="#m3cfbb5b214" y="95.84897"/>
     <use style="fill:#666666;stroke:#666666;" x="170.46903" xlink:href="#m3cfbb5b214" y="112.156987"/>
     <use style="fill:#666666;stroke:#666666;" x="171.554831" xlink:href="#m3cfbb5b214" y="101.654139"/>
     <use style="fill:#666666;stroke:#666666;" x="172.640632" xlink:href="#m3cfbb5b214" y="102.784164"/>
     <use style="fill:#666666;stroke:#666666;" x="173.726434" xlink:href="#m3cfbb5b214" y="117.847051"/>
     <use style="fill:#666666;stroke:#666666;" x="174.812235" xlink:href="#m3cfbb5b214" y="118.089271"/>
     <use style="fill:#666666;stroke:#666666;" x="175.898036" xlink:href="#m3cfbb5b214" y="115.746299"/>
     <use style="fill:#666666;stroke:#666666;" x="176.983837" xlink:href="#m3cfbb5b214" y="121.87938"/>
     <use style="fill:#666666;stroke:#666666;" x="178.069638" xlink:href="#m3cfbb5b214" y="120.73352"/>
     <use style="fill:#666666;stroke:#666666;" x="179.155439" xlink:href="#m3cfbb5b214" y="100.827885"/>
     <use style="fill:#666666;stroke:#666666;" x="180.24124" xlink:href="#m3cfbb5b214" y="97.976295"/>
     <use style="fill:#666666;stroke:#666666;" x="181.327042" xlink:href="#m3cfbb5b214" y="96.961097"/>
     <use style="fill:#666666;stroke:#666666;" x="182.412843" xlink:href="#m3cfbb5b214" y="103.955651"/>
     <use style="fill:#666666;stroke:#666666;" x="183.498644" xlink:href="#m3cfbb5b214" y="93.36625"/>
     <use style="fill:#666666;stroke:#666666;" x="184.584445" xlink:href="#m3cfbb5b214" y="92.065639"/>
     <use style="fill:#666666;stroke:#666666;" x="185.670246" xlink:href="#m3cfbb5b214" y="98.498224"/>
     <use style="fill:#666666;stroke:#666666;" x="186.756047" xlink:href="#m3cfbb5b214" y="100.819967"/>
     <use style="fill:#666666;stroke:#666666;" x="187.841849" xlink:href="#m3cfbb5b214" y="100.73509"/>
     <use style="fill:#666666;stroke:#666666;" x="188.92765" xlink:href="#m3cfbb5b214" y="105.974287"/>
     <use style="fill:#666666;stroke:#666666;" x="190.013451" xlink:href="#m3cfbb5b214" y="104.03801"/>
     <use style="fill:#666666;stroke:#666666;" x="191.099252" xlink:href="#m3cfbb5b214" y="104.324892"/>
     <use style="fill:#666666;stroke:#666666;" x="192.185053" xlink:href="#m3cfbb5b214" y="101.551539"/>
     <use style="fill:#666666;stroke:#666666;" x="193.270854" xlink:href="#m3cfbb5b214" y="87.619376"/>
     <use style="fill:#666666;stroke:#666666;" x="194.356656" xlink:href="#m3cfbb5b214" y="84.929901"/>
     <use style="fill:#666666;stroke:#666666;" x="195.442457" xlink:href="#m3cfbb5b214" y="81.567688"/>
     <use style="fill:#666666;stroke:#666666;" x="196.528258" xlink:href="#m3cfbb5b214" y="93.584722"/>
     <use style="fill:#666666;stroke:#666666;" x="197.614059" xlink:href="#m3cfbb5b214" y="105.29328"/>
     <use style="fill:#666666;stroke:#666666;" x="198.69986" xlink:href="#m3cfbb5b214" y="108.994831"/>
     <use style="fill:#666666;stroke:#666666;" x="199.785661" xlink:href="#m3cfbb5b214" y="104.472919"/>
     <use style="fill:#666666;stroke:#666666;" x="200.871462" xlink:href="#m3cfbb5b214" y="92.120285"/>
     <use style="fill:#666666;stroke:#666666;" x="201.957264" xlink:href="#m3cfbb5b214" y="100.752899"/>
     <use style="fill:#666666;stroke:#666666;" x="203.043065" xlink:href="#m3cfbb5b214" y="86.361392"/>
     <use style="fill:#666666;stroke:#666666;" x="204.128866" xlink:href="#m3cfbb5b214" y="89.401892"/>
     <use style="fill:#666666;stroke:#666666;" x="205.214667" xlink:href="#m3cfbb5b214" y="101.339275"/>
     <use style="fill:#666666;stroke:#666666;" x="206.300468" xlink:href="#m3cfbb5b214" y="75.663916"/>
     <use style="fill:#666666;stroke:#666666;" x="207.386269" xlink:href="#m3cfbb5b214" y="68.644539"/>
     <use style="fill:#666666;stroke:#666666;" x="208.472071" xlink:href="#m3cfbb5b214" y="62.226816"/>
     <use style="fill:#666666;stroke:#666666;" x="209.557872" xlink:href="#m3cfbb5b214" y="74.765492"/>
     <use style="fill:#666666;stroke:#666666;" x="210.643673" xlink:href="#m3cfbb5b214" y="73.785599"/>
     <use style="fill:#666666;stroke:#666666;" x="211.729474" xlink:href="#m3cfbb5b214" y="76.059221"/>
     <use style="fill:#666666;stroke:#666666;" x="212.815275" xlink:href="#m3cfbb5b214" y="62.303606"/>
     <use style="fill:#666666;stroke:#666666;" x="213.901076" xlink:href="#m3cfbb5b214" y="58.54813"/>
     <use style="fill:#666666;stroke:#666666;" x="214.986877" xlink:href="#m3cfbb5b214" y="53.568"/>
     <use style="fill:#666666;stroke:#666666;" x="216.072679" xlink:href="#m3cfbb5b214" y="53.689467"/>
     <use style="fill:#666666;stroke:#666666;" x="217.15848" xlink:href="#m3cfbb5b214" y="83.888336"/>
     <use style="fill:#666666;stroke:#666666;" x="218.244281" xlink:href="#m3cfbb5b214" y="83.760638"/>
     <use style="fill:#666666;stroke:#666666;" x="219.330082" xlink:href="#m3cfbb5b214" y="73.602608"/>
     <use style="fill:#666666;stroke:#666666;" x="220.415883" xlink:href="#m3cfbb5b214" y="87.174105"/>
     <use style="fill:#666666;stroke:#666666;" x="221.501684" xlink:href="#m3cfbb5b214" y="78.876378"/>
     <use style="fill:#666666;stroke:#666666;" x="222.587486" xlink:href="#m3cfbb5b214" y="87.246874"/>
     <use style="fill:#666666;stroke:#666666;" x="223.673287" xlink:href="#m3cfbb5b214" y="83.585998"/>
     <use style="fill:#666666;stroke:#666666;" x="224.759088" xlink:href="#m3cfbb5b214" y="89.449695"/>
     <use style="fill:#666666;stroke:#666666;" x="225.844889" xlink:href="#m3cfbb5b214" y="83.114997"/>
     <use style="fill:#666666;stroke:#666666;" x="226.93069" xlink:href="#m3cfbb5b214" y="81.465407"/>
     <use style="fill:#666666;stroke:#666666;" x="228.016491" xlink:href="#m3cfbb5b214" y="83.180078"/>
     <use style="fill:#666666;stroke:#666666;" x="229.102292" xlink:href="#m3cfbb5b214" y="94.88542"/>
     <use style="fill:#666666;stroke:#666666;" x="230.188094" xlink:href="#m3cfbb5b214" y="65.675616"/>
     <use style="fill:#666666;stroke:#666666;" x="231.273895" xlink:href="#m3cfbb5b214" y="73.796523"/>
     <use style="fill:#666666;stroke:#666666;" x="232.359696" xlink:href="#m3cfbb5b214" y="81.354766"/>
     <use style="fill:#666666;stroke:#666666;" x="233.445497" xlink:href="#m3cfbb5b214" y="73.35208"/>
     <use style="fill:#666666;stroke:#666666;" x="234.531298" xlink:href="#m3cfbb5b214" y="75.210755"/>
     <use style="fill:#666666;stroke:#666666;" x="235.617099" xlink:href="#m3cfbb5b214" y="75.741094"/>
     <use style="fill:#666666;stroke:#666666;" x="236.702901" xlink:href="#m3cfbb5b214" y="78.685805"/>
     <use style="fill:#666666;stroke:#666666;" x="237.788702" xlink:href="#m3cfbb5b214" y="76.637918"/>
     <use style="fill:#666666;stroke:#666666;" x="238.874503" xlink:href="#m3cfbb5b214" y="91.333658"/>
     <use style="fill:#666666;stroke:#666666;" x="239.960304" xlink:href="#m3cfbb5b214" y="94.330805"/>
     <use style="fill:#666666;stroke:#666666;" x="241.046105" xlink:href="#m3cfbb5b214" y="99.489894"/>
     <use style="fill:#666666;stroke:#666666;" x="242.131906" xlink:href="#m3cfbb5b214" y="108.734075"/>
     <use style="fill:#666666;stroke:#666666;" x="243.217708" xlink:href="#m3cfbb5b214" y="114.027961"/>
     <use style="fill:#666666;stroke:#666666;" x="244.303509" xlink:href="#m3cfbb5b214" y="98.859237"/>
     <use style="fill:#666666;stroke:#666666;" x="245.38931" xlink:href="#m3cfbb5b214" y="112.591179"/>
     <use style="fill:#666666;stroke:#666666;" x="246.475111" xlink:href="#m3cfbb5b214" y="110.559155"/>
     <use style="fill:#666666;stroke:#666666;" x="247.560912" xlink:href="#m3cfbb5b214" y="101.693501"/>
     <use style="fill:#666666;stroke:#666666;" x="248.646713" xlink:href="#m3cfbb5b214" y="85.805665"/>
     <use style="fill:#666666;stroke:#666666;" x="249.732514" xlink:href="#m3cfbb5b214" y="99.557183"/>
     <use style="fill:#666666;stroke:#666666;" x="250.818316" xlink:href="#m3cfbb5b214" y="133.565796"/>
     <use style="fill:#666666;stroke:#666666;" x="251.904117" xlink:href="#m3cfbb5b214" y="109.064816"/>
     <use style="fill:#666666;stroke:#666666;" x="252.989918" xlink:href="#m3cfbb5b214" y="105.471193"/>
     <use style="fill:#666666;stroke:#666666;" x="254.075719" xlink:href="#m3cfbb5b214" y="115.259072"/>
     <use style="fill:#666666;stroke:#666666;" x="255.16152" xlink:href="#m3cfbb5b214" y="115.275562"/>
     <use style="fill:#666666;stroke:#666666;" x="256.247321" xlink:href="#m3cfbb5b214" y="104.689246"/>
     <use style="fill:#666666;stroke:#666666;" x="257.333123" xlink:href="#m3cfbb5b214" y="126.313214"/>
     <use style="fill:#666666;stroke:#666666;" x="258.418924" xlink:href="#m3cfbb5b214" y="118.074529"/>
     <use style="fill:#666666;stroke:#666666;" x="259.504725" xlink:href="#m3cfbb5b214" y="136.030094"/>
     <use style="fill:#666666;stroke:#666666;" x="260.590526" xlink:href="#m3cfbb5b214" y="127.930779"/>
     <use style="fill:#666666;stroke:#666666;" x="261.676327" xlink:href="#m3cfbb5b214" y="143.151081"/>
     <use style="fill:#666666;stroke:#666666;" x="262.762128" xlink:href="#m3cfbb5b214" y="128.487551"/>
     <use style="fill:#666666;stroke:#666666;" x="263.847929" xlink:href="#m3cfbb5b214" y="132.053351"/>
     <use style="fill:#666666;stroke:#666666;" x="264.933731" xlink:href="#m3cfbb5b214" y="126.98109"/>
     <use style="fill:#666666;stroke:#666666;" x="266.019532" xlink:href="#m3cfbb5b214" y="133.968328"/>
     <use style="fill:#666666;stroke:#666666;" x="267.105333" xlink:href="#m3cfbb5b214" y="150.006821"/>
     <use style="fill:#666666;stroke:#666666;" x="268.191134" xlink:href="#m3cfbb5b214" y="133.718818"/>
     <use style="fill:#666666;stroke:#666666;" x="269.276935" xlink:href="#m3cfbb5b214" y="126.817457"/>
     <use style="fill:#666666;stroke:#666666;" x="270.362736" xlink:href="#m3cfbb5b214" y="120.93627"/>
     <use style="fill:#666666;stroke:#666666;" x="271.448538" xlink:href="#m3cfbb5b214" y="131.401821"/>
     <use style="fill:#666666;stroke:#666666;" x="272.534339" xlink:href="#m3cfbb5b214" y="137.872898"/>
     <use style="fill:#666666;stroke:#666666;" x="273.62014" xlink:href="#m3cfbb5b214" y="132.242309"/>
     <use style="fill:#666666;stroke:#666666;" x="274.705941" xlink:href="#m3cfbb5b214" y="125.379243"/>
     <use style="fill:#666666;stroke:#666666;" x="275.791742" xlink:href="#m3cfbb5b214" y="114.589354"/>
     <use style="fill:#666666;stroke:#666666;" x="276.877543" xlink:href="#m3cfbb5b214" y="112.760779"/>
     <use style="fill:#666666;stroke:#666666;" x="277.963344" xlink:href="#m3cfbb5b214" y="111.651084"/>
     <use style="fill:#666666;stroke:#666666;" x="279.049146" xlink:href="#m3cfbb5b214" y="106.690605"/>
     <use style="fill:#666666;stroke:#666666;" x="280.134947" xlink:href="#m3cfbb5b214" y="121.441925"/>
     <use style="fill:#666666;stroke:#666666;" x="281.220748" xlink:href="#m3cfbb5b214" y="108.711796"/>
     <use style="fill:#666666;stroke:#666666;" x="282.306549" xlink:href="#m3cfbb5b214" y="136.539652"/>
     <use style="fill:#666666;stroke:#666666;" x="283.39235" xlink:href="#m3cfbb5b214" y="139.318696"/>
     <use style="fill:#666666;stroke:#666666;" x="284.478151" xlink:href="#m3cfbb5b214" y="124.096593"/>
     <use style="fill:#666666;stroke:#666666;" x="285.563953" xlink:href="#m3cfbb5b214" y="127.213457"/>
     <use style="fill:#666666;stroke:#666666;" x="286.649754" xlink:href="#m3cfbb5b214" y="138.036985"/>
     <use style="fill:#666666;stroke:#666666;" x="287.735555" xlink:href="#m3cfbb5b214" y="128.209394"/>
     <use style="fill:#666666;stroke:#666666;" x="288.821356" xlink:href="#m3cfbb5b214" y="122.503414"/>
     <use style="fill:#666666;stroke:#666666;" x="289.907157" xlink:href="#m3cfbb5b214" y="120.540802"/>
     <use style="fill:#666666;stroke:#666666;" x="290.992958" xlink:href="#m3cfbb5b214" y="112.197808"/>
     <use style="fill:#666666;stroke:#666666;" x="292.07876" xlink:href="#m3cfbb5b214" y="118.939422"/>
     <use style="fill:#666666;stroke:#666666;" x="293.164561" xlink:href="#m3cfbb5b214" y="126.642557"/>
     <use style="fill:#666666;stroke:#666666;" x="294.250362" xlink:href="#m3cfbb5b214" y="124.867709"/>
     <use style="fill:#666666;stroke:#666666;" x="295.336163" xlink:href="#m3cfbb5b214" y="129.333431"/>
     <use style="fill:#666666;stroke:#666666;" x="296.421964" xlink:href="#m3cfbb5b214" y="124.673807"/>
     <use style="fill:#666666;stroke:#666666;" x="297.507765" xlink:href="#m3cfbb5b214" y="127.077418"/>
     <use style="fill:#666666;stroke:#666666;" x="298.593566" xlink:href="#m3cfbb5b214" y="116.823132"/>
     <use style="fill:#666666;stroke:#666666;" x="299.679368" xlink:href="#m3cfbb5b214" y="125.816521"/>
     <use style="fill:#666666;stroke:#666666;" x="300.765169" xlink:href="#m3cfbb5b214" y="116.03265"/>
     <use style="fill:#666666;stroke:#666666;" x="301.85097" xlink:href="#m3cfbb5b214" y="110.787031"/>
     <use style="fill:#666666;stroke:#666666;" x="302.936771" xlink:href="#m3cfbb5b214" y="112.297907"/>
     <use style="fill:#666666;stroke:#666666;" x="304.022572" xlink:href="#m3cfbb5b214" y="117.337474"/>
     <use style="fill:#666666;stroke:#666666;" x="305.108373" xlink:href="#m3cfbb5b214" y="108.981426"/>
     <use style="fill:#666666;stroke:#666666;" x="306.194175" xlink:href="#m3cfbb5b214" y="110.450729"/>
     <use style="fill:#666666;stroke:#666666;" x="307.279976" xlink:href="#m3cfbb5b214" y="116.131521"/>
     <use style="fill:#666666;stroke:#666666;" x="308.365777" xlink:href="#m3cfbb5b214" y="114.117291"/>
     <use style="fill:#666666;stroke:#666666;" x="309.451578" xlink:href="#m3cfbb5b214" y="127.879305"/>
     <use style="fill:#666666;stroke:#666666;" x="310.537379" xlink:href="#m3cfbb5b214" y="133.090462"/>
     <use style="fill:#666666;stroke:#666666;" x="311.62318" xlink:href="#m3cfbb5b214" y="135.973343"/>
     <use style="fill:#666666;stroke:#666666;" x="312.708981" xlink:href="#m3cfbb5b214" y="120.621452"/>
     <use style="fill:#666666;stroke:#666666;" x="313.794783" xlink:href="#m3cfbb5b214" y="143.999556"/>
     <use style="fill:#666666;stroke:#666666;" x="314.880584" xlink:href="#m3cfbb5b214" y="131.963506"/>
     <use style="fill:#666666;stroke:#666666;" x="315.966385" xlink:href="#m3cfbb5b214" y="130.342274"/>
     <use style="fill:#666666;stroke:#666666;" x="317.052186" xlink:href="#m3cfbb5b214" y="108.454298"/>
     <use style="fill:#666666;stroke:#666666;" x="318.137987" xlink:href="#m3cfbb5b214" y="106.598546"/>
     <use style="fill:#666666;stroke:#666666;" x="319.223788" xlink:href="#m3cfbb5b214" y="111.73462"/>
     <use style="fill:#666666;stroke:#666666;" x="320.30959" xlink:href="#m3cfbb5b214" y="133.811502"/>
     <use style="fill:#666666;stroke:#666666;" x="321.395391" xlink:href="#m3cfbb5b214" y="115.864662"/>
     <use style="fill:#666666;stroke:#666666;" x="322.481192" xlink:href="#m3cfbb5b214" y="119.411285"/>
     <use style="fill:#666666;stroke:#666666;" x="323.566993" xlink:href="#m3cfbb5b214" y="118.210862"/>
     <use style="fill:#666666;stroke:#666666;" x="324.652794" xlink:href="#m3cfbb5b214" y="111.611688"/>
     <use style="fill:#666666;stroke:#666666;" x="325.738595" xlink:href="#m3cfbb5b214" y="126.062587"/>
     <use style="fill:#666666;stroke:#666666;" x="326.824396" xlink:href="#m3cfbb5b214" y="127.520566"/>
     <use style="fill:#666666;stroke:#666666;" x="327.910198" xlink:href="#m3cfbb5b214" y="121.915495"/>
     <use style="fill:#666666;stroke:#666666;" x="328.995999" xlink:href="#m3cfbb5b214" y="96.744936"/>
     <use style="fill:#666666;stroke:#666666;" x="330.0818" xlink:href="#m3cfbb5b214" y="111.733255"/>
     <use style="fill:#666666;stroke:#666666;" x="331.167601" xlink:href="#m3cfbb5b214" y="114.246742"/>
     <use style="fill:#666666;stroke:#666666;" x="332.253402" xlink:href="#m3cfbb5b214" y="107.16105"/>
     <use style="fill:#666666;stroke:#666666;" x="333.339203" xlink:href="#m3cfbb5b214" y="122.51054"/>
     <use style="fill:#666666;stroke:#666666;" x="334.425005" xlink:href="#m3cfbb5b214" y="121.105704"/>
     <use style="fill:#666666;stroke:#666666;" x="335.510806" xlink:href="#m3cfbb5b214" y="111.601016"/>
     <use style="fill:#666666;stroke:#666666;" x="336.596607" xlink:href="#m3cfbb5b214" y="118.692768"/>
     <use style="fill:#666666;stroke:#666666;" x="337.682408" xlink:href="#m3cfbb5b214" y="131.463931"/>
     <use style="fill:#666666;stroke:#666666;" x="338.768209" xlink:href="#m3cfbb5b214" y="115.456228"/>
     <use style="fill:#666666;stroke:#666666;" x="339.85401" xlink:href="#m3cfbb5b214" y="115.923356"/>
     <use style="fill:#666666;stroke:#666666;" x="340.939811" xlink:href="#m3cfbb5b214" y="130.419501"/>
     <use style="fill:#666666;stroke:#666666;" x="342.025613" xlink:href="#m3cfbb5b214" y="124.785294"/>
     <use style="fill:#666666;stroke:#666666;" x="343.111414" xlink:href="#m3cfbb5b214" y="126.352563"/>
     <use style="fill:#666666;stroke:#666666;" x="344.197215" xlink:href="#m3cfbb5b214" y="125.008501"/>
     <use style="fill:#666666;stroke:#666666;" x="345.283016" xlink:href="#m3cfbb5b214" y="125.456061"/>
     <use style="fill:#666666;stroke:#666666;" x="346.368817" xlink:href="#m3cfbb5b214" y="132.987842"/>
     <use style="fill:#666666;stroke:#666666;" x="347.454618" xlink:href="#m3cfbb5b214" y="111.049995"/>
     <use style="fill:#666666;stroke:#666666;" x="348.54042" xlink:href="#m3cfbb5b214" y="114.363057"/>
     <use style="fill:#666666;stroke:#666666;" x="349.626221" xlink:href="#m3cfbb5b214" y="114.902883"/>
     <use style="fill:#666666;stroke:#666666;" x="350.712022" xlink:href="#m3cfbb5b214" y="121.846717"/>
     <use style="fill:#666666;stroke:#666666;" x="351.797823" xlink:href="#m3cfbb5b214" y="120.220298"/>
     <use style="fill:#666666;stroke:#666666;" x="352.883624" xlink:href="#m3cfbb5b214" y="115.23622"/>
     <use style="fill:#666666;stroke:#666666;" x="353.969425" xlink:href="#m3cfbb5b214" y="114.891014"/>
     <use style="fill:#666666;stroke:#666666;" x="355.055227" xlink:href="#m3cfbb5b214" y="115.738619"/>
     <use style="fill:#666666;stroke:#666666;" x="356.141028" xlink:href="#m3cfbb5b214" y="113.583951"/>
     <use style="fill:#666666;stroke:#666666;" x="357.226829" xlink:href="#m3cfbb5b214" y="119.346249"/>
     <use style="fill:#666666;stroke:#666666;" x="358.31263" xlink:href="#m3cfbb5b214" y="105.654964"/>
     <use style="fill:#666666;stroke:#666666;" x="359.398431" xlink:href="#m3cfbb5b214" y="124.436977"/>
     <use style="fill:#666666;stroke:#666666;" x="360.484232" xlink:href="#m3cfbb5b214" y="118.908772"/>
     <use style="fill:#666666;stroke:#666666;" x="361.570033" xlink:href="#m3cfbb5b214" y="110.144288"/>
     <use style="fill:#666666;stroke:#666666;" x="362.655835" xlink:href="#m3cfbb5b214" y="116.129314"/>
     <use style="fill:#666666;stroke:#666666;" x="363.741636" xlink:href="#m3cfbb5b214" y="114.289222"/>
     <use style="fill:#666666;stroke:#666666;" x="364.827437" xlink:href="#m3cfbb5b214" y="116.06256"/>
     <use style="fill:#666666;stroke:#666666;" x="365.913238" xlink:href="#m3cfbb5b214" y="125.927868"/>
     <use style="fill:#666666;stroke:#666666;" x="366.999039" xlink:href="#m3cfbb5b214" y="127.095813"/>
     <use style="fill:#666666;stroke:#666666;" x="368.08484" xlink:href="#m3cfbb5b214" y="132.206164"/>
     <use style="fill:#666666;stroke:#666666;" x="369.170642" xlink:href="#m3cfbb5b214" y="125.853431"/>
     <use style="fill:#666666;stroke:#666666;" x="370.256443" xlink:href="#m3cfbb5b214" y="110.087053"/>
     <use style="fill:#666666;stroke:#666666;" x="371.342244" xlink:href="#m3cfbb5b214" y="104.455373"/>
     <use style="fill:#666666;stroke:#666666;" x="372.428045" xlink:href="#m3cfbb5b214" y="132.5664"/>
     <use style="fill:#666666;stroke:#666666;" x="373.513846" xlink:href="#m3cfbb5b214" y="119.792712"/>
     <use style="fill:#666666;stroke:#666666;" x="374.599647" xlink:href="#m3cfbb5b214" y="117.462195"/>
     <use style="fill:#666666;stroke:#666666;" x="375.685448" xlink:href="#m3cfbb5b214" y="113.316263"/>
     <use style="fill:#666666;stroke:#666666;" x="376.77125" xlink:href="#m3cfbb5b214" y="104.249876"/>
     <use style="fill:#666666;stroke:#666666;" x="377.857051" xlink:href="#m3cfbb5b214" y="119.241769"/>
     <use style="fill:#666666;stroke:#666666;" x="378.942852" xlink:href="#m3cfbb5b214" y="115.507511"/>
     <use style="fill:#666666;stroke:#666666;" x="380.028653" xlink:href="#m3cfbb5b214" y="121.675514"/>
     <use style="fill:#666666;stroke:#666666;" x="381.114454" xlink:href="#m3cfbb5b214" y="117.78892"/>
     <use style="fill:#666666;stroke:#666666;" x="382.200255" xlink:href="#m3cfbb5b214" y="108.882267"/>
     <use style="fill:#666666;stroke:#666666;" x="383.286057" xlink:href="#m3cfbb5b214" y="132.504222"/>
     <use style="fill:#666666;stroke:#666666;" x="384.371858" xlink:href="#m3cfbb5b214" y="122.996261"/>
     <use style="fill:#666666;stroke:#666666;" x="385.457659" xlink:href="#m3cfbb5b214" y="136.628442"/>
     <use style="fill:#666666;stroke:#666666;" x="386.54346" xlink:href="#m3cfbb5b214" y="136.491578"/>
     <use style="fill:#666666;stroke:#666666;" x="387.629261" xlink:href="#m3cfbb5b214" y="122.207504"/>
     <use style="fill:#666666;stroke:#666666;" x="388.715062" xlink:href="#m3cfbb5b214" y="122.784125"/>
     <use style="fill:#666666;stroke:#666666;" x="389.800863" xlink:href="#m3cfbb5b214" y="124.106445"/>
     <use style="fill:#666666;stroke:#666666;" x="390.886665" xlink:href="#m3cfbb5b214" y="133.629872"/>
     <use style="fill:#666666;stroke:#666666;" x="391.972466" xlink:href="#m3cfbb5b214" y="135.907204"/>
     <use style="fill:#666666;stroke:#666666;" x="393.058267" xlink:href="#m3cfbb5b214" y="130.558032"/>
     <use style="fill:#666666;stroke:#666666;" x="394.144068" xlink:href="#m3cfbb5b214" y="140.561385"/>
     <use style="fill:#666666;stroke:#666666;" x="395.229869" xlink:href="#m3cfbb5b214" y="149.304492"/>
     <use style="fill:#666666;stroke:#666666;" x="396.31567" xlink:href="#m3cfbb5b214" y="153.477131"/>
     <use style="fill:#666666;stroke:#666666;" x="397.401472" xlink:href="#m3cfbb5b214" y="138.336812"/>
     <use style="fill:#666666;stroke:#666666;" x="398.487273" xlink:href="#m3cfbb5b214" y="141.462372"/>
    </g>
   </g>
   <g id="patch_3">
    <path d="M 57.6 307.584 
L 57.6 41.472 
" style="fill:none;stroke:#000000;stroke-linecap:square;stroke-linejoin:miter;stroke-width:0.8;"/>
   </g>
   <g id="patch_4">
    <path d="M 414.72 307.584 
L 414.72 41.472 
" style="fill:none;stroke:#000000;stroke-linecap:square;stroke-linejoin:miter;stroke-width:0.8;"/>
   </g>
   <g id="patch_5">
    <path d="M 57.6 307.584 
L 414.72 307.584 
" style="fill:none;stroke:#000000;stroke-linecap:square;stroke-linejoin:miter;stroke-width:0.8;"/>
   </g>
   <g id="patch_6">
    <path d="M 57.6 41.472 
L 414.72 41.472 
" style="fill:none;stroke:#000000;stroke-linecap:square;stroke-linejoin:miter;stroke-width:0.8;"/>
   </g>
  </g>
 </g>
 <defs>
  <clipPath id="p5b8df3b480">
   <rect height="266.112" width="357.12" x="57.6" y="41.472"/>
  </clipPath>
 </defs>
</svg>
