<?xml version="1.0" encoding="utf-8" standalone="no"?>
<!DOCTYPE svg PUBLIC "-//W3C//DTD SVG 1.1//EN"
  "http://www.w3.org/Graphics/SVG/1.1/DTD/svg11.dtd">
<!-- Created with matplotlib (http://matplotlib.org/) -->
<svg height="345.6pt" version="1.1" viewBox="0 0 460.8 345.6" width="460.8pt" xmlns="http://www.w3.org/2000/svg" xmlns:xlink="http://www.w3.org/1999/xlink">
 <defs>
  <style type="text/css">
*{stroke-linecap:butt;stroke-linejoin:round;}
  </style>
 </defs>
 <g id="figure_1">
  <g id="patch_1">
   <path d="M 0 345.6 
L 460.8 345.6 
L 460.8 0 
L 0 0 
z
" style="fill:#ffffff;"/>
  </g>
  <g id="axes_1">
   <g id="patch_2">
    <path d="M 38.27 287.71 
L 447.48 287.71 
L 447.48 14.267016 
L 38.27 14.267016 
z
" style="fill:#ffffff;"/>
   </g>
   <g id="matplotlib.axis_1">
    <g id="xtick_1">
     <g id="line2d_1">
      <defs>
       <path d="M 0 0 
L 0 3.5 
" id="m1cc55b48ec" style="stroke:#000000;stroke-width:0.8;"/>
      </defs>
      <g>
       <use style="stroke:#000000;stroke-width:0.8;" x="38.27" xlink:href="#m1cc55b48ec" y="287.71"/>
      </g>
     </g>
     <g id="text_1">
      <!-- A1 -->
      <defs>
       <path d="M 34.1875 63.1875 
L 20.796875 26.90625 
L 47.609375 26.90625 
z
M 28.609375 72.90625 
L 39.796875 72.90625 
L 67.578125 0 
L 57.328125 0 
L 50.6875 18.703125 
L 17.828125 18.703125 
L 11.1875 0 
L 0.78125 0 
z
" id="DejaVuSans-41"/>
       <path d="M 12.40625 8.296875 
L 28.515625 8.296875 
L 28.515625 63.921875 
L 10.984375 60.40625 
L 10.984375 69.390625 
L 28.421875 72.90625 
L 38.28125 72.90625 
L 38.28125 8.296875 
L 54.390625 8.296875 
L 54.390625 0 
L 12.40625 0 
z
" id="DejaVuSans-31"/>
      </defs>
      <g transform="translate(41.029375 307.913125)rotate(-90)scale(0.1 -0.1)">
       <use xlink:href="#DejaVuSans-41"/>
       <use x="68.408203" xlink:href="#DejaVuSans-31"/>
      </g>
     </g>
    </g>
    <g id="xtick_2">
     <g id="line2d_2">
      <g>
       <use style="stroke:#000000;stroke-width:0.8;" x="58.353926" xlink:href="#m1cc55b48ec" y="287.71"/>
      </g>
     </g>
     <g id="text_2">
      <!-- A9 -->
      <defs>
       <path d="M 10.984375 1.515625 
L 10.984375 10.5 
Q 14.703125 8.734375 18.5 7.8125 
Q 22.3125 6.890625 25.984375 6.890625 
Q 35.75 6.890625 40.890625 13.453125 
Q 46.046875 20.015625 46.78125 33.40625 
Q 43.953125 29.203125 39.59375 26.953125 
Q 35.25 24.703125 29.984375 24.703125 
Q 19.046875 24.703125 12.671875 31.3125 
Q 6.296875 37.9375 6.296875 49.421875 
Q 6.296875 60.640625 12.9375 67.421875 
Q 19.578125 74.21875 30.609375 74.21875 
Q 43.265625 74.21875 49.921875 64.515625 
Q 56.59375 54.828125 56.59375 36.375 
Q 56.59375 19.140625 48.40625 8.859375 
Q 40.234375 -1.421875 26.421875 -1.421875 
Q 22.703125 -1.421875 18.890625 -0.6875 
Q 15.09375 0.046875 10.984375 1.515625 
z
M 30.609375 32.421875 
Q 37.25 32.421875 41.125 36.953125 
Q 45.015625 41.5 45.015625 49.421875 
Q 45.015625 57.28125 41.125 61.84375 
Q 37.25 66.40625 30.609375 66.40625 
Q 23.96875 66.40625 20.09375 61.84375 
Q 16.21875 57.28125 16.21875 49.421875 
Q 16.21875 41.5 20.09375 36.953125 
Q 23.96875 32.421875 30.609375 32.421875 
z
" id="DejaVuSans-39"/>
      </defs>
      <g transform="translate(61.113301 307.913125)rotate(-90)scale(0.1 -0.1)">
       <use xlink:href="#DejaVuSans-41"/>
       <use x="68.408203" xlink:href="#DejaVuSans-39"/>
      </g>
     </g>
    </g>
    <g id="xtick_3">
     <g id="line2d_3">
      <g>
       <use style="stroke:#000000;stroke-width:0.8;" x="78.437853" xlink:href="#m1cc55b48ec" y="287.71"/>
      </g>
     </g>
     <g id="text_3">
      <!-- A17 -->
      <defs>
       <path d="M 8.203125 72.90625 
L 55.078125 72.90625 
L 55.078125 68.703125 
L 28.609375 0 
L 18.3125 0 
L 43.21875 64.59375 
L 8.203125 64.59375 
z
" id="DejaVuSans-37"/>
      </defs>
      <g transform="translate(81.197228 314.275625)rotate(-90)scale(0.1 -0.1)">
       <use xlink:href="#DejaVuSans-41"/>
       <use x="68.408203" xlink:href="#DejaVuSans-31"/>
       <use x="132.03125" xlink:href="#DejaVuSans-37"/>
      </g>
     </g>
    </g>
    <g id="xtick_4">
     <g id="line2d_4">
      <g>
       <use style="stroke:#000000;stroke-width:0.8;" x="98.521779" xlink:href="#m1cc55b48ec" y="287.71"/>
      </g>
     </g>
     <g id="text_4">
      <!-- A25 -->
      <defs>
       <path d="M 19.1875 8.296875 
L 53.609375 8.296875 
L 53.609375 0 
L 7.328125 0 
L 7.328125 8.296875 
Q 12.9375 14.109375 22.625 23.890625 
Q 32.328125 33.6875 34.8125 36.53125 
Q 39.546875 41.84375 41.421875 45.53125 
Q 43.3125 49.21875 43.3125 52.78125 
Q 43.3125 58.59375 39.234375 62.25 
Q 35.15625 65.921875 28.609375 65.921875 
Q 23.96875 65.921875 18.8125 64.3125 
Q 13.671875 62.703125 7.8125 59.421875 
L 7.8125 69.390625 
Q 13.765625 71.78125 18.9375 73 
Q 24.125 74.21875 28.421875 74.21875 
Q 39.75 74.21875 46.484375 68.546875 
Q 53.21875 62.890625 53.21875 53.421875 
Q 53.21875 48.921875 51.53125 44.890625 
Q 49.859375 40.875 45.40625 35.40625 
Q 44.1875 33.984375 37.640625 27.21875 
Q 31.109375 20.453125 19.1875 8.296875 
z
" id="DejaVuSans-32"/>
       <path d="M 10.796875 72.90625 
L 49.515625 72.90625 
L 49.515625 64.59375 
L 19.828125 64.59375 
L 19.828125 46.734375 
Q 21.96875 47.46875 24.109375 47.828125 
Q 26.265625 48.1875 28.421875 48.1875 
Q 40.625 48.1875 47.75 41.5 
Q 54.890625 34.8125 54.890625 23.390625 
Q 54.890625 11.625 47.5625 5.09375 
Q 40.234375 -1.421875 26.90625 -1.421875 
Q 22.3125 -1.421875 17.546875 -0.640625 
Q 12.796875 0.140625 7.71875 1.703125 
L 7.71875 11.625 
Q 12.109375 9.234375 16.796875 8.0625 
Q 21.484375 6.890625 26.703125 6.890625 
Q 35.15625 6.890625 40.078125 11.328125 
Q 45.015625 15.765625 45.015625 23.390625 
Q 45.015625 31 40.078125 35.4375 
Q 35.15625 39.890625 26.703125 39.890625 
Q 22.75 39.890625 18.8125 39.015625 
Q 14.890625 38.140625 10.796875 36.28125 
z
" id="DejaVuSans-35"/>
      </defs>
      <g transform="translate(101.281154 314.275625)rotate(-90)scale(0.1 -0.1)">
       <use xlink:href="#DejaVuSans-41"/>
       <use x="68.408203" xlink:href="#DejaVuSans-32"/>
       <use x="132.03125" xlink:href="#DejaVuSans-35"/>
      </g>
     </g>
    </g>
    <g id="xtick_5">
     <g id="line2d_5">
      <g>
       <use style="stroke:#000000;stroke-width:0.8;" x="118.605706" xlink:href="#m1cc55b48ec" y="287.71"/>
      </g>
     </g>
     <g id="text_5">
      <!-- A33 -->
      <defs>
       <path d="M 40.578125 39.3125 
Q 47.65625 37.796875 51.625 33 
Q 55.609375 28.21875 55.609375 21.1875 
Q 55.609375 10.40625 48.1875 4.484375 
Q 40.765625 -1.421875 27.09375 -1.421875 
Q 22.515625 -1.421875 17.65625 -0.515625 
Q 12.796875 0.390625 7.625 2.203125 
L 7.625 11.71875 
Q 11.71875 9.328125 16.59375 8.109375 
Q 21.484375 6.890625 26.8125 6.890625 
Q 36.078125 6.890625 40.9375 10.546875 
Q 45.796875 14.203125 45.796875 21.1875 
Q 45.796875 27.640625 41.28125 31.265625 
Q 36.765625 34.90625 28.71875 34.90625 
L 20.21875 34.90625 
L 20.21875 43.015625 
L 29.109375 43.015625 
Q 36.375 43.015625 40.234375 45.921875 
Q 44.09375 48.828125 44.09375 54.296875 
Q 44.09375 59.90625 40.109375 62.90625 
Q 36.140625 65.921875 28.71875 65.921875 
Q 24.65625 65.921875 20.015625 65.03125 
Q 15.375 64.15625 9.8125 62.3125 
L 9.8125 71.09375 
Q 15.4375 72.65625 20.34375 73.4375 
Q 25.25 74.21875 29.59375 74.21875 
Q 40.828125 74.21875 47.359375 69.109375 
Q 53.90625 64.015625 53.90625 55.328125 
Q 53.90625 49.265625 50.4375 45.09375 
Q 46.96875 40.921875 40.578125 39.3125 
z
" id="DejaVuSans-33"/>
      </defs>
      <g transform="translate(121.365081 314.275625)rotate(-90)scale(0.1 -0.1)">
       <use xlink:href="#DejaVuSans-41"/>
       <use x="68.408203" xlink:href="#DejaVuSans-33"/>
       <use x="132.03125" xlink:href="#DejaVuSans-33"/>
      </g>
     </g>
    </g>
    <g id="xtick_6">
     <g id="line2d_6">
      <g>
       <use style="stroke:#000000;stroke-width:0.8;" x="138.689632" xlink:href="#m1cc55b48ec" y="287.71"/>
      </g>
     </g>
     <g id="text_6">
      <!-- A41 -->
      <defs>
       <path d="M 37.796875 64.3125 
L 12.890625 25.390625 
L 37.796875 25.390625 
z
M 35.203125 72.90625 
L 47.609375 72.90625 
L 47.609375 25.390625 
L 58.015625 25.390625 
L 58.015625 17.1875 
L 47.609375 17.1875 
L 47.609375 0 
L 37.796875 0 
L 37.796875 17.1875 
L 4.890625 17.1875 
L 4.890625 26.703125 
z
" id="DejaVuSans-34"/>
      </defs>
      <g transform="translate(141.449007 314.275625)rotate(-90)scale(0.1 -0.1)">
       <use xlink:href="#DejaVuSans-41"/>
       <use x="68.408203" xlink:href="#DejaVuSans-34"/>
       <use x="132.03125" xlink:href="#DejaVuSans-31"/>
      </g>
     </g>
    </g>
    <g id="xtick_7">
     <g id="line2d_7">
      <g>
       <use style="stroke:#000000;stroke-width:0.8;" x="158.773558" xlink:href="#m1cc55b48ec" y="287.71"/>
      </g>
     </g>
     <g id="text_7">
      <!-- A49 -->
      <g transform="translate(161.532933 314.275625)rotate(-90)scale(0.1 -0.1)">
       <use xlink:href="#DejaVuSans-41"/>
       <use x="68.408203" xlink:href="#DejaVuSans-34"/>
       <use x="132.03125" xlink:href="#DejaVuSans-39"/>
      </g>
     </g>
    </g>
    <g id="xtick_8">
     <g id="line2d_8">
      <g>
       <use style="stroke:#000000;stroke-width:0.8;" x="178.857485" xlink:href="#m1cc55b48ec" y="287.71"/>
      </g>
     </g>
     <g id="text_8">
      <!-- A57 -->
      <g transform="translate(181.61686 314.275625)rotate(-90)scale(0.1 -0.1)">
       <use xlink:href="#DejaVuSans-41"/>
       <use x="68.408203" xlink:href="#DejaVuSans-35"/>
       <use x="132.03125" xlink:href="#DejaVuSans-37"/>
      </g>
     </g>
    </g>
    <g id="xtick_9">
     <g id="line2d_9">
      <g>
       <use style="stroke:#000000;stroke-width:0.8;" x="198.941411" xlink:href="#m1cc55b48ec" y="287.71"/>
      </g>
     </g>
     <g id="text_9">
      <!-- A65 -->
      <defs>
       <path d="M 33.015625 40.375 
Q 26.375 40.375 22.484375 35.828125 
Q 18.609375 31.296875 18.609375 23.390625 
Q 18.609375 15.53125 22.484375 10.953125 
Q 26.375 6.390625 33.015625 6.390625 
Q 39.65625 6.390625 43.53125 10.953125 
Q 47.40625 15.53125 47.40625 23.390625 
Q 47.40625 31.296875 43.53125 35.828125 
Q 39.65625 40.375 33.015625 40.375 
z
M 52.59375 71.296875 
L 52.59375 62.3125 
Q 48.875 64.0625 45.09375 64.984375 
Q 41.3125 65.921875 37.59375 65.921875 
Q 27.828125 65.921875 22.671875 59.328125 
Q 17.53125 52.734375 16.796875 39.40625 
Q 19.671875 43.65625 24.015625 45.921875 
Q 28.375 48.1875 33.59375 48.1875 
Q 44.578125 48.1875 50.953125 41.515625 
Q 57.328125 34.859375 57.328125 23.390625 
Q 57.328125 12.15625 50.6875 5.359375 
Q 44.046875 -1.421875 33.015625 -1.421875 
Q 20.359375 -1.421875 13.671875 8.265625 
Q 6.984375 17.96875 6.984375 36.375 
Q 6.984375 53.65625 15.1875 63.9375 
Q 23.390625 74.21875 37.203125 74.21875 
Q 40.921875 74.21875 44.703125 73.484375 
Q 48.484375 72.75 52.59375 71.296875 
z
" id="DejaVuSans-36"/>
      </defs>
      <g transform="translate(201.700786 314.275625)rotate(-90)scale(0.1 -0.1)">
       <use xlink:href="#DejaVuSans-41"/>
       <use x="68.408203" xlink:href="#DejaVuSans-36"/>
       <use x="132.03125" xlink:href="#DejaVuSans-35"/>
      </g>
     </g>
    </g>
    <g id="xtick_10">
     <g id="line2d_10">
      <g>
       <use style="stroke:#000000;stroke-width:0.8;" x="219.025337" xlink:href="#m1cc55b48ec" y="287.71"/>
      </g>
     </g>
     <g id="text_10">
      <!-- A73 -->
      <g transform="translate(221.784712 314.275625)rotate(-90)scale(0.1 -0.1)">
       <use xlink:href="#DejaVuSans-41"/>
       <use x="68.408203" xlink:href="#DejaVuSans-37"/>
       <use x="132.03125" xlink:href="#DejaVuSans-33"/>
      </g>
     </g>
    </g>
    <g id="xtick_11">
     <g id="line2d_11">
      <g>
       <use style="stroke:#000000;stroke-width:0.8;" x="239.109264" xlink:href="#m1cc55b48ec" y="287.71"/>
      </g>
     </g>
     <g id="text_11">
      <!-- A81 -->
      <defs>
       <path d="M 31.78125 34.625 
Q 24.75 34.625 20.71875 30.859375 
Q 16.703125 27.09375 16.703125 20.515625 
Q 16.703125 13.921875 20.71875 10.15625 
Q 24.75 6.390625 31.78125 6.390625 
Q 38.8125 6.390625 42.859375 10.171875 
Q 46.921875 13.96875 46.921875 20.515625 
Q 46.921875 27.09375 42.890625 30.859375 
Q 38.875 34.625 31.78125 34.625 
z
M 21.921875 38.8125 
Q 15.578125 40.375 12.03125 44.71875 
Q 8.5 49.078125 8.5 55.328125 
Q 8.5 64.0625 14.71875 69.140625 
Q 20.953125 74.21875 31.78125 74.21875 
Q 42.671875 74.21875 48.875 69.140625 
Q 55.078125 64.0625 55.078125 55.328125 
Q 55.078125 49.078125 51.53125 44.71875 
Q 48 40.375 41.703125 38.8125 
Q 48.828125 37.15625 52.796875 32.3125 
Q 56.78125 27.484375 56.78125 20.515625 
Q 56.78125 9.90625 50.3125 4.234375 
Q 43.84375 -1.421875 31.78125 -1.421875 
Q 19.734375 -1.421875 13.25 4.234375 
Q 6.78125 9.90625 6.78125 20.515625 
Q 6.78125 27.484375 10.78125 32.3125 
Q 14.796875 37.15625 21.921875 38.8125 
z
M 18.3125 54.390625 
Q 18.3125 48.734375 21.84375 45.5625 
Q 25.390625 42.390625 31.78125 42.390625 
Q 38.140625 42.390625 41.71875 45.5625 
Q 45.3125 48.734375 45.3125 54.390625 
Q 45.3125 60.0625 41.71875 63.234375 
Q 38.140625 66.40625 31.78125 66.40625 
Q 25.390625 66.40625 21.84375 63.234375 
Q 18.3125 60.0625 18.3125 54.390625 
z
" id="DejaVuSans-38"/>
      </defs>
      <g transform="translate(241.868639 314.275625)rotate(-90)scale(0.1 -0.1)">
       <use xlink:href="#DejaVuSans-41"/>
       <use x="68.408203" xlink:href="#DejaVuSans-38"/>
       <use x="132.03125" xlink:href="#DejaVuSans-31"/>
      </g>
     </g>
    </g>
    <g id="xtick_12">
     <g id="line2d_12">
      <g>
       <use style="stroke:#000000;stroke-width:0.8;" x="259.19319" xlink:href="#m1cc55b48ec" y="287.71"/>
      </g>
     </g>
     <g id="text_12">
      <!-- A89 -->
      <g transform="translate(261.952565 314.275625)rotate(-90)scale(0.1 -0.1)">
       <use xlink:href="#DejaVuSans-41"/>
       <use x="68.408203" xlink:href="#DejaVuSans-38"/>
       <use x="132.03125" xlink:href="#DejaVuSans-39"/>
      </g>
     </g>
    </g>
    <g id="xtick_13">
     <g id="line2d_13">
      <g>
       <use style="stroke:#000000;stroke-width:0.8;" x="279.277117" xlink:href="#m1cc55b48ec" y="287.71"/>
      </g>
     </g>
     <g id="text_13">
      <!-- A97 -->
      <g transform="translate(282.036492 314.275625)rotate(-90)scale(0.1 -0.1)">
       <use xlink:href="#DejaVuSans-41"/>
       <use x="68.408203" xlink:href="#DejaVuSans-39"/>
       <use x="132.03125" xlink:href="#DejaVuSans-37"/>
      </g>
     </g>
    </g>
    <g id="xtick_14">
     <g id="line2d_14">
      <g>
       <use style="stroke:#000000;stroke-width:0.8;" x="299.361043" xlink:href="#m1cc55b48ec" y="287.71"/>
      </g>
     </g>
     <g id="text_14">
      <!-- A105 -->
      <defs>
       <path d="M 31.78125 66.40625 
Q 24.171875 66.40625 20.328125 58.90625 
Q 16.5 51.421875 16.5 36.375 
Q 16.5 21.390625 20.328125 13.890625 
Q 24.171875 6.390625 31.78125 6.390625 
Q 39.453125 6.390625 43.28125 13.890625 
Q 47.125 21.390625 47.125 36.375 
Q 47.125 51.421875 43.28125 58.90625 
Q 39.453125 66.40625 31.78125 66.40625 
z
M 31.78125 74.21875 
Q 44.046875 74.21875 50.515625 64.515625 
Q 56.984375 54.828125 56.984375 36.375 
Q 56.984375 17.96875 50.515625 8.265625 
Q 44.046875 -1.421875 31.78125 -1.421875 
Q 19.53125 -1.421875 13.0625 8.265625 
Q 6.59375 17.96875 6.59375 36.375 
Q 6.59375 54.828125 13.0625 64.515625 
Q 19.53125 74.21875 31.78125 74.21875 
z
" id="DejaVuSans-30"/>
      </defs>
      <g transform="translate(302.120418 320.638125)rotate(-90)scale(0.1 -0.1)">
       <use xlink:href="#DejaVuSans-41"/>
       <use x="68.408203" xlink:href="#DejaVuSans-31"/>
       <use x="132.03125" xlink:href="#DejaVuSans-30"/>
       <use x="195.654297" xlink:href="#DejaVuSans-35"/>
      </g>
     </g>
    </g>
    <g id="xtick_15">
     <g id="line2d_15">
      <g>
       <use style="stroke:#000000;stroke-width:0.8;" x="319.444969" xlink:href="#m1cc55b48ec" y="287.71"/>
      </g>
     </g>
     <g id="text_15">
      <!-- A113 -->
      <g transform="translate(322.204344 320.638125)rotate(-90)scale(0.1 -0.1)">
       <use xlink:href="#DejaVuSans-41"/>
       <use x="68.408203" xlink:href="#DejaVuSans-31"/>
       <use x="132.03125" xlink:href="#DejaVuSans-31"/>
       <use x="195.654297" xlink:href="#DejaVuSans-33"/>
      </g>
     </g>
    </g>
    <g id="xtick_16">
     <g id="line2d_16">
      <g>
       <use style="stroke:#000000;stroke-width:0.8;" x="339.528896" xlink:href="#m1cc55b48ec" y="287.71"/>
      </g>
     </g>
     <g id="text_16">
      <!-- A121 -->
      <g transform="translate(342.288271 320.638125)rotate(-90)scale(0.1 -0.1)">
       <use xlink:href="#DejaVuSans-41"/>
       <use x="68.408203" xlink:href="#DejaVuSans-31"/>
       <use x="132.03125" xlink:href="#DejaVuSans-32"/>
       <use x="195.654297" xlink:href="#DejaVuSans-31"/>
      </g>
     </g>
    </g>
    <g id="xtick_17">
     <g id="line2d_17">
      <g>
       <use style="stroke:#000000;stroke-width:0.8;" x="359.612822" xlink:href="#m1cc55b48ec" y="287.71"/>
      </g>
     </g>
     <g id="text_17">
      <!-- A129 -->
      <g transform="translate(362.372197 320.638125)rotate(-90)scale(0.1 -0.1)">
       <use xlink:href="#DejaVuSans-41"/>
       <use x="68.408203" xlink:href="#DejaVuSans-31"/>
       <use x="132.03125" xlink:href="#DejaVuSans-32"/>
       <use x="195.654297" xlink:href="#DejaVuSans-39"/>
      </g>
     </g>
    </g>
    <g id="xtick_18">
     <g id="line2d_18">
      <g>
       <use style="stroke:#000000;stroke-width:0.8;" x="379.696748" xlink:href="#m1cc55b48ec" y="287.71"/>
      </g>
     </g>
     <g id="text_18">
      <!-- A137 -->
      <g transform="translate(382.456123 320.638125)rotate(-90)scale(0.1 -0.1)">
       <use xlink:href="#DejaVuSans-41"/>
       <use x="68.408203" xlink:href="#DejaVuSans-31"/>
       <use x="132.03125" xlink:href="#DejaVuSans-33"/>
       <use x="195.654297" xlink:href="#DejaVuSans-37"/>
      </g>
     </g>
    </g>
    <g id="xtick_19">
     <g id="line2d_19">
      <g>
       <use style="stroke:#000000;stroke-width:0.8;" x="399.780675" xlink:href="#m1cc55b48ec" y="287.71"/>
      </g>
     </g>
     <g id="text_19">
      <!-- A145 -->
      <g transform="translate(402.54005 320.638125)rotate(-90)scale(0.1 -0.1)">
       <use xlink:href="#DejaVuSans-41"/>
       <use x="68.408203" xlink:href="#DejaVuSans-31"/>
       <use x="132.03125" xlink:href="#DejaVuSans-34"/>
       <use x="195.654297" xlink:href="#DejaVuSans-35"/>
      </g>
     </g>
    </g>
    <g id="xtick_20">
     <g id="line2d_20">
      <g>
       <use style="stroke:#000000;stroke-width:0.8;" x="419.864601" xlink:href="#m1cc55b48ec" y="287.71"/>
      </g>
     </g>
     <g id="text_20">
      <!-- A153 -->
      <g transform="translate(422.623976 320.638125)rotate(-90)scale(0.1 -0.1)">
       <use xlink:href="#DejaVuSans-41"/>
       <use x="68.408203" xlink:href="#DejaVuSans-31"/>
       <use x="132.03125" xlink:href="#DejaVuSans-35"/>
       <use x="195.654297" xlink:href="#DejaVuSans-33"/>
      </g>
     </g>
    </g>
    <g id="xtick_21">
     <g id="line2d_21">
      <g>
       <use style="stroke:#000000;stroke-width:0.8;" x="439.948528" xlink:href="#m1cc55b48ec" y="287.71"/>
      </g>
     </g>
     <g id="text_21">
      <!-- A161 -->
      <g transform="translate(442.707903 320.638125)rotate(-90)scale(0.1 -0.1)">
       <use xlink:href="#DejaVuSans-41"/>
       <use x="68.408203" xlink:href="#DejaVuSans-31"/>
       <use x="132.03125" xlink:href="#DejaVuSans-36"/>
       <use x="195.654297" xlink:href="#DejaVuSans-31"/>
      </g>
     </g>
    </g>
    <g id="text_22">
     <!-- Residue index -->
     <defs>
      <path d="M 44.390625 34.1875 
Q 47.5625 33.109375 50.5625 29.59375 
Q 53.5625 26.078125 56.59375 19.921875 
L 66.609375 0 
L 56 0 
L 46.6875 18.703125 
Q 43.0625 26.03125 39.671875 28.421875 
Q 36.28125 30.8125 30.421875 30.8125 
L 19.671875 30.8125 
L 19.671875 0 
L 9.8125 0 
L 9.8125 72.90625 
L 32.078125 72.90625 
Q 44.578125 72.90625 50.734375 67.671875 
Q 56.890625 62.453125 56.890625 51.90625 
Q 56.890625 45.015625 53.6875 40.46875 
Q 50.484375 35.9375 44.390625 34.1875 
z
M 19.671875 64.796875 
L 19.671875 38.921875 
L 32.078125 38.921875 
Q 39.203125 38.921875 42.84375 42.21875 
Q 46.484375 45.515625 46.484375 51.90625 
Q 46.484375 58.296875 42.84375 61.546875 
Q 39.203125 64.796875 32.078125 64.796875 
z
" id="DejaVuSans-52"/>
      <path d="M 56.203125 29.59375 
L 56.203125 25.203125 
L 14.890625 25.203125 
Q 15.484375 15.921875 20.484375 11.0625 
Q 25.484375 6.203125 34.421875 6.203125 
Q 39.59375 6.203125 44.453125 7.46875 
Q 49.3125 8.734375 54.109375 11.28125 
L 54.109375 2.78125 
Q 49.265625 0.734375 44.1875 -0.34375 
Q 39.109375 -1.421875 33.890625 -1.421875 
Q 20.796875 -1.421875 13.15625 6.1875 
Q 5.515625 13.8125 5.515625 26.8125 
Q 5.515625 40.234375 12.765625 48.109375 
Q 20.015625 56 32.328125 56 
Q 43.359375 56 49.78125 48.890625 
Q 56.203125 41.796875 56.203125 29.59375 
z
M 47.21875 32.234375 
Q 47.125 39.59375 43.09375 43.984375 
Q 39.0625 48.390625 32.421875 48.390625 
Q 24.90625 48.390625 20.390625 44.140625 
Q 15.875 39.890625 15.1875 32.171875 
z
" id="DejaVuSans-65"/>
      <path d="M 44.28125 53.078125 
L 44.28125 44.578125 
Q 40.484375 46.53125 36.375 47.5 
Q 32.28125 48.484375 27.875 48.484375 
Q 21.1875 48.484375 17.84375 46.4375 
Q 14.5 44.390625 14.5 40.28125 
Q 14.5 37.15625 16.890625 35.375 
Q 19.28125 33.59375 26.515625 31.984375 
L 29.59375 31.296875 
Q 39.15625 29.25 43.1875 25.515625 
Q 47.21875 21.78125 47.21875 15.09375 
Q 47.21875 7.46875 41.1875 3.015625 
Q 35.15625 -1.421875 24.609375 -1.421875 
Q 20.21875 -1.421875 15.453125 -0.5625 
Q 10.6875 0.296875 5.421875 2 
L 5.421875 11.28125 
Q 10.40625 8.6875 15.234375 7.390625 
Q 20.0625 6.109375 24.8125 6.109375 
Q 31.15625 6.109375 34.5625 8.28125 
Q 37.984375 10.453125 37.984375 14.40625 
Q 37.984375 18.0625 35.515625 20.015625 
Q 33.0625 21.96875 24.703125 23.78125 
L 21.578125 24.515625 
Q 13.234375 26.265625 9.515625 29.90625 
Q 5.8125 33.546875 5.8125 39.890625 
Q 5.8125 47.609375 11.28125 51.796875 
Q 16.75 56 26.8125 56 
Q 31.78125 56 36.171875 55.265625 
Q 40.578125 54.546875 44.28125 53.078125 
z
" id="DejaVuSans-73"/>
      <path d="M 9.421875 54.6875 
L 18.40625 54.6875 
L 18.40625 0 
L 9.421875 0 
z
M 9.421875 75.984375 
L 18.40625 75.984375 
L 18.40625 64.59375 
L 9.421875 64.59375 
z
" id="DejaVuSans-69"/>
      <path d="M 45.40625 46.390625 
L 45.40625 75.984375 
L 54.390625 75.984375 
L 54.390625 0 
L 45.40625 0 
L 45.40625 8.203125 
Q 42.578125 3.328125 38.25 0.953125 
Q 33.9375 -1.421875 27.875 -1.421875 
Q 17.96875 -1.421875 11.734375 6.484375 
Q 5.515625 14.40625 5.515625 27.296875 
Q 5.515625 40.1875 11.734375 48.09375 
Q 17.96875 56 27.875 56 
Q 33.9375 56 38.25 53.625 
Q 42.578125 51.265625 45.40625 46.390625 
z
M 14.796875 27.296875 
Q 14.796875 17.390625 18.875 11.75 
Q 22.953125 6.109375 30.078125 6.109375 
Q 37.203125 6.109375 41.296875 11.75 
Q 45.40625 17.390625 45.40625 27.296875 
Q 45.40625 37.203125 41.296875 42.84375 
Q 37.203125 48.484375 30.078125 48.484375 
Q 22.953125 48.484375 18.875 42.84375 
Q 14.796875 37.203125 14.796875 27.296875 
z
" id="DejaVuSans-64"/>
      <path d="M 8.5 21.578125 
L 8.5 54.6875 
L 17.484375 54.6875 
L 17.484375 21.921875 
Q 17.484375 14.15625 20.5 10.265625 
Q 23.53125 6.390625 29.59375 6.390625 
Q 36.859375 6.390625 41.078125 11.03125 
Q 45.3125 15.671875 45.3125 23.6875 
L 45.3125 54.6875 
L 54.296875 54.6875 
L 54.296875 0 
L 45.3125 0 
L 45.3125 8.40625 
Q 42.046875 3.421875 37.71875 1 
Q 33.40625 -1.421875 27.6875 -1.421875 
Q 18.265625 -1.421875 13.375 4.4375 
Q 8.5 10.296875 8.5 21.578125 
z
M 31.109375 56 
z
" id="DejaVuSans-75"/>
      <path id="DejaVuSans-20"/>
      <path d="M 54.890625 33.015625 
L 54.890625 0 
L 45.90625 0 
L 45.90625 32.71875 
Q 45.90625 40.484375 42.875 44.328125 
Q 39.84375 48.1875 33.796875 48.1875 
Q 26.515625 48.1875 22.3125 43.546875 
Q 18.109375 38.921875 18.109375 30.90625 
L 18.109375 0 
L 9.078125 0 
L 9.078125 54.6875 
L 18.109375 54.6875 
L 18.109375 46.1875 
Q 21.34375 51.125 25.703125 53.5625 
Q 30.078125 56 35.796875 56 
Q 45.21875 56 50.046875 50.171875 
Q 54.890625 44.34375 54.890625 33.015625 
z
" id="DejaVuSans-6e"/>
      <path d="M 54.890625 54.6875 
L 35.109375 28.078125 
L 55.90625 0 
L 45.3125 0 
L 29.390625 21.484375 
L 13.484375 0 
L 2.875 0 
L 24.125 28.609375 
L 4.6875 54.6875 
L 15.28125 54.6875 
L 29.78125 35.203125 
L 44.28125 54.6875 
z
" id="DejaVuSans-78"/>
     </defs>
     <g transform="translate(207.557813 332.236562)scale(0.1 -0.1)">
      <use xlink:href="#DejaVuSans-52"/>
      <use x="69.419922" xlink:href="#DejaVuSans-65"/>
      <use x="130.943359" xlink:href="#DejaVuSans-73"/>
      <use x="183.042969" xlink:href="#DejaVuSans-69"/>
      <use x="210.826172" xlink:href="#DejaVuSans-64"/>
      <use x="274.302734" xlink:href="#DejaVuSans-75"/>
      <use x="337.681641" xlink:href="#DejaVuSans-65"/>
      <use x="399.205078" xlink:href="#DejaVuSans-20"/>
      <use x="430.992188" xlink:href="#DejaVuSans-69"/>
      <use x="458.775391" xlink:href="#DejaVuSans-6e"/>
      <use x="522.154297" xlink:href="#DejaVuSans-64"/>
      <use x="585.630859" xlink:href="#DejaVuSans-65"/>
      <use x="647.138672" xlink:href="#DejaVuSans-78"/>
     </g>
    </g>
   </g>
   <g id="matplotlib.axis_2">
    <g id="ytick_1">
     <g id="line2d_22">
      <defs>
       <path d="M 0 0 
L -3.5 0 
" id="m092bbe6d73" style="stroke:#000000;stroke-width:0.8;"/>
      </defs>
      <g>
       <use style="stroke:#000000;stroke-width:0.8;" x="38.27" xlink:href="#m092bbe6d73" y="234.921784"/>
      </g>
     </g>
     <g id="text_23">
      <!-- 1 -->
      <g transform="translate(24.9075 238.721003)scale(0.1 -0.1)">
       <use xlink:href="#DejaVuSans-31"/>
      </g>
     </g>
    </g>
    <g id="ytick_2">
     <g id="line2d_23">
      <g>
       <use style="stroke:#000000;stroke-width:0.8;" x="38.27" xlink:href="#m092bbe6d73" y="179.884733"/>
      </g>
     </g>
     <g id="text_24">
      <!-- 2 -->
      <g transform="translate(24.9075 183.683952)scale(0.1 -0.1)">
       <use xlink:href="#DejaVuSans-32"/>
      </g>
     </g>
    </g>
    <g id="ytick_3">
     <g id="line2d_24">
      <g>
       <use style="stroke:#000000;stroke-width:0.8;" x="38.27" xlink:href="#m092bbe6d73" y="124.847683"/>
      </g>
     </g>
     <g id="text_25">
      <!-- 3 -->
      <g transform="translate(24.9075 128.646901)scale(0.1 -0.1)">
       <use xlink:href="#DejaVuSans-33"/>
      </g>
     </g>
    </g>
    <g id="ytick_4">
     <g id="line2d_25">
      <g>
       <use style="stroke:#000000;stroke-width:0.8;" x="38.27" xlink:href="#m092bbe6d73" y="69.810632"/>
      </g>
     </g>
     <g id="text_26">
      <!-- 4 -->
      <g transform="translate(24.9075 73.609851)scale(0.1 -0.1)">
       <use xlink:href="#DejaVuSans-34"/>
      </g>
     </g>
    </g>
    <g id="ytick_5">
     <g id="line2d_26">
      <g>
       <use style="stroke:#000000;stroke-width:0.8;" x="38.27" xlink:href="#m092bbe6d73" y="14.773581"/>
      </g>
     </g>
     <g id="text_27">
      <!-- 5 -->
      <g transform="translate(24.9075 18.5728)scale(0.1 -0.1)">
       <use xlink:href="#DejaVuSans-35"/>
      </g>
     </g>
    </g>
    <g id="text_28">
     <!-- RMSF -->
     <defs>
      <path d="M 9.8125 72.90625 
L 24.515625 72.90625 
L 43.109375 23.296875 
L 61.8125 72.90625 
L 76.515625 72.90625 
L 76.515625 0 
L 66.890625 0 
L 66.890625 64.015625 
L 48.09375 14.015625 
L 38.1875 14.015625 
L 19.390625 64.015625 
L 19.390625 0 
L 9.8125 0 
z
" id="DejaVuSans-4d"/>
      <path d="M 53.515625 70.515625 
L 53.515625 60.890625 
Q 47.90625 63.578125 42.921875 64.890625 
Q 37.9375 66.21875 33.296875 66.21875 
Q 25.25 66.21875 20.875 63.09375 
Q 16.5 59.96875 16.5 54.203125 
Q 16.5 49.359375 19.40625 46.890625 
Q 22.3125 44.4375 30.421875 42.921875 
L 36.375 41.703125 
Q 47.40625 39.59375 52.65625 34.296875 
Q 57.90625 29 57.90625 20.125 
Q 57.90625 9.515625 50.796875 4.046875 
Q 43.703125 -1.421875 29.984375 -1.421875 
Q 24.8125 -1.421875 18.96875 -0.25 
Q 13.140625 0.921875 6.890625 3.21875 
L 6.890625 13.375 
Q 12.890625 10.015625 18.65625 8.296875 
Q 24.421875 6.59375 29.984375 6.59375 
Q 38.421875 6.59375 43.015625 9.90625 
Q 47.609375 13.234375 47.609375 19.390625 
Q 47.609375 24.75 44.3125 27.78125 
Q 41.015625 30.8125 33.5 32.328125 
L 27.484375 33.5 
Q 16.453125 35.6875 11.515625 40.375 
Q 6.59375 45.0625 6.59375 53.421875 
Q 6.59375 63.09375 13.40625 68.65625 
Q 20.21875 74.21875 32.171875 74.21875 
Q 37.3125 74.21875 42.625 73.28125 
Q 47.953125 72.359375 53.515625 70.515625 
z
" id="DejaVuSans-53"/>
      <path d="M 9.8125 72.90625 
L 51.703125 72.90625 
L 51.703125 64.59375 
L 19.671875 64.59375 
L 19.671875 43.109375 
L 48.578125 43.109375 
L 48.578125 34.8125 
L 19.671875 34.8125 
L 19.671875 0 
L 9.8125 0 
z
" id="DejaVuSans-46"/>
     </defs>
     <g transform="translate(18.827813 164.826789)rotate(-90)scale(0.1 -0.1)">
      <use xlink:href="#DejaVuSans-52"/>
      <use x="69.482422" xlink:href="#DejaVuSans-4d"/>
      <use x="155.761719" xlink:href="#DejaVuSans-53"/>
      <use x="219.238281" xlink:href="#DejaVuSans-46"/>
     </g>
    </g>
   </g>
   <g id="line2d_27">
    <path clip-path="url(#p70f5901aed)" d="M 38.27 74.366791 
L 40.780491 175.954801 
L 43.290982 205.336367 
L 45.801472 257.933594 
L 48.311963 262.956651 
L 50.822454 262.584854 
L 53.332945 271.070076 
L 55.843436 271.653861 
L 58.353926 273.089246 
L 60.864417 273.331454 
L 63.374908 273.04096 
L 65.885399 275.280773 
L 68.39589 260.380906 
L 70.90638 240.86626 
L 73.416871 142.040699 
L 75.927362 147.517382 
L 78.437853 185.316474 
L 80.948344 228.105902 
L 83.458834 239.317023 
L 85.969325 248.828853 
L 88.479816 257.635807 
L 90.990307 255.904567 
L 93.500798 270.603411 
L 96.011288 271.160802 
L 98.521779 272.499265 
L 101.03227 268.017352 
L 103.542761 271.539694 
L 106.053252 256.830072 
L 108.563742 253.106811 
L 111.074233 257.475245 
L 113.584724 260.277293 
L 116.095215 266.418646 
L 118.605706 266.904623 
L 121.116196 269.049041 
L 123.626687 270.491884 
L 126.137178 266.902683 
L 128.647669 246.765964 
L 131.15816 234.614148 
L 133.66865 223.745425 
L 136.179141 158.846568 
L 138.689632 108.88647 
L 141.200123 178.204132 
L 143.710613 223.186778 
L 146.221104 240.369254 
L 148.731595 244.836077 
L 151.242086 247.379869 
L 156.263067 254.482073 
L 158.773558 250.756103 
L 161.284049 251.278328 
L 163.79454 259.815394 
L 166.305031 243.371331 
L 168.815521 243.708712 
L 171.326012 238.074445 
L 173.836503 251.532641 
L 176.346994 250.507055 
L 178.857485 219.679965 
L 181.367975 235.910852 
L 183.878466 246.201179 
L 186.388957 248.705623 
L 188.899448 244.691517 
L 191.409939 252.423974 
L 193.920429 235.465769 
L 196.43092 252.793717 
L 198.941411 230.303794 
L 201.451902 231.424775 
L 203.962393 235.133663 
L 206.472883 236.406007 
L 208.983374 232.963573 
L 211.493865 203.130732 
L 214.004356 241.575985 
L 216.514847 250.526031 
L 219.025337 242.827912 
L 221.535828 228.463011 
L 224.046319 177.357583 
L 226.55681 174.737796 
L 229.067301 152.085402 
L 231.577791 114.844268 
L 234.088282 137.935234 
L 236.598773 175.437907 
L 239.109264 204.779474 
L 241.619755 214.70449 
L 244.130245 215.607827 
L 246.640736 241.137547 
L 249.151227 248.255988 
L 251.661718 234.43749 
L 254.172209 250.116442 
L 256.682699 251.267076 
L 259.19319 244.25309 
L 261.703681 256.95779 
L 264.214172 266.522758 
L 266.724663 267.002807 
L 269.235153 264.047716 
L 271.745644 264.658804 
L 274.256135 268.711993 
L 276.766626 262.277274 
L 279.277117 269.57875 
L 281.787607 264.141118 
L 284.298098 267.846894 
L 286.808589 264.865949 
L 289.31908 262.580409 
L 291.829571 234.644924 
L 294.340061 221.09266 
L 296.850552 239.409762 
L 299.361043 251.104461 
L 301.871534 264.840926 
L 304.382025 256.451522 
L 306.892515 266.706275 
L 309.403006 270.198868 
L 311.913497 261.454925 
L 314.423988 255.633838 
L 316.934479 263.420534 
L 319.444969 253.201743 
L 321.95546 257.008671 
L 324.465951 265.715215 
L 326.976442 268.657002 
L 329.486933 259.28245 
L 331.997423 261.222811 
L 334.507914 268.973183 
L 337.018405 268.684694 
L 339.528896 259.375431 
L 342.039387 264.310391 
L 344.549877 256.914635 
L 347.060368 261.184429 
L 349.570859 254.26461 
L 352.08135 255.317591 
L 354.59184 249.653668 
L 357.102331 226.732281 
L 359.612822 102.009184 
L 362.123313 104.367182 
L 367.144294 127.643493 
L 369.654785 103.066564 
L 374.675767 171.388722 
L 377.186258 220.291931 
L 379.696748 208.416163 
L 382.207239 229.515959 
L 384.71773 234.695824 
L 387.228221 248.335427 
L 389.738712 246.395175 
L 392.249202 238.044061 
L 394.759693 230.765988 
L 397.270184 204.946816 
L 399.780675 171.156055 
L 402.291166 196.256443 
L 404.801656 224.906858 
L 407.312147 234.152321 
L 409.822638 237.036577 
L 412.333129 234.927778 
L 414.84362 217.340737 
L 417.35411 205.06879 
L 419.864601 142.347345 
L 422.375092 114.44181 
L 424.885583 178.137425 
L 427.396074 190.597565 
L 429.906564 188.084983 
L 432.417055 226.610587 
L 434.927546 230.771091 
L 437.438037 250.71352 
L 439.948528 247.218315 
L 442.459018 233.142569 
L 444.969509 183.576072 
L 447.48 26.696242 
L 447.48 26.696242 
" style="fill:none;stroke:#666666;stroke-dasharray:1,1.65;stroke-dashoffset:0;"/>
    <defs>
     <path d="M 0 0.5 
C 0.132602 0.5 0.25979 0.447317 0.353553 0.353553 
C 0.447317 0.25979 0.5 0.132602 0.5 0 
C 0.5 -0.132602 0.447317 -0.25979 0.353553 -0.353553 
C 0.25979 -0.447317 0.132602 -0.5 0 -0.5 
C -0.132602 -0.5 -0.25979 -0.447317 -0.353553 -0.353553 
C -0.447317 -0.25979 -0.5 -0.132602 -0.5 0 
C -0.5 0.132602 -0.447317 0.25979 -0.353553 0.353553 
C -0.25979 0.447317 -0.132602 0.5 0 0.5 
z
" id="mdb54c8b71a" style="stroke:#666666;"/>
    </defs>
    <g clip-path="url(#p70f5901aed)">
     <use style="fill:#666666;stroke:#666666;" x="38.27" xlink:href="#mdb54c8b71a" y="74.366791"/>
     <use style="fill:#666666;stroke:#666666;" x="40.780491" xlink:href="#mdb54c8b71a" y="175.954801"/>
     <use style="fill:#666666;stroke:#666666;" x="43.290982" xlink:href="#mdb54c8b71a" y="205.336367"/>
     <use style="fill:#666666;stroke:#666666;" x="45.801472" xlink:href="#mdb54c8b71a" y="257.933594"/>
     <use style="fill:#666666;stroke:#666666;" x="48.311963" xlink:href="#mdb54c8b71a" y="262.956651"/>
     <use style="fill:#666666;stroke:#666666;" x="50.822454" xlink:href="#mdb54c8b71a" y="262.584854"/>
     <use style="fill:#666666;stroke:#666666;" x="53.332945" xlink:href="#mdb54c8b71a" y="271.070076"/>
     <use style="fill:#666666;stroke:#666666;" x="55.843436" xlink:href="#mdb54c8b71a" y="271.653861"/>
     <use style="fill:#666666;stroke:#666666;" x="58.353926" xlink:href="#mdb54c8b71a" y="273.089246"/>
     <use style="fill:#666666;stroke:#666666;" x="60.864417" xlink:href="#mdb54c8b71a" y="273.331454"/>
     <use style="fill:#666666;stroke:#666666;" x="63.374908" xlink:href="#mdb54c8b71a" y="273.04096"/>
     <use style="fill:#666666;stroke:#666666;" x="65.885399" xlink:href="#mdb54c8b71a" y="275.280773"/>
     <use style="fill:#666666;stroke:#666666;" x="68.39589" xlink:href="#mdb54c8b71a" y="260.380906"/>
     <use style="fill:#666666;stroke:#666666;" x="70.90638" xlink:href="#mdb54c8b71a" y="240.86626"/>
     <use style="fill:#666666;stroke:#666666;" x="73.416871" xlink:href="#mdb54c8b71a" y="142.040699"/>
     <use style="fill:#666666;stroke:#666666;" x="75.927362" xlink:href="#mdb54c8b71a" y="147.517382"/>
     <use style="fill:#666666;stroke:#666666;" x="78.437853" xlink:href="#mdb54c8b71a" y="185.316474"/>
     <use style="fill:#666666;stroke:#666666;" x="80.948344" xlink:href="#mdb54c8b71a" y="228.105902"/>
     <use style="fill:#666666;stroke:#666666;" x="83.458834" xlink:href="#mdb54c8b71a" y="239.317023"/>
     <use style="fill:#666666;stroke:#666666;" x="85.969325" xlink:href="#mdb54c8b71a" y="248.828853"/>
     <use style="fill:#666666;stroke:#666666;" x="88.479816" xlink:href="#mdb54c8b71a" y="257.635807"/>
     <use style="fill:#666666;stroke:#666666;" x="90.990307" xlink:href="#mdb54c8b71a" y="255.904567"/>
     <use style="fill:#666666;stroke:#666666;" x="93.500798" xlink:href="#mdb54c8b71a" y="270.603411"/>
     <use style="fill:#666666;stroke:#666666;" x="96.011288" xlink:href="#mdb54c8b71a" y="271.160802"/>
     <use style="fill:#666666;stroke:#666666;" x="98.521779" xlink:href="#mdb54c8b71a" y="272.499265"/>
     <use style="fill:#666666;stroke:#666666;" x="101.03227" xlink:href="#mdb54c8b71a" y="268.017352"/>
     <use style="fill:#666666;stroke:#666666;" x="103.542761" xlink:href="#mdb54c8b71a" y="271.539694"/>
     <use style="fill:#666666;stroke:#666666;" x="106.053252" xlink:href="#mdb54c8b71a" y="256.830072"/>
     <use style="fill:#666666;stroke:#666666;" x="108.563742" xlink:href="#mdb54c8b71a" y="253.106811"/>
     <use style="fill:#666666;stroke:#666666;" x="111.074233" xlink:href="#mdb54c8b71a" y="257.475245"/>
     <use style="fill:#666666;stroke:#666666;" x="113.584724" xlink:href="#mdb54c8b71a" y="260.277293"/>
     <use style="fill:#666666;stroke:#666666;" x="116.095215" xlink:href="#mdb54c8b71a" y="266.418646"/>
     <use style="fill:#666666;stroke:#666666;" x="118.605706" xlink:href="#mdb54c8b71a" y="266.904623"/>
     <use style="fill:#666666;stroke:#666666;" x="121.116196" xlink:href="#mdb54c8b71a" y="269.049041"/>
     <use style="fill:#666666;stroke:#666666;" x="123.626687" xlink:href="#mdb54c8b71a" y="270.491884"/>
     <use style="fill:#666666;stroke:#666666;" x="126.137178" xlink:href="#mdb54c8b71a" y="266.902683"/>
     <use style="fill:#666666;stroke:#666666;" x="128.647669" xlink:href="#mdb54c8b71a" y="246.765964"/>
     <use style="fill:#666666;stroke:#666666;" x="131.15816" xlink:href="#mdb54c8b71a" y="234.614148"/>
     <use style="fill:#666666;stroke:#666666;" x="133.66865" xlink:href="#mdb54c8b71a" y="223.745425"/>
     <use style="fill:#666666;stroke:#666666;" x="136.179141" xlink:href="#mdb54c8b71a" y="158.846568"/>
     <use style="fill:#666666;stroke:#666666;" x="138.689632" xlink:href="#mdb54c8b71a" y="108.88647"/>
     <use style="fill:#666666;stroke:#666666;" x="141.200123" xlink:href="#mdb54c8b71a" y="178.204132"/>
     <use style="fill:#666666;stroke:#666666;" x="143.710613" xlink:href="#mdb54c8b71a" y="223.186778"/>
     <use style="fill:#666666;stroke:#666666;" x="146.221104" xlink:href="#mdb54c8b71a" y="240.369254"/>
     <use style="fill:#666666;stroke:#666666;" x="148.731595" xlink:href="#mdb54c8b71a" y="244.836077"/>
     <use style="fill:#666666;stroke:#666666;" x="151.242086" xlink:href="#mdb54c8b71a" y="247.379869"/>
     <use style="fill:#666666;stroke:#666666;" x="153.752577" xlink:href="#mdb54c8b71a" y="250.888474"/>
     <use style="fill:#666666;stroke:#666666;" x="156.263067" xlink:href="#mdb54c8b71a" y="254.482073"/>
     <use style="fill:#666666;stroke:#666666;" x="158.773558" xlink:href="#mdb54c8b71a" y="250.756103"/>
     <use style="fill:#666666;stroke:#666666;" x="161.284049" xlink:href="#mdb54c8b71a" y="251.278328"/>
     <use style="fill:#666666;stroke:#666666;" x="163.79454" xlink:href="#mdb54c8b71a" y="259.815394"/>
     <use style="fill:#666666;stroke:#666666;" x="166.305031" xlink:href="#mdb54c8b71a" y="243.371331"/>
     <use style="fill:#666666;stroke:#666666;" x="168.815521" xlink:href="#mdb54c8b71a" y="243.708712"/>
     <use style="fill:#666666;stroke:#666666;" x="171.326012" xlink:href="#mdb54c8b71a" y="238.074445"/>
     <use style="fill:#666666;stroke:#666666;" x="173.836503" xlink:href="#mdb54c8b71a" y="251.532641"/>
     <use style="fill:#666666;stroke:#666666;" x="176.346994" xlink:href="#mdb54c8b71a" y="250.507055"/>
     <use style="fill:#666666;stroke:#666666;" x="178.857485" xlink:href="#mdb54c8b71a" y="219.679965"/>
     <use style="fill:#666666;stroke:#666666;" x="181.367975" xlink:href="#mdb54c8b71a" y="235.910852"/>
     <use style="fill:#666666;stroke:#666666;" x="183.878466" xlink:href="#mdb54c8b71a" y="246.201179"/>
     <use style="fill:#666666;stroke:#666666;" x="186.388957" xlink:href="#mdb54c8b71a" y="248.705623"/>
     <use style="fill:#666666;stroke:#666666;" x="188.899448" xlink:href="#mdb54c8b71a" y="244.691517"/>
     <use style="fill:#666666;stroke:#666666;" x="191.409939" xlink:href="#mdb54c8b71a" y="252.423974"/>
     <use style="fill:#666666;stroke:#666666;" x="193.920429" xlink:href="#mdb54c8b71a" y="235.465769"/>
     <use style="fill:#666666;stroke:#666666;" x="196.43092" xlink:href="#mdb54c8b71a" y="252.793717"/>
     <use style="fill:#666666;stroke:#666666;" x="198.941411" xlink:href="#mdb54c8b71a" y="230.303794"/>
     <use style="fill:#666666;stroke:#666666;" x="201.451902" xlink:href="#mdb54c8b71a" y="231.424775"/>
     <use style="fill:#666666;stroke:#666666;" x="203.962393" xlink:href="#mdb54c8b71a" y="235.133663"/>
     <use style="fill:#666666;stroke:#666666;" x="206.472883" xlink:href="#mdb54c8b71a" y="236.406007"/>
     <use style="fill:#666666;stroke:#666666;" x="208.983374" xlink:href="#mdb54c8b71a" y="232.963573"/>
     <use style="fill:#666666;stroke:#666666;" x="211.493865" xlink:href="#mdb54c8b71a" y="203.130732"/>
     <use style="fill:#666666;stroke:#666666;" x="214.004356" xlink:href="#mdb54c8b71a" y="241.575985"/>
     <use style="fill:#666666;stroke:#666666;" x="216.514847" xlink:href="#mdb54c8b71a" y="250.526031"/>
     <use style="fill:#666666;stroke:#666666;" x="219.025337" xlink:href="#mdb54c8b71a" y="242.827912"/>
     <use style="fill:#666666;stroke:#666666;" x="221.535828" xlink:href="#mdb54c8b71a" y="228.463011"/>
     <use style="fill:#666666;stroke:#666666;" x="224.046319" xlink:href="#mdb54c8b71a" y="177.357583"/>
     <use style="fill:#666666;stroke:#666666;" x="226.55681" xlink:href="#mdb54c8b71a" y="174.737796"/>
     <use style="fill:#666666;stroke:#666666;" x="229.067301" xlink:href="#mdb54c8b71a" y="152.085402"/>
     <use style="fill:#666666;stroke:#666666;" x="231.577791" xlink:href="#mdb54c8b71a" y="114.844268"/>
     <use style="fill:#666666;stroke:#666666;" x="234.088282" xlink:href="#mdb54c8b71a" y="137.935234"/>
     <use style="fill:#666666;stroke:#666666;" x="236.598773" xlink:href="#mdb54c8b71a" y="175.437907"/>
     <use style="fill:#666666;stroke:#666666;" x="239.109264" xlink:href="#mdb54c8b71a" y="204.779474"/>
     <use style="fill:#666666;stroke:#666666;" x="241.619755" xlink:href="#mdb54c8b71a" y="214.70449"/>
     <use style="fill:#666666;stroke:#666666;" x="244.130245" xlink:href="#mdb54c8b71a" y="215.607827"/>
     <use style="fill:#666666;stroke:#666666;" x="246.640736" xlink:href="#mdb54c8b71a" y="241.137547"/>
     <use style="fill:#666666;stroke:#666666;" x="249.151227" xlink:href="#mdb54c8b71a" y="248.255988"/>
     <use style="fill:#666666;stroke:#666666;" x="251.661718" xlink:href="#mdb54c8b71a" y="234.43749"/>
     <use style="fill:#666666;stroke:#666666;" x="254.172209" xlink:href="#mdb54c8b71a" y="250.116442"/>
     <use style="fill:#666666;stroke:#666666;" x="256.682699" xlink:href="#mdb54c8b71a" y="251.267076"/>
     <use style="fill:#666666;stroke:#666666;" x="259.19319" xlink:href="#mdb54c8b71a" y="244.25309"/>
     <use style="fill:#666666;stroke:#666666;" x="261.703681" xlink:href="#mdb54c8b71a" y="256.95779"/>
     <use style="fill:#666666;stroke:#666666;" x="264.214172" xlink:href="#mdb54c8b71a" y="266.522758"/>
     <use style="fill:#666666;stroke:#666666;" x="266.724663" xlink:href="#mdb54c8b71a" y="267.002807"/>
     <use style="fill:#666666;stroke:#666666;" x="269.235153" xlink:href="#mdb54c8b71a" y="264.047716"/>
     <use style="fill:#666666;stroke:#666666;" x="271.745644" xlink:href="#mdb54c8b71a" y="264.658804"/>
     <use style="fill:#666666;stroke:#666666;" x="274.256135" xlink:href="#mdb54c8b71a" y="268.711993"/>
     <use style="fill:#666666;stroke:#666666;" x="276.766626" xlink:href="#mdb54c8b71a" y="262.277274"/>
     <use style="fill:#666666;stroke:#666666;" x="279.277117" xlink:href="#mdb54c8b71a" y="269.57875"/>
     <use style="fill:#666666;stroke:#666666;" x="281.787607" xlink:href="#mdb54c8b71a" y="264.141118"/>
     <use style="fill:#666666;stroke:#666666;" x="284.298098" xlink:href="#mdb54c8b71a" y="267.846894"/>
     <use style="fill:#666666;stroke:#666666;" x="286.808589" xlink:href="#mdb54c8b71a" y="264.865949"/>
     <use style="fill:#666666;stroke:#666666;" x="289.31908" xlink:href="#mdb54c8b71a" y="262.580409"/>
     <use style="fill:#666666;stroke:#666666;" x="291.829571" xlink:href="#mdb54c8b71a" y="234.644924"/>
     <use style="fill:#666666;stroke:#666666;" x="294.340061" xlink:href="#mdb54c8b71a" y="221.09266"/>
     <use style="fill:#666666;stroke:#666666;" x="296.850552" xlink:href="#mdb54c8b71a" y="239.409762"/>
     <use style="fill:#666666;stroke:#666666;" x="299.361043" xlink:href="#mdb54c8b71a" y="251.104461"/>
     <use style="fill:#666666;stroke:#666666;" x="301.871534" xlink:href="#mdb54c8b71a" y="264.840926"/>
     <use style="fill:#666666;stroke:#666666;" x="304.382025" xlink:href="#mdb54c8b71a" y="256.451522"/>
     <use style="fill:#666666;stroke:#666666;" x="306.892515" xlink:href="#mdb54c8b71a" y="266.706275"/>
     <use style="fill:#666666;stroke:#666666;" x="309.403006" xlink:href="#mdb54c8b71a" y="270.198868"/>
     <use style="fill:#666666;stroke:#666666;" x="311.913497" xlink:href="#mdb54c8b71a" y="261.454925"/>
     <use style="fill:#666666;stroke:#666666;" x="314.423988" xlink:href="#mdb54c8b71a" y="255.633838"/>
     <use style="fill:#666666;stroke:#666666;" x="316.934479" xlink:href="#mdb54c8b71a" y="263.420534"/>
     <use style="fill:#666666;stroke:#666666;" x="319.444969" xlink:href="#mdb54c8b71a" y="253.201743"/>
     <use style="fill:#666666;stroke:#666666;" x="321.95546" xlink:href="#mdb54c8b71a" y="257.008671"/>
     <use style="fill:#666666;stroke:#666666;" x="324.465951" xlink:href="#mdb54c8b71a" y="265.715215"/>
     <use style="fill:#666666;stroke:#666666;" x="326.976442" xlink:href="#mdb54c8b71a" y="268.657002"/>
     <use style="fill:#666666;stroke:#666666;" x="329.486933" xlink:href="#mdb54c8b71a" y="259.28245"/>
     <use style="fill:#666666;stroke:#666666;" x="331.997423" xlink:href="#mdb54c8b71a" y="261.222811"/>
     <use style="fill:#666666;stroke:#666666;" x="334.507914" xlink:href="#mdb54c8b71a" y="268.973183"/>
     <use style="fill:#666666;stroke:#666666;" x="337.018405" xlink:href="#mdb54c8b71a" y="268.684694"/>
     <use style="fill:#666666;stroke:#666666;" x="339.528896" xlink:href="#mdb54c8b71a" y="259.375431"/>
     <use style="fill:#666666;stroke:#666666;" x="342.039387" xlink:href="#mdb54c8b71a" y="264.310391"/>
     <use style="fill:#666666;stroke:#666666;" x="344.549877" xlink:href="#mdb54c8b71a" y="256.914635"/>
     <use style="fill:#666666;stroke:#666666;" x="347.060368" xlink:href="#mdb54c8b71a" y="261.184429"/>
     <use style="fill:#666666;stroke:#666666;" x="349.570859" xlink:href="#mdb54c8b71a" y="254.26461"/>
     <use style="fill:#666666;stroke:#666666;" x="352.08135" xlink:href="#mdb54c8b71a" y="255.317591"/>
     <use style="fill:#666666;stroke:#666666;" x="354.59184" xlink:href="#mdb54c8b71a" y="249.653668"/>
     <use style="fill:#666666;stroke:#666666;" x="357.102331" xlink:href="#mdb54c8b71a" y="226.732281"/>
     <use style="fill:#666666;stroke:#666666;" x="359.612822" xlink:href="#mdb54c8b71a" y="102.009184"/>
     <use style="fill:#666666;stroke:#666666;" x="362.123313" xlink:href="#mdb54c8b71a" y="104.367182"/>
     <use style="fill:#666666;stroke:#666666;" x="364.633804" xlink:href="#mdb54c8b71a" y="116.205089"/>
     <use style="fill:#666666;stroke:#666666;" x="367.144294" xlink:href="#mdb54c8b71a" y="127.643493"/>
     <use style="fill:#666666;stroke:#666666;" x="369.654785" xlink:href="#mdb54c8b71a" y="103.066564"/>
     <use style="fill:#666666;stroke:#666666;" x="372.165276" xlink:href="#mdb54c8b71a" y="136.952393"/>
     <use style="fill:#666666;stroke:#666666;" x="374.675767" xlink:href="#mdb54c8b71a" y="171.388722"/>
     <use style="fill:#666666;stroke:#666666;" x="377.186258" xlink:href="#mdb54c8b71a" y="220.291931"/>
     <use style="fill:#666666;stroke:#666666;" x="379.696748" xlink:href="#mdb54c8b71a" y="208.416163"/>
     <use style="fill:#666666;stroke:#666666;" x="382.207239" xlink:href="#mdb54c8b71a" y="229.515959"/>
     <use style="fill:#666666;stroke:#666666;" x="384.71773" xlink:href="#mdb54c8b71a" y="234.695824"/>
     <use style="fill:#666666;stroke:#666666;" x="387.228221" xlink:href="#mdb54c8b71a" y="248.335427"/>
     <use style="fill:#666666;stroke:#666666;" x="389.738712" xlink:href="#mdb54c8b71a" y="246.395175"/>
     <use style="fill:#666666;stroke:#666666;" x="392.249202" xlink:href="#mdb54c8b71a" y="238.044061"/>
     <use style="fill:#666666;stroke:#666666;" x="394.759693" xlink:href="#mdb54c8b71a" y="230.765988"/>
     <use style="fill:#666666;stroke:#666666;" x="397.270184" xlink:href="#mdb54c8b71a" y="204.946816"/>
     <use style="fill:#666666;stroke:#666666;" x="399.780675" xlink:href="#mdb54c8b71a" y="171.156055"/>
     <use style="fill:#666666;stroke:#666666;" x="402.291166" xlink:href="#mdb54c8b71a" y="196.256443"/>
     <use style="fill:#666666;stroke:#666666;" x="404.801656" xlink:href="#mdb54c8b71a" y="224.906858"/>
     <use style="fill:#666666;stroke:#666666;" x="407.312147" xlink:href="#mdb54c8b71a" y="234.152321"/>
     <use style="fill:#666666;stroke:#666666;" x="409.822638" xlink:href="#mdb54c8b71a" y="237.036577"/>
     <use style="fill:#666666;stroke:#666666;" x="412.333129" xlink:href="#mdb54c8b71a" y="234.927778"/>
     <use style="fill:#666666;stroke:#666666;" x="414.84362" xlink:href="#mdb54c8b71a" y="217.340737"/>
     <use style="fill:#666666;stroke:#666666;" x="417.35411" xlink:href="#mdb54c8b71a" y="205.06879"/>
     <use style="fill:#666666;stroke:#666666;" x="419.864601" xlink:href="#mdb54c8b71a" y="142.347345"/>
     <use style="fill:#666666;stroke:#666666;" x="422.375092" xlink:href="#mdb54c8b71a" y="114.44181"/>
     <use style="fill:#666666;stroke:#666666;" x="424.885583" xlink:href="#mdb54c8b71a" y="178.137425"/>
     <use style="fill:#666666;stroke:#666666;" x="427.396074" xlink:href="#mdb54c8b71a" y="190.597565"/>
     <use style="fill:#666666;stroke:#666666;" x="429.906564" xlink:href="#mdb54c8b71a" y="188.084983"/>
     <use style="fill:#666666;stroke:#666666;" x="432.417055" xlink:href="#mdb54c8b71a" y="226.610587"/>
     <use style="fill:#666666;stroke:#666666;" x="434.927546" xlink:href="#mdb54c8b71a" y="230.771091"/>
     <use style="fill:#666666;stroke:#666666;" x="437.438037" xlink:href="#mdb54c8b71a" y="250.71352"/>
     <use style="fill:#666666;stroke:#666666;" x="439.948528" xlink:href="#mdb54c8b71a" y="247.218315"/>
     <use style="fill:#666666;stroke:#666666;" x="442.459018" xlink:href="#mdb54c8b71a" y="233.142569"/>
     <use style="fill:#666666;stroke:#666666;" x="444.969509" xlink:href="#mdb54c8b71a" y="183.576072"/>
     <use style="fill:#666666;stroke:#666666;" x="447.48" xlink:href="#mdb54c8b71a" y="26.696242"/>
    </g>
   </g>
   <g id="patch_3">
    <path d="M 38.27 287.71 
L 38.27 14.267016 
" style="fill:none;stroke:#000000;stroke-linecap:square;stroke-linejoin:miter;stroke-width:0.8;"/>
   </g>
   <g id="patch_4">
    <path d="M 447.48 287.71 
L 447.48 14.267016 
" style="fill:none;stroke:#000000;stroke-linecap:square;stroke-linejoin:miter;stroke-width:0.8;"/>
   </g>
   <g id="patch_5">
    <path d="M 38.27 287.71 
L 447.48 287.71 
" style="fill:none;stroke:#000000;stroke-linecap:square;stroke-linejoin:miter;stroke-width:0.8;"/>
   </g>
   <g id="patch_6">
    <path d="M 38.27 14.267016 
L 447.48 14.267016 
" style="fill:none;stroke:#000000;stroke-linecap:square;stroke-linejoin:miter;stroke-width:0.8;"/>
   </g>
  </g>
 </g>
 <defs>
  <clipPath id="p70f5901aed">
   <rect height="273.442984" width="409.21" x="38.27" y="14.267016"/>
  </clipPath>
 </defs>
</svg>
